RobotoHinted-Regular.ufo
<glyph name="exclam" format="2">
  <advance width="527"/>
  <unicode hex="0021"/>
  <outline>
    <contour>
      <point x="347" y="411" type="line"/>
      <point x="180" y="411" type="line"/>
      <point x="167" y="1456" type="line"/>
      <point x="361" y="1456" type="line"/>
    </contour>
    <contour>
      <point x="160" y="93" type="qcurve" smooth="yes"/>
      <point x="160" y="138"/>
      <point x="215" y="199"/>
      <point x="269.0" y="199.0" type="qcurve" smooth="yes" name="inserted"/>
      <point x="323" y="199"/>
      <point x="379" y="138"/>
      <point x="379.0" y="93.0" type="qcurve" smooth="yes" name="inserted"/>
      <point x="379" y="48"/>
      <point x="323" y="-11"/>
      <point x="269.0" y="-11.0" type="qcurve" smooth="yes" name="inserted"/>
      <point x="215" y="-11"/>
      <point x="160" y="48"/>
    </contour>
  </outline>
</glyph>
<glyph name="quotedbl" format="2">
  <advance width="655"/>
  <unicode hex="0022"/>
  <outline>
    <contour>
      <point x="277" y="1400" type="line"/>
      <point x="247" y="1042" type="line"/>
      <point x="136" y="1042" type="line"/>
      <point x="137" y="1536" type="line"/>
      <point x="277" y="1536" type="line"/>
    </contour>
    <contour>
      <point x="547" y="1400" type="line"/>
      <point x="517" y="1042" type="line"/>
      <point x="406" y="1042" type="line"/>
      <point x="407" y="1536" type="line"/>
      <point x="547" y="1536" type="line"/>
    </contour>
  </outline>
</glyph>
<glyph name="dollar" format="2">
  <advance width="1150"/>
  <unicode hex="0024"/>
  <outline>
    <contour>
      <point x="856" y="375" type="qcurve" smooth="yes"/>
      <point x="856" y="467"/>
      <point x="727" y="593"/>
      <point x="574" y="644" type="qcurve" smooth="yes"/>
      <point x="361" y="709"/>
      <point x="166" y="918"/>
      <point x="166" y="1079" type="qcurve" smooth="yes"/>
      <point x="166" y="1243"/>
      <point x="357" y="1453"/>
      <point x="524" y="1473" type="qcurve"/>
      <point x="524" y="1692" type="line"/>
      <point x="673" y="1692" type="line"/>
      <point x="673" y="1472" type="line"/>
      <point x="841" y="1449"/>
      <point x="1028" y="1213"/>
      <point x="1028" y="1008" type="qcurve"/>
      <point x="844" y="1008" type="line"/>
      <point x="844" y="1149"/>
      <point x="710" y="1315"/>
      <point x="596" y="1315" type="qcurve" smooth="yes"/>
      <point x="477" y="1315"/>
      <point x="351" y="1192"/>
      <point x="351" y="1082" type="qcurve" smooth="yes"/>
      <point x="351" y="980"/>
      <point x="484" y="859"/>
      <point x="636.5" y="809.5" type="qcurve" smooth="yes" name="inserted"/>
      <point x="789" y="760"/>
      <point x="960" y="641"/>
      <point x="1000.5" y="562.0" type="qcurve" smooth="yes" name="inserted"/>
      <point x="1020.75" y="522.5" name="inserted"/>
      <point x="1041.0" y="430.0"/>
      <point x="1041" y="377" type="qcurve" smooth="yes"/>
      <point x="1041" y="208"/>
      <point x="838" y="2"/>
      <point x="655" y="-17" type="qcurve"/>
      <point x="655" y="-208" type="line"/>
      <point x="507" y="-208" type="line"/>
      <point x="507" y="-17" type="line"/>
      <point x="321" y="0"/>
      <point x="110" y="231"/>
      <point x="110" y="429" type="qcurve"/>
      <point x="295" y="429" type="line"/>
      <point x="295" y="290"/>
      <point x="441" y="140"/>
      <point x="575" y="140" type="qcurve" smooth="yes"/>
      <point x="706" y="140"/>
      <point x="856" y="266"/>
    </contour>
  </outline>
</glyph>
<glyph name="percent" format="2">
  <advance width="1500"/>
  <unicode hex="0025"/>
  <outline>
    <contour>
      <point x="105" y="1176" type="line" smooth="yes"/>
      <point x="105" y="1307"/>
      <point x="272" y="1477"/>
      <point x="403" y="1477" type="qcurve" smooth="yes"/>
      <point x="536" y="1477"/>
      <point x="701" y="1306"/>
      <point x="701" y="1170" type="qcurve" smooth="yes"/>
      <point x="701" y="1099" type="line" smooth="yes"/>
      <point x="701" y="967"/>
      <point x="534" y="800"/>
      <point x="405" y="800" type="qcurve" smooth="yes"/>
      <point x="275" y="800"/>
      <point x="105" y="967"/>
      <point x="105" y="1106" type="qcurve" smooth="yes"/>
    </contour>
    <contour>
      <point x="243" y="1099" type="line" smooth="yes"/>
      <point x="243" y="1021"/>
      <point x="331" y="920"/>
      <point x="405" y="920" type="qcurve" smooth="yes"/>
      <point x="476" y="920"/>
      <point x="563" y="1018"/>
      <point x="563" y="1103" type="qcurve" smooth="yes"/>
      <point x="563" y="1176" type="line" smooth="yes"/>
      <point x="563" y="1254"/>
      <point x="477" y="1356"/>
      <point x="403.0" y="1356.0" type="qcurve" smooth="yes" name="inserted"/>
      <point x="329" y="1356"/>
      <point x="243" y="1254"/>
      <point x="243" y="1172" type="qcurve" smooth="yes"/>
    </contour>
    <contour>
      <point x="814" y="357" type="line" smooth="yes"/>
      <point x="814" y="488"/>
      <point x="981" y="657"/>
      <point x="1112.0" y="657.0" type="qcurve" smooth="yes" name="inserted"/>
      <point x="1243" y="657"/>
      <point x="1411" y="489"/>
      <point x="1411" y="350" type="qcurve" smooth="yes"/>
      <point x="1411" y="279" type="line" smooth="yes"/>
      <point x="1411" y="148"/>
      <point x="1244" y="-21"/>
      <point x="1114.0" y="-21.0" type="qcurve" smooth="yes" name="inserted"/>
      <point x="984" y="-21"/>
      <point x="814" y="146"/>
      <point x="814" y="285" type="qcurve" smooth="yes"/>
    </contour>
    <contour>
      <point x="952" y="279" type="line" smooth="yes"/>
      <point x="952" y="200"/>
      <point x="1040" y="99"/>
      <point x="1114" y="99" type="qcurve" smooth="yes"/>
      <point x="1186" y="99"/>
      <point x="1272" y="198"/>
      <point x="1272" y="283" type="qcurve" smooth="yes"/>
      <point x="1272" y="357" type="line" smooth="yes"/>
      <point x="1272" y="436"/>
      <point x="1185" y="536"/>
      <point x="1112" y="536" type="qcurve" smooth="yes"/>
      <point x="1041" y="536"/>
      <point x="952" y="437"/>
      <point x="952" y="353" type="qcurve" smooth="yes"/>
    </contour>
    <contour>
      <point x="447" y="110" type="line"/>
      <point x="342" y="176" type="line"/>
      <point x="1053" y="1314" type="line"/>
      <point x="1158" y="1248" type="line"/>
    </contour>
  </outline>
</glyph>
<glyph name="ampersand" format="2">
  <advance width="1273"/>
  <unicode hex="0026"/>
  <outline>
    <contour>
      <point x="101" y="391" type="qcurve" smooth="yes"/>
      <point x="101" y="496"/>
      <point x="218" y="672"/>
      <point x="383" y="789" type="qcurve"/>
      <point x="286" y="907"/>
      <point x="220" y="1051"/>
      <point x="220" y="1122" type="qcurve" smooth="yes"/>
      <point x="220" y="1288"/>
      <point x="416" y="1476"/>
      <point x="584" y="1476" type="qcurve" smooth="yes"/>
      <point x="734" y="1476"/>
      <point x="930" y="1301"/>
      <point x="930" y="1168" type="qcurve" smooth="yes"/>
      <point x="930" y="1080"/>
      <point x="841" y="931"/>
      <point x="730" y="849" type="qcurve" smooth="yes"/>
      <point x="623" y="770" type="line"/>
      <point x="947" y="383" type="line"/>
      <point x="981.0" y="448.0" name="inserted"/>
      <point x="1015.0" y="592.5"/>
      <point x="1015" y="672" type="qcurve"/>
      <point x="1182" y="672" type="line"/>
      <point x="1182.0" y="544.5" name="inserted"/>
      <point x="1120.5" y="333.0"/>
      <point x="1059" y="249" type="qcurve"/>
      <point x="1267" y="0" type="line"/>
      <point x="1045" y="0" type="line"/>
      <point x="948" y="115" type="line"/>
      <point x="874" y="49"/>
      <point x="675" y="-20"/>
      <point x="572" y="-20" type="qcurve" smooth="yes"/>
      <point x="359" y="-20"/>
      <point x="101" y="206"/>
    </contour>
    <contour>
      <point x="572" y="131" type="qcurve" smooth="yes"/>
      <point x="645.5" y="131.0" name="inserted"/>
      <point x="780.0" y="187.0"/>
      <point x="841" y="243" type="qcurve"/>
      <point x="486" y="668" type="line"/>
      <point x="453" y="644" type="line" smooth="yes"/>
      <point x="369.5" y="582.5" name="inserted"/>
      <point x="286.0" y="456.0"/>
      <point x="286" y="391" type="qcurve" smooth="yes"/>
      <point x="286" y="273"/>
      <point x="439" y="131"/>
    </contour>
    <contour>
      <point x="405" y="1128" type="qcurve" smooth="yes"/>
      <point x="405.0" y="1080.0" name="inserted"/>
      <point x="464.0" y="960.0"/>
      <point x="523" y="888" type="qcurve"/>
      <point x="641" y="971" type="line" smooth="yes"/>
      <point x="709" y="1019"/>
      <point x="759" y="1106"/>
      <point x="759" y="1168" type="qcurve" smooth="yes"/>
      <point x="759" y="1235"/>
      <point x="659" y="1324"/>
      <point x="583" y="1324" type="qcurve" smooth="yes"/>
      <point x="501" y="1324"/>
      <point x="405" y="1213"/>
    </contour>
  </outline>
</glyph>
<glyph name="parenright" format="2">
  <advance width="712"/>
  <unicode hex="0029"/>
  <outline>
    <contour>
      <point x="567" y="581" type="qcurve" smooth="yes"/>
      <point x="567" y="358"/>
      <point x="450" y="-51"/>
      <point x="329.5" y="-224.0" type="qcurve" smooth="yes" name="inserted"/>
      <point x="269.25" y="-310.5" name="inserted"/>
      <point x="143.0" y="-433.5"/>
      <point x="77" y="-470" type="qcurve"/>
      <point x="38" y="-357" type="line"/>
      <point x="192" y="-239"/>
      <point x="379" y="258"/>
      <point x="381" y="561" type="qcurve" smooth="yes"/>
      <point x="381" y="593" type="line" smooth="yes"/>
      <point x="381" y="803"/>
      <point x="293" y="1164"/>
      <point x="214.5" y="1307.0" type="qcurve" smooth="yes" name="inserted"/>
      <point x="175.25" y="1378.5" name="inserted"/>
      <point x="87.0" y="1490.0"/>
      <point x="38" y="1530" type="qcurve"/>
      <point x="77" y="1643" type="line"/>
      <point x="209" y="1570"/>
      <point x="448" y="1228"/>
      <point x="507.5" y="1022.0" type="qcurve" smooth="yes" name="inserted"/>
      <point x="537.25" y="919.0" name="inserted"/>
      <point x="567.0" y="698.5"/>
    </contour>
  </outline>
</glyph>
<glyph name="period" format="2">
  <advance width="539"/>
  <unicode hex="002E"/>
  <outline>
    <contour>
      <point x="144" y="97" type="qcurve" smooth="yes"/>
      <point x="144" y="145"/>
      <point x="201" y="209"/>
      <point x="258.0" y="209.0" type="qcurve" smooth="yes" name="inserted"/>
      <point x="315" y="209"/>
      <point x="374" y="145"/>
      <point x="374" y="97" type="qcurve" smooth="yes"/>
      <point x="374" y="51"/>
      <point x="315" y="-11"/>
      <point x="258.0" y="-11.0" type="qcurve" smooth="yes" name="inserted"/>
      <point x="201" y="-11"/>
      <point x="144" y="51"/>
    </contour>
  </outline>
</glyph>
<glyph name="slash" format="2">
  <advance width="844"/>
  <unicode hex="002F"/>
  <outline>
    <contour>
      <point x="177" y="-125" type="line"/>
      <point x="18" y="-125" type="line"/>
      <point x="626" y="1456" type="line"/>
      <point x="784" y="1456" type="line"/>
    </contour>
  </outline>
</glyph>
<glyph name="zero" format="2">
  <advance width="1150"/>
  <unicode hex="0030"/>
  <outline>
    <contour>
      <point x="1034" y="621" type="line" smooth="yes"/>
      <point x="1034" y="296"/>
      <point x="812" y="-20"/>
      <point x="576" y="-20" type="qcurve" smooth="yes"/>
      <point x="343" y="-20"/>
      <point x="119" y="289"/>
      <point x="115" y="596" type="qcurve" smooth="yes"/>
      <point x="115" y="843" type="line" smooth="yes"/>
      <point x="115" y="1164"/>
      <point x="337" y="1476"/>
      <point x="574" y="1476" type="qcurve" smooth="yes"/>
      <point x="809" y="1476"/>
      <point x="1031" y="1175"/>
      <point x="1034" y="861" type="qcurve" smooth="yes"/>
    </contour>
    <contour>
      <point x="849" y="874" type="line" smooth="yes"/>
      <point x="849" y="1109"/>
      <point x="717" y="1324"/>
      <point x="574" y="1324" type="qcurve" smooth="yes"/>
      <point x="432" y="1324"/>
      <point x="302" y="1110"/>
      <point x="300" y="888" type="qcurve"/>
      <point x="300" y="592" type="line" smooth="yes"/>
      <point x="300" y="356"/>
      <point x="437" y="131"/>
      <point x="576" y="131" type="qcurve" smooth="yes"/>
      <point x="713" y="131"/>
      <point x="846" y="343"/>
      <point x="849" y="571" type="qcurve" smooth="yes"/>
    </contour>
  </outline>
</glyph>
<glyph name="two" format="2">
  <advance width="1150"/>
  <unicode hex="0032"/>
  <outline>
    <contour>
      <point x="1075" y="0" type="line"/>
      <point x="121" y="0" type="line"/>
      <point x="121" y="133" type="line"/>
      <point x="625" y="693" type="line" smooth="yes"/>
      <point x="737" y="820"/>
      <point x="822" y="979"/>
      <point x="822" y="1064" type="qcurve" smooth="yes"/>
      <point x="822" y="1178"/>
      <point x="684" y="1324"/>
      <point x="569" y="1324" type="qcurve" smooth="yes"/>
      <point x="431" y="1324"/>
      <point x="278" y="1167"/>
      <point x="278" y="1027" type="qcurve"/>
      <point x="93" y="1027" type="line"/>
      <point x="93" y="1228"/>
      <point x="352" y="1476"/>
      <point x="569" y="1476" type="qcurve" smooth="yes"/>
      <point x="772" y="1476"/>
      <point x="1008" y="1263"/>
      <point x="1008" y="1086" type="qcurve" smooth="yes"/>
      <point x="1008.0" y="978.5" name="inserted"/>
      <point x="871.0" y="722.5"/>
      <point x="734" y="574" type="qcurve" smooth="yes"/>
      <point x="344" y="151" type="line"/>
      <point x="1075" y="151" type="line"/>
    </contour>
  </outline>
</glyph>
<glyph name="three" format="2">
  <advance width="1150"/>
  <unicode hex="0033"/>
  <outline>
    <contour>
      <point x="390" y="818" type="line"/>
      <point x="529" y="818" type="line" smooth="yes"/>
      <point x="660" y="820"/>
      <point x="810" y="954"/>
      <point x="810" y="1068" type="qcurve" smooth="yes"/>
      <point x="810.0" y="1196.0" name="inserted"/>
      <point x="682.5" y="1324.0"/>
      <point x="555" y="1324" type="qcurve" smooth="yes"/>
      <point x="435" y="1324"/>
      <point x="292" y="1187"/>
      <point x="292" y="1074" type="qcurve"/>
      <point x="107" y="1074" type="line"/>
      <point x="107" y="1247"/>
      <point x="360" y="1476"/>
      <point x="555" y="1476" type="qcurve" smooth="yes"/>
      <point x="761" y="1476"/>
      <point x="995" y="1258"/>
      <point x="995" y="1064" type="qcurve" smooth="yes"/>
      <point x="995" y="969"/>
      <point x="872" y="791"/>
      <point x="766" y="747" type="qcurve"/>
      <point x="886" y="709"/>
      <point x="1017" y="533"/>
      <point x="1017" y="406" type="qcurve" smooth="yes"/>
      <point x="1017" y="210"/>
      <point x="761" y="-20"/>
      <point x="556.0" y="-20.0" type="qcurve" smooth="yes" name="inserted"/>
      <point x="351" y="-20"/>
      <point x="94" y="202"/>
      <point x="94" y="384" type="qcurve"/>
      <point x="280" y="384" type="line"/>
      <point x="280" y="269"/>
      <point x="430" y="131"/>
      <point x="556" y="131" type="qcurve" smooth="yes"/>
      <point x="690" y="131"/>
      <point x="832" y="271"/>
      <point x="832" y="402" type="qcurve" smooth="yes"/>
      <point x="832" y="529"/>
      <point x="676" y="665"/>
      <point x="529" y="667" type="qcurve" smooth="yes"/>
      <point x="390" y="667" type="line"/>
    </contour>
  </outline>
</glyph>
<glyph name="four" format="2">
  <advance width="1150"/>
  <unicode hex="0034"/>
  <outline>
    <contour>
      <point x="902" y="489" type="line"/>
      <point x="1104" y="489" type="line"/>
      <point x="1104" y="338" type="line"/>
      <point x="902" y="338" type="line"/>
      <point x="902" y="0" type="line"/>
      <point x="716" y="0" type="line"/>
      <point x="716" y="338" type="line"/>
      <point x="53" y="338" type="line"/>
      <point x="53" y="447" type="line"/>
      <point x="705" y="1456" type="line"/>
      <point x="902" y="1456" type="line"/>
    </contour>
    <contour>
      <point x="263" y="489" type="line"/>
      <point x="716" y="489" type="line"/>
      <point x="716" y="1203" type="line"/>
      <point x="694" y="1163" type="line"/>
    </contour>
  </outline>
</glyph>
<glyph name="five" format="2">
  <advance width="1150"/>
  <unicode hex="0035"/>
  <outline>
    <contour>
      <point x="206" y="730" type="line"/>
      <point x="280" y="1456" type="line"/>
      <point x="1026" y="1456" type="line"/>
      <point x="1026" y="1285" type="line"/>
      <point x="437" y="1285" type="line"/>
      <point x="393" y="888" type="line"/>
      <point x="446.5" y="919.5" name="inserted"/>
      <point x="568.0" y="951.0"/>
      <point x="636" y="951" type="qcurve" smooth="yes"/>
      <point x="835" y="951"/>
      <point x="1069" y="688"/>
      <point x="1069" y="464" type="qcurve" smooth="yes"/>
      <point x="1069" y="239"/>
      <point x="826" y="-20"/>
      <point x="608" y="-20" type="qcurve" smooth="yes"/>
      <point x="415" y="-20"/>
      <point x="171" y="194"/>
      <point x="154" y="383" type="qcurve"/>
      <point x="329" y="383" type="line"/>
      <point x="346" y="258"/>
      <point x="490" y="131"/>
      <point x="608" y="131" type="qcurve" smooth="yes"/>
      <point x="737" y="131"/>
      <point x="884" y="307"/>
      <point x="884" y="462" type="qcurve" smooth="yes"/>
      <point x="884" y="608"/>
      <point x="725" y="785"/>
      <point x="593" y="785" type="qcurve" smooth="yes"/>
      <point x="532.5" y="785.0" name="inserted"/>
      <point x="437.5" y="758.5"/>
      <point x="403" y="732" type="qcurve" smooth="yes"/>
      <point x="354" y="692" type="line"/>
    </contour>
  </outline>
</glyph>
<glyph name="seven" format="2">
  <advance width="1150"/>
  <unicode hex="0037"/>
  <outline>
    <contour>
      <point x="1061" y="1352" type="line"/>
      <point x="458" y="0" type="line"/>
      <point x="264" y="0" type="line"/>
      <point x="865" y="1304" type="line"/>
      <point x="77" y="1304" type="line"/>
      <point x="77" y="1456" type="line"/>
      <point x="1061" y="1456" type="line"/>
    </contour>
  </outline>
</glyph>
<glyph name="eight" format="2">
  <advance width="1150"/>
  <unicode hex="0038"/>
  <outline>
    <contour>
      <point x="1004" y="1076" type="qcurve" smooth="yes"/>
      <point x="1004" y="967"/>
      <point x="889" y="797"/>
      <point x="791" y="749" type="qcurve"/>
      <point x="905" y="700"/>
      <point x="1038" y="512"/>
      <point x="1038" y="393" type="qcurve" smooth="yes"/>
      <point x="1038" y="204"/>
      <point x="783" y="-20"/>
      <point x="575" y="-20" type="qcurve" smooth="yes"/>
      <point x="365" y="-20"/>
      <point x="112" y="205"/>
      <point x="112" y="393" type="qcurve" smooth="yes"/>
      <point x="112" y="511"/>
      <point x="241" y="701"/>
      <point x="355" y="750" type="qcurve"/>
      <point x="258" y="798"/>
      <point x="146" y="968"/>
      <point x="146" y="1076" type="qcurve" smooth="yes"/>
      <point x="146" y="1260"/>
      <point x="382" y="1476"/>
      <point x="575" y="1476" type="qcurve" smooth="yes"/>
      <point x="767" y="1476"/>
      <point x="1004" y="1260"/>
    </contour>
    <contour>
      <point x="853" y="397" type="qcurve" smooth="yes"/>
      <point x="853" y="519"/>
      <point x="698" y="673"/>
      <point x="573.0" y="673.0" type="qcurve" smooth="yes" name="inserted"/>
      <point x="448" y="673"/>
      <point x="297" y="521"/>
      <point x="297.0" y="397.0" type="qcurve" smooth="yes" name="inserted"/>
      <point x="297" y="273"/>
      <point x="444" y="131"/>
      <point x="575" y="131" type="qcurve" smooth="yes"/>
      <point x="705" y="131"/>
      <point x="853" y="274"/>
    </contour>
    <contour>
      <point x="575" y="1324" type="qcurve" smooth="yes"/>
      <point x="466" y="1324"/>
      <point x="331" y="1189"/>
      <point x="331" y="1073" type="qcurve" smooth="yes"/>
      <point x="331" y="962"/>
      <point x="464" y="825"/>
      <point x="575.0" y="825.0" type="qcurve" smooth="yes" name="inserted"/>
      <point x="686" y="825"/>
      <point x="819" y="962"/>
      <point x="819.0" y="1073.0" type="qcurve" smooth="yes" name="inserted"/>
      <point x="819" y="1184"/>
      <point x="681" y="1324"/>
    </contour>
  </outline>
</glyph>
<glyph name="nine" format="2">
  <advance width="1150"/>
  <unicode hex="0039"/>
  <outline>
    <contour>
      <point x="830" y="640" type="qcurve"/>
      <point x="772" y="571"/>
      <point x="611" y="487"/>
      <point x="515" y="487" type="qcurve" smooth="yes"/>
      <point x="389" y="487"/>
      <point x="202" y="611"/>
      <point x="151.0" y="723.5" type="qcurve" smooth="yes" name="inserted"/>
      <point x="125.5" y="779.75" name="inserted"/>
      <point x="100.0" y="904.0"/>
      <point x="100" y="972" type="qcurve" smooth="yes"/>
      <point x="100" y="1118"/>
      <point x="211" y="1352"/>
      <point x="313.0" y="1414.0" type="qcurve" smooth="yes" name="inserted"/>
      <point x="364.0" y="1445.0" name="inserted"/>
      <point x="483.0" y="1476.0"/>
      <point x="551" y="1476" type="qcurve" smooth="yes"/>
      <point x="767" y="1476"/>
      <point x="1016" y="1153"/>
      <point x="1016" y="874" type="qcurve" smooth="yes"/>
      <point x="1016" y="820" type="line" smooth="yes"/>
      <point x="1016" y="395"/>
      <point x="680" y="4"/>
      <point x="341" y="-1" type="qcurve" smooth="yes"/>
      <point x="305" y="-1" type="line"/>
      <point x="305" y="155" type="line"/>
      <point x="344" y="155" type="line" smooth="yes"/>
      <point x="573" y="159"/>
      <point x="819" y="390"/>
    </contour>
    <contour>
      <point x="545" y="640" type="qcurve" smooth="yes"/>
      <point x="638" y="640"/>
      <point x="795" y="754"/>
      <point x="831" y="838" type="qcurve"/>
      <point x="831" y="912" type="line" smooth="yes"/>
      <point x="831" y="1094"/>
      <point x="673" y="1322"/>
      <point x="552" y="1322" type="qcurve" smooth="yes"/>
      <point x="430" y="1322"/>
      <point x="282" y="1135"/>
      <point x="282" y="982" type="qcurve" smooth="yes"/>
      <point x="282" y="833"/>
      <point x="425" y="640"/>
    </contour>
  </outline>
</glyph>
<glyph name="question" format="2">
  <advance width="967"/>
  <unicode hex="003F"/>
  <outline>
    <contour>
      <point x="357" y="410" type="line"/>
      <point x="359" y="529"/>
      <point x="409" y="667"/>
      <point x="486" y="751" type="qcurve" smooth="yes"/>
      <point x="617" y="886" type="line" smooth="yes"/>
      <point x="659.0" y="933.5" name="inserted"/>
      <point x="701.0" y="1035.5"/>
      <point x="701" y="1090" type="qcurve" smooth="yes"/>
      <point x="701" y="1195"/>
      <point x="591" y="1314"/>
      <point x="486" y="1314" type="qcurve" smooth="yes"/>
      <point x="384" y="1314"/>
      <point x="260" y="1206"/>
      <point x="260" y="1115" type="qcurve"/>
      <point x="75" y="1115" type="line"/>
      <point x="77" y="1277"/>
      <point x="304" y="1476"/>
      <point x="486" y="1476" type="qcurve" smooth="yes"/>
      <point x="675" y="1476"/>
      <point x="886" y="1273"/>
      <point x="886" y="1096" type="qcurve" smooth="yes"/>
      <point x="886.0" y="1008.5" name="inserted"/>
      <point x="805.0" y="836.0"/>
      <point x="724" y="751" type="qcurve" smooth="yes"/>
      <point x="615" y="643" type="line"/>
      <point x="578.5" y="602.5" name="inserted"/>
      <point x="542.0" y="486.0"/>
      <point x="542" y="410" type="qcurve"/>
    </contour>
    <contour>
      <point x="349" y="93" type="qcurve" smooth="yes"/>
      <point x="349" y="138"/>
      <point x="404" y="199"/>
      <point x="458.0" y="199.0" type="qcurve" smooth="yes" name="inserted"/>
      <point x="512" y="199"/>
      <point x="568" y="138"/>
      <point x="568.0" y="93.0" type="qcurve" smooth="yes" name="inserted"/>
      <point x="568" y="48"/>
      <point x="512" y="-11"/>
      <point x="458.0" y="-11.0" type="qcurve" smooth="yes" name="inserted"/>
      <point x="404" y="-11"/>
      <point x="349" y="48"/>
    </contour>
  </outline>
</glyph>
<glyph name="A" format="2">
  <advance width="1336"/>
  <unicode hex="0041"/>
  <outline>
    <contour>
      <point x="973" y="380" type="line"/>
      <point x="363" y="380" type="line"/>
      <point x="226" y="0" type="line"/>
      <point x="28" y="0" type="line"/>
      <point x="584" y="1456" type="line"/>
      <point x="752" y="1456" type="line"/>
      <point x="1309" y="0" type="line"/>
      <point x="1112" y="0" type="line"/>
    </contour>
    <contour>
      <point x="421" y="538" type="line"/>
      <point x="916" y="538" type="line"/>
      <point x="668" y="1219" type="line"/>
    </contour>
  </outline>
</glyph>
<glyph name="C" format="2">
  <advance width="1333"/>
  <unicode hex="0043"/>
  <outline>
    <contour>
      <point x="1240" y="462" type="line"/>
      <point x="1213" y="231"/>
      <point x="926" y="-20"/>
      <point x="688" y="-20" type="qcurve" smooth="yes"/>
      <point x="430" y="-20"/>
      <point x="119" y="350"/>
      <point x="119" y="660" type="qcurve" smooth="yes"/>
      <point x="119" y="800" type="line" smooth="yes"/>
      <point x="119" y="1003"/>
      <point x="264" y="1311"/>
      <point x="397.0" y="1393.5" type="qcurve" smooth="yes" name="inserted"/>
      <point x="463.5" y="1434.75" name="inserted"/>
      <point x="617.5" y="1476.0"/>
      <point x="705" y="1476" type="qcurve" smooth="yes"/>
      <point x="937" y="1476"/>
      <point x="1217" y="1217"/>
      <point x="1240" y="988" type="qcurve"/>
      <point x="1047" y="988" type="line"/>
      <point x="1022" y="1162"/>
      <point x="855" y="1318"/>
      <point x="705" y="1318" type="qcurve" smooth="yes"/>
      <point x="521" y="1318"/>
      <point x="312" y="1046"/>
      <point x="312" y="795" type="qcurve" smooth="yes"/>
      <point x="312" y="654" type="line" smooth="yes"/>
      <point x="312" y="417"/>
      <point x="510" y="137"/>
      <point x="688" y="137" type="qcurve" smooth="yes"/>
      <point x="848" y="137"/>
      <point x="1019" y="282"/>
      <point x="1047" y="462" type="qcurve"/>
    </contour>
  </outline>
</glyph>
<glyph name="E" format="2">
  <advance width="1164"/>
  <unicode hex="0045"/>
  <outline>
    <contour>
      <point x="992" y="673" type="line"/>
      <point x="361" y="673" type="line"/>
      <point x="361" y="157" type="line"/>
      <point x="1094" y="157" type="line"/>
      <point x="1094" y="0" type="line"/>
      <point x="169" y="0" type="line"/>
      <point x="169" y="1456" type="line"/>
      <point x="1084" y="1456" type="line"/>
      <point x="1084" y="1298" type="line"/>
      <point x="361" y="1298" type="line"/>
      <point x="361" y="830" type="line"/>
      <point x="992" y="830" type="line"/>
    </contour>
  </outline>
</glyph>
<glyph name="J" format="2">
  <advance width="1130"/>
  <unicode hex="004A"/>
  <outline>
    <contour>
      <point x="779" y="1456" type="line"/>
      <point x="972" y="1456" type="line"/>
      <point x="972" y="425" type="line" smooth="yes"/>
      <point x="972" y="216"/>
      <point x="721" y="-20"/>
      <point x="512" y="-20" type="qcurve" smooth="yes"/>
      <point x="295" y="-20"/>
      <point x="53" y="202"/>
      <point x="53" y="402" type="qcurve"/>
      <point x="245" y="402" type="line"/>
      <point x="245" y="277"/>
      <point x="382" y="137"/>
      <point x="512" y="137" type="qcurve" smooth="yes"/>
      <point x="631" y="137"/>
      <point x="778" y="287"/>
      <point x="779" y="422" type="qcurve" smooth="yes"/>
    </contour>
  </outline>
</glyph>
<glyph name="L" format="2">
  <advance width="1102"/>
  <unicode hex="004C"/>
  <outline>
    <contour>
      <point x="362" y="157" type="line"/>
      <point x="1052" y="157" type="line"/>
      <point x="1052" y="0" type="line"/>
      <point x="169" y="0" type="line"/>
      <point x="169" y="1456" type="line"/>
      <point x="362" y="1456" type="line"/>
    </contour>
  </outline>
</glyph>
<glyph name="M" format="2">
  <advance width="1788"/>
  <unicode hex="004D"/>
  <outline>
    <contour>
      <point x="417" y="1456" type="line"/>
      <point x="893" y="268" type="line"/>
      <point x="1369" y="1456" type="line"/>
      <point x="1618" y="1456" type="line"/>
      <point x="1618" y="0" type="line"/>
      <point x="1426" y="0" type="line"/>
      <point x="1426" y="567" type="line"/>
      <point x="1444" y="1179" type="line"/>
      <point x="966" y="0" type="line"/>
      <point x="819" y="0" type="line"/>
      <point x="342" y="1176" type="line"/>
      <point x="361" y="567" type="line"/>
      <point x="361" y="0" type="line"/>
      <point x="169" y="0" type="line"/>
      <point x="169" y="1456" type="line"/>
    </contour>
  </outline>
</glyph>
<glyph name="O" format="2">
  <advance width="1408"/>
  <unicode hex="004F"/>
  <outline>
    <contour>
      <point x="1289" y="681" type="line" smooth="yes"/>
      <point x="1289" y="467"/>
      <point x="1145" y="148"/>
      <point x="1013.0" y="64.0" type="qcurve" smooth="yes" name="inserted"/>
      <point x="947.0" y="22.0" name="inserted"/>
      <point x="793.0" y="-20.0"/>
      <point x="705" y="-20" type="qcurve" smooth="yes"/>
      <point x="533" y="-20"/>
      <point x="267" y="149"/>
      <point x="193.5" y="305.5" type="qcurve" smooth="yes" name="inserted"/>
      <point x="156.75" y="383.75" name="inserted"/>
      <point x="119.0" y="565.0"/>
      <point x="118" y="668" type="qcurve" smooth="yes"/>
      <point x="118" y="773" type="line" smooth="yes"/>
      <point x="118" y="983"/>
      <point x="264" y="1305"/>
      <point x="397.5" y="1390.5" type="qcurve" smooth="yes" name="inserted"/>
      <point x="464.25" y="1433.25" name="inserted"/>
      <point x="617.0" y="1476.0"/>
      <point x="703" y="1476" type="qcurve" smooth="yes"/>
      <point x="878" y="1476"/>
      <point x="1145" y="1307"/>
      <point x="1217.0" y="1146.5" type="qcurve" smooth="yes" name="inserted"/>
      <point x="1253.0" y="1066.25" name="inserted"/>
      <point x="1289.0" y="879.5"/>
      <point x="1289" y="773" type="qcurve" smooth="yes"/>
    </contour>
    <contour>
      <point x="1098" y="775" type="line" smooth="yes"/>
      <point x="1098" y="1034"/>
      <point x="890" y="1311"/>
      <point x="703" y="1311" type="qcurve" smooth="yes"/>
      <point x="521" y="1311"/>
      <point x="312" y="1034"/>
      <point x="309" y="788" type="qcurve"/>
      <point x="309" y="681" type="line" smooth="yes"/>
      <point x="309" y="430"/>
      <point x="520" y="143"/>
      <point x="705" y="143" type="qcurve" smooth="yes"/>
      <point x="891" y="143"/>
      <point x="1095" y="414"/>
      <point x="1098" y="667" type="qcurve" smooth="yes"/>
    </contour>
  </outline>
</glyph>
<glyph name="P" format="2">
  <advance width="1292"/>
  <unicode hex="0050"/>
  <outline>
    <contour>
      <point x="361" y="570" type="line"/>
      <point x="361" y="0" type="line"/>
      <point x="169" y="0" type="line"/>
      <point x="169" y="1456" type="line"/>
      <point x="706" y="1456" type="line" smooth="yes"/>
      <point x="945" y="1456"/>
      <point x="1216" y="1212"/>
      <point x="1216" y="1011" type="qcurve" smooth="yes"/>
      <point x="1216" y="799"/>
      <point x="951" y="570"/>
      <point x="704" y="570" type="qcurve" smooth="yes"/>
    </contour>
    <contour>
      <point x="361" y="727" type="line"/>
      <point x="706" y="727" type="line" smooth="yes"/>
      <point x="860" y="727"/>
      <point x="1024" y="872"/>
      <point x="1024" y="1009" type="qcurve" smooth="yes"/>
      <point x="1024" y="1139"/>
      <point x="860" y="1295"/>
      <point x="717" y="1298" type="qcurve" smooth="yes"/>
      <point x="361" y="1298" type="line"/>
    </contour>
  </outline>
</glyph>
<glyph name="T" format="2">
  <advance width="1222"/>
  <unicode hex="0054"/>
  <outline>
    <contour>
      <point x="1175" y="1298" type="line"/>
      <point x="707" y="1298" type="line"/>
      <point x="707" y="0" type="line"/>
      <point x="516" y="0" type="line"/>
      <point x="516" y="1298" type="line"/>
      <point x="49" y="1298" type="line"/>
      <point x="49" y="1456" type="line"/>
      <point x="1175" y="1456" type="line"/>
    </contour>
  </outline>
</glyph>
<glyph name="U" format="2">
  <advance width="1328"/>
  <unicode hex="0055"/>
  <outline>
    <contour>
      <point x="1194" y="1456" type="line"/>
      <point x="1194" y="466" type="line"/>
      <point x="1193" y="260"/>
      <point x="936" y="-2"/>
      <point x="716" y="-18" type="qcurve" smooth="yes"/>
      <point x="665" y="-20" type="line" smooth="yes"/>
      <point x="426" y="-20"/>
      <point x="142" y="238"/>
      <point x="140" y="464" type="qcurve" smooth="yes"/>
      <point x="140" y="1456" type="line"/>
      <point x="330" y="1456" type="line"/>
      <point x="330" y="470" type="line" smooth="yes"/>
      <point x="330" y="312"/>
      <point x="504" y="137"/>
      <point x="665" y="137" type="qcurve" smooth="yes"/>
      <point x="828" y="137"/>
      <point x="1001" y="311"/>
      <point x="1001" y="469" type="qcurve" smooth="yes"/>
      <point x="1001" y="1456" type="line"/>
    </contour>
  </outline>
</glyph>
<glyph name="V" format="2">
  <advance width="1303"/>
  <unicode hex="0056"/>
  <outline>
    <contour>
      <point x="651" y="255" type="line"/>
      <point x="1067" y="1456" type="line"/>
      <point x="1277" y="1456" type="line"/>
      <point x="737" y="0" type="line"/>
      <point x="567" y="0" type="line"/>
      <point x="28" y="1456" type="line"/>
      <point x="237" y="1456" type="line"/>
    </contour>
  </outline>
</glyph>
<glyph name="Y" format="2">
  <advance width="1230"/>
  <unicode hex="0059"/>
  <outline>
    <contour>
      <point x="613" y="725" type="line"/>
      <point x="993" y="1456" type="line"/>
      <point x="1211" y="1456" type="line"/>
      <point x="709" y="543" type="line"/>
      <point x="709" y="0" type="line"/>
      <point x="517" y="0" type="line"/>
      <point x="517" y="543" type="line"/>
      <point x="15" y="1456" type="line"/>
      <point x="235" y="1456" type="line"/>
    </contour>
  </outline>
</glyph>
<glyph name="bracketright" format="2">
  <advance width="543"/>
  <unicode hex="005D"/>
  <outline>
    <contour>
      <point x="9" y="1664" type="line"/>
      <point x="387" y="1664" type="line"/>
      <point x="387" y="-312" type="line"/>
      <point x="9" y="-312" type="line"/>
      <point x="9" y="-160" type="line"/>
      <point x="202" y="-160" type="line"/>
      <point x="202" y="1512" type="line"/>
      <point x="9" y="1512" type="line"/>
    </contour>
  </outline>
</glyph>
<glyph name="underscore" format="2">
  <advance width="924"/>
  <unicode hex="005F"/>
  <outline>
    <contour>
      <point x="920" y="-151" type="line"/>
      <point x="4" y="-151" type="line"/>
      <point x="4" y="0" type="line"/>
      <point x="920" y="0" type="line"/>
    </contour>
  </outline>
</glyph>
<glyph name="b" format="2">
  <advance width="1149"/>
  <unicode hex="0062"/>
  <outline>
    <contour>
      <point x="1056" y="529" type="line" smooth="yes"/>
      <point x="1056" y="281"/>
      <point x="828" y="-20"/>
      <point x="636" y="-20" type="qcurve" smooth="yes"/>
      <point x="533.5" y="-20.0" name="inserted"/>
      <point x="375.0" y="52.5"/>
      <point x="319" y="125" type="qcurve"/>
      <point x="310" y="0" type="line"/>
      <point x="140" y="0" type="line"/>
      <point x="140" y="1536" type="line"/>
      <point x="325" y="1536" type="line"/>
      <point x="325" y="963" type="line"/>
      <point x="437" y="1102"/>
      <point x="831" y="1102"/>
      <point x="943.5" y="953.0" type="qcurve" smooth="yes" name="inserted"/>
      <point x="999.75" y="878.5" name="inserted"/>
      <point x="1056.0" y="674.5"/>
      <point x="1056" y="545" type="qcurve" smooth="yes"/>
    </contour>
    <contour>
      <point x="871" y="550" type="qcurve" smooth="yes"/>
      <point x="871" y="739"/>
      <point x="725" y="945"/>
      <point x="588" y="945" type="qcurve" smooth="yes"/>
      <point x="496.5" y="945.0" name="inserted"/>
      <point x="365.0" y="860.0"/>
      <point x="325" y="775" type="qcurve"/>
      <point x="325" y="307" type="line"/>
      <point x="367.5" y="222.0" name="inserted"/>
      <point x="500.0" y="137.0"/>
      <point x="590" y="137" type="qcurve" smooth="yes"/>
      <point x="723" y="137"/>
      <point x="871" y="343"/>
    </contour>
  </outline>
</glyph>
<glyph name="e" format="2">
  <advance width="1085"/>
  <unicode hex="0065"/>
  <outline>
    <contour>
      <point x="589" y="-20" type="qcurve" smooth="yes"/>
      <point x="369" y="-20"/>
      <point x="93" y="269"/>
      <point x="93" y="511" type="qcurve" smooth="yes"/>
      <point x="93" y="545" type="line" smooth="yes"/>
      <point x="93" y="706"/>
      <point x="216" y="959"/>
      <point x="326.5" y="1030.5" type="qcurve" smooth="yes" name="inserted"/>
      <point x="381.75" y="1066.25" name="inserted"/>
      <point x="501.5" y="1102.0"/>
      <point x="566" y="1102" type="qcurve" smooth="yes"/>
      <point x="777" y="1102"/>
      <point x="1011" y="824"/>
      <point x="1011" y="565" type="qcurve" smooth="yes"/>
      <point x="1011" y="488" type="line"/>
      <point x="278" y="488" type="line"/>
      <point x="282" y="328"/>
      <point x="461" y="131"/>
      <point x="599" y="131" type="qcurve" smooth="yes"/>
      <point x="697" y="131"/>
      <point x="833" y="211"/>
      <point x="884" y="277" type="qcurve"/>
      <point x="997" y="189" type="line"/>
      <point x="929.0" y="84.5" name="inserted"/>
      <point x="725.0" y="-20.0"/>
    </contour>
    <contour>
      <point x="566" y="950" type="qcurve" smooth="yes"/>
      <point x="454" y="950"/>
      <point x="302" y="787"/>
      <point x="284" y="640" type="qcurve"/>
      <point x="826" y="640" type="line"/>
      <point x="826" y="654" type="line"/>
      <point x="818" y="795"/>
      <point x="682" y="950"/>
    </contour>
  </outline>
</glyph>
<glyph name="r" format="2">
  <advance width="693"/>
  <unicode hex="0072"/>
  <outline>
    <contour>
      <point x="663" y="916" type="line"/>
      <point x="642.0" y="919.5" name="inserted"/>
      <point x="596.5" y="923.0"/>
      <point x="572" y="923" type="qcurve" smooth="yes"/>
      <point x="481.0" y="923.0" name="inserted"/>
      <point x="357.5" y="845.5"/>
      <point x="325" y="768" type="qcurve"/>
      <point x="325" y="0" type="line"/>
      <point x="140" y="0" type="line"/>
      <point x="140" y="1082" type="line"/>
      <point x="320" y="1082" type="line"/>
      <point x="323" y="957" type="line"/>
      <point x="368.5" y="1029.5" name="inserted"/>
      <point x="497.5" y="1102.0"/>
      <point x="581" y="1102" type="qcurve" smooth="yes"/>
      <point x="608.0" y="1102.0" name="inserted"/>
      <point x="649.0" y="1095.0"/>
      <point x="663" y="1088" type="qcurve"/>
    </contour>
  </outline>
</glyph>
<glyph name="s" format="2">
  <advance width="1056"/>
  <unicode hex="0073"/>
  <outline>
    <contour>
      <point x="770" y="287" type="qcurve" smooth="yes"/>
      <point x="770" y="362"/>
      <point x="657" y="445"/>
      <point x="516.5" y="475.0" type="qcurve" smooth="yes" name="inserted"/>
      <point x="376" y="505"/>
      <point x="211" y="589"/>
      <point x="171.5" y="647.0" type="qcurve" smooth="yes" name="inserted"/>
      <point x="151.75" y="676.0" name="inserted"/>
      <point x="132.0" y="745.0"/>
      <point x="132" y="785" type="qcurve" smooth="yes"/>
      <point x="132" y="918"/>
      <point x="357" y="1102"/>
      <point x="532" y="1102" type="qcurve" smooth="yes"/>
      <point x="716" y="1102"/>
      <point x="945" y="912"/>
      <point x="945" y="764" type="qcurve"/>
      <point x="759" y="764" type="line"/>
      <point x="759" y="840"/>
      <point x="630" y="950"/>
      <point x="532" y="950" type="qcurve" smooth="yes"/>
      <point x="431" y="950"/>
      <point x="317" y="862"/>
      <point x="317" y="791" type="qcurve" smooth="yes"/>
      <point x="317" y="724"/>
      <point x="423" y="656"/>
      <point x="561.5" y="625.0" type="qcurve" smooth="yes" name="inserted"/>
      <point x="700" y="594"/>
      <point x="872" y="508"/>
      <point x="913.5" y="447.5" type="qcurve" smooth="yes" name="inserted"/>
      <point x="934.25" y="417.25" name="inserted"/>
      <point x="955.0" y="343.5"/>
      <point x="955" y="300" type="qcurve" smooth="yes"/>
      <point x="955" y="155"/>
      <point x="723" y="-20"/>
      <point x="538" y="-20" type="qcurve" smooth="yes"/>
      <point x="408" y="-20"/>
      <point x="208" y="72"/>
      <point x="151.5" y="154.5" type="qcurve" smooth="yes" name="inserted"/>
      <point x="123.25" y="195.75" name="inserted"/>
      <point x="95.0" y="285.0"/>
      <point x="95" y="333" type="qcurve"/>
      <point x="280" y="333" type="line"/>
      <point x="285" y="240"/>
      <point x="424" y="131"/>
      <point x="538" y="131" type="qcurve" smooth="yes"/>
      <point x="643" y="131"/>
      <point x="770" y="216"/>
    </contour>
  </outline>
</glyph>
<glyph name="t" format="2">
  <advance width="669"/>
  <unicode hex="0074"/>
  <outline>
    <contour>
      <point x="391" y="1344" type="line"/>
      <point x="391" y="1082" type="line"/>
      <point x="593" y="1082" type="line"/>
      <point x="593" y="939" type="line"/>
      <point x="391" y="939" type="line"/>
      <point x="391" y="268" type="line" smooth="yes"/>
      <point x="391" y="203"/>
      <point x="445" y="138"/>
      <point x="510" y="138" type="qcurve" smooth="yes"/>
      <point x="526.0" y="138.0" name="inserted"/>
      <point x="570.0" y="144.0"/>
      <point x="598" y="150" type="qcurve"/>
      <point x="598" y="0" type="line"/>
      <point x="561.5" y="-10.0" name="inserted"/>
      <point x="490.5" y="-20.0"/>
      <point x="456" y="-20" type="qcurve" smooth="yes"/>
      <point x="332" y="-20"/>
      <point x="206" y="130"/>
      <point x="206" y="268" type="qcurve" smooth="yes"/>
      <point x="206" y="939" type="line"/>
      <point x="9" y="939" type="line"/>
      <point x="9" y="1082" type="line"/>
      <point x="206" y="1082" type="line"/>
      <point x="206" y="1344" type="line"/>
    </contour>
  </outline>
</glyph>
<glyph name="w" format="2">
  <advance width="1539"/>
  <unicode hex="0077"/>
  <outline>
    <contour>
      <point x="1098" y="255" type="line"/>
      <point x="1306" y="1082" type="line"/>
      <point x="1491" y="1082" type="line"/>
      <point x="1176" y="0" type="line"/>
      <point x="1026" y="0" type="line"/>
      <point x="763" y="820" type="line"/>
      <point x="507" y="0" type="line"/>
      <point x="357" y="0" type="line"/>
      <point x="43" y="1082" type="line"/>
      <point x="227" y="1082" type="line"/>
      <point x="440" y="272" type="line"/>
      <point x="692" y="1082" type="line"/>
      <point x="841" y="1082" type="line"/>
    </contour>
  </outline>
</glyph>
<glyph name="x" format="2">
  <advance width="1015"/>
  <unicode hex="0078"/>
  <outline>
    <contour>
      <point x="503" y="687" type="line"/>
      <point x="743" y="1082" type="line"/>
      <point x="959" y="1082" type="line"/>
      <point x="605" y="547" type="line"/>
      <point x="970" y="0" type="line"/>
      <point x="756" y="0" type="line"/>
      <point x="506" y="405" type="line"/>
      <point x="256" y="0" type="line"/>
      <point x="41" y="0" type="line"/>
      <point x="406" y="547" type="line"/>
      <point x="52" y="1082" type="line"/>
      <point x="266" y="1082" type="line"/>
    </contour>
  </outline>
</glyph>
<glyph name="asciitilde" format="2">
  <advance width="1393"/>
  <unicode hex="007E"/>
  <outline>
    <contour>
      <point x="1263" y="777" type="line"/>
      <point x="1263" y="619"/>
      <point x="1076" y="402"/>
      <point x="939" y="402" type="qcurve" smooth="yes"/>
      <point x="867" y="402"/>
      <point x="739" y="455"/>
      <point x="654.5" y="529.0" type="qcurve" smooth="yes" name="inserted"/>
      <point x="570" y="603"/>
      <point x="496" y="639"/>
      <point x="454" y="639" type="qcurve" smooth="yes"/>
      <point x="376" y="639"/>
      <point x="292" y="532"/>
      <point x="292" y="438" type="qcurve"/>
      <point x="131" y="436" type="line"/>
      <point x="131" y="596"/>
      <point x="315" y="802"/>
      <point x="454" y="802" type="qcurve" smooth="yes"/>
      <point x="530" y="802"/>
      <point x="670" y="738"/>
      <point x="758.0" y="657.5" type="qcurve" smooth="yes" name="inserted"/>
      <point x="802.0" y="617.25" name="inserted"/>
      <point x="878.0" y="572.0"/>
      <point x="910" y="567" type="qcurve"/>
      <point x="939" y="565" type="line"/>
      <point x="1015" y="565"/>
      <point x="1110" y="681"/>
      <point x="1110" y="776" type="qcurve"/>
    </contour>
  </outline>
</glyph>
<glyph name="sterling" format="2">
  <advance width="1190"/>
  <unicode hex="00A3"/>
  <outline>
    <contour>
      <point x="449" y="622" type="line"/>
      <point x="457" y="402" type="line" smooth="yes"/>
      <point x="457.0" y="325.0" name="inserted"/>
      <point x="426.0" y="202.5"/>
      <point x="395" y="157" type="qcurve"/>
      <point x="1128" y="157" type="line"/>
      <point x="1127" y="0" type="line"/>
      <point x="95" y="0" type="line"/>
      <point x="95" y="157" type="line"/>
      <point x="172" y="157" type="line"/>
      <point x="212" y="166"/>
      <point x="262" y="297"/>
      <point x="264" y="393" type="qcurve" smooth="yes"/>
      <point x="264" y="401" type="line"/>
      <point x="256" y="622" type="line"/>
      <point x="91" y="622" type="line"/>
      <point x="91" y="779" type="line"/>
      <point x="251" y="779" type="line"/>
      <point x="242" y="1039" type="line" smooth="yes"/>
      <point x="242" y="1238"/>
      <point x="487" y="1476"/>
      <point x="687" y="1476" type="qcurve" smooth="yes"/>
      <point x="877" y="1476"/>
      <point x="1099" y="1264"/>
      <point x="1099" y="1087" type="qcurve"/>
      <point x="908" y="1087" type="line"/>
      <point x="908" y="1194"/>
      <point x="781" y="1318"/>
      <point x="670" y="1318" type="qcurve" smooth="yes"/>
      <point x="565" y="1318"/>
      <point x="435" y="1164"/>
      <point x="435" y="1039" type="qcurve" smooth="yes"/>
      <point x="444" y="779" type="line"/>
      <point x="763" y="779" type="line"/>
      <point x="763" y="622" type="line"/>
    </contour>
  </outline>
</glyph>
<glyph name="copyright" format="2">
  <advance width="1609"/>
  <unicode hex="00A9"/>
  <outline>
    <contour>
      <point x="1119" y="597" type="line"/>
      <point x="1119" y="444"/>
      <point x="946" y="283"/>
      <point x="788" y="283" type="qcurve" smooth="yes"/>
      <point x="631" y="283"/>
      <point x="442" y="494"/>
      <point x="442" y="676" type="qcurve" smooth="yes"/>
      <point x="442" y="786" type="line" smooth="yes"/>
      <point x="442" y="962"/>
      <point x="633" y="1173"/>
      <point x="788" y="1173" type="qcurve" smooth="yes"/>
      <point x="948" y="1173"/>
      <point x="1120" y="1009"/>
      <point x="1120" y="860" type="qcurve"/>
      <point x="974" y="860" type="line"/>
      <point x="974" y="959"/>
      <point x="879" y="1044"/>
      <point x="788" y="1044" type="qcurve" smooth="yes"/>
      <point x="694" y="1044"/>
      <point x="586" y="906"/>
      <point x="586" y="783" type="qcurve" smooth="yes"/>
      <point x="586" y="670" type="line" smooth="yes"/>
      <point x="586" y="550"/>
      <point x="694" y="412"/>
      <point x="788" y="412" type="qcurve" smooth="yes"/>
      <point x="880" y="412"/>
      <point x="973" y="496"/>
      <point x="973" y="597" type="qcurve"/>
    </contour>
    <contour>
      <point x="206" y="729" type="qcurve" smooth="yes"/>
      <point x="206" y="557"/>
      <point x="366" y="264"/>
      <point x="503.5" y="181.0" type="qcurve" smooth="yes" name="inserted"/>
      <point x="641" y="98"/>
      <point x="961" y="98"/>
      <point x="1098.0" y="181.0" type="qcurve" smooth="yes" name="inserted"/>
      <point x="1235" y="264"/>
      <point x="1395" y="557"/>
      <point x="1395" y="729" type="qcurve" smooth="yes"/>
      <point x="1395" y="899"/>
      <point x="1237" y="1189"/>
      <point x="1099.5" y="1272.5" type="qcurve" smooth="yes" name="inserted"/>
      <point x="1030.75" y="1314.25" name="inserted"/>
      <point x="881.5" y="1356.0"/>
      <point x="801" y="1356" type="qcurve" smooth="yes"/>
      <point x="641" y="1356"/>
      <point x="365" y="1191"/>
      <point x="285.5" y="1045.0" type="qcurve" smooth="yes" name="inserted"/>
      <point x="245.75" y="972.0" name="inserted"/>
      <point x="206.0" y="814.0"/>
    </contour>
    <contour>
      <point x="91" y="729" type="qcurve" smooth="yes"/>
      <point x="91" y="931"/>
      <point x="278" y="1277"/>
      <point x="443.5" y="1376.5" type="qcurve" smooth="yes" name="inserted"/>
      <point x="609" y="1476"/>
      <point x="993" y="1476"/>
      <point x="1158.0" y="1376.5" type="qcurve" smooth="yes" name="inserted"/>
      <point x="1323" y="1277"/>
      <point x="1510" y="931"/>
      <point x="1510" y="729" type="qcurve" smooth="yes"/>
      <point x="1510" y="532"/>
      <point x="1330" y="188"/>
      <point x="1164.5" y="83.5" type="qcurve" smooth="yes" name="inserted"/>
      <point x="1081.75" y="31.25" name="inserted"/>
      <point x="900.0" y="-21.0"/>
      <point x="801" y="-21" type="qcurve" smooth="yes"/>
      <point x="604" y="-21"/>
      <point x="273" y="186"/>
      <point x="182.0" y="358.0" type="qcurve" smooth="yes" name="inserted"/>
      <point x="136.5" y="444.0" name="inserted"/>
      <point x="91.0" y="629.5"/>
    </contour>
  </outline>
</glyph>
<glyph name="uni00B3" format="2">
  <advance width="751"/>
  <unicode hex="00B3"/>
  <outline>
    <contour>
      <point x="265" y="1126" type="line"/>
      <point x="349" y="1126" type="line" smooth="yes"/>
      <point x="423" y="1126"/>
      <point x="495" y="1187"/>
      <point x="495" y="1235" type="qcurve" smooth="yes"/>
      <point x="495" y="1280"/>
      <point x="432" y="1338"/>
      <point x="362" y="1338" type="qcurve" smooth="yes"/>
      <point x="305" y="1338"/>
      <point x="230" y="1287"/>
      <point x="230" y="1246" type="qcurve"/>
      <point x="73" y="1246" type="line"/>
      <point x="73" y="1344"/>
      <point x="236" y="1467"/>
      <point x="360" y="1467" type="qcurve" smooth="yes"/>
      <point x="497" y="1467"/>
      <point x="653" y="1346"/>
      <point x="653" y="1242" type="qcurve" smooth="yes"/>
      <point x="653" y="1187"/>
      <point x="583" y="1096"/>
      <point x="517" y="1071" type="qcurve"/>
      <point x="591.5" y="1050.5" name="inserted"/>
      <point x="666.0" y="958.5"/>
      <point x="666" y="887" type="qcurve" smooth="yes"/>
      <point x="666" y="781"/>
      <point x="496" y="656"/>
      <point x="360" y="656" type="qcurve" smooth="yes"/>
      <point x="228" y="656"/>
      <point x="62" y="782"/>
      <point x="62" y="889" type="qcurve"/>
      <point x="220" y="889" type="line"/>
      <point x="220" y="844"/>
      <point x="299" y="784"/>
      <point x="366" y="784" type="qcurve" smooth="yes"/>
      <point x="436" y="784"/>
      <point x="509" y="844"/>
      <point x="509" y="895" type="qcurve" smooth="yes"/>
      <point x="509.0" y="951.5" name="inserted"/>
      <point x="431.0" y="1009.0"/>
      <point x="353" y="1010" type="qcurve" smooth="yes"/>
      <point x="265" y="1010" type="line"/>
    </contour>
  </outline>
</glyph>
<glyph name="ordmasculine" format="2">
  <advance width="931"/>
  <unicode hex="00BA"/>
  <outline>
    <contour>
      <point x="122" y="1123" type="line" smooth="yes"/>
      <point x="122" y="1281"/>
      <point x="310" y="1476"/>
      <point x="464" y="1476" type="qcurve" smooth="yes"/>
      <point x="619" y="1476"/>
      <point x="807" y="1283"/>
      <point x="807" y="1117" type="qcurve" smooth="yes"/>
      <point x="807" y="1043" type="line" smooth="yes"/>
      <point x="807" y="884"/>
      <point x="620" y="690"/>
      <point x="466.0" y="690.0" type="qcurve" smooth="yes" name="inserted"/>
      <point x="312" y="690"/>
      <point x="122" y="884"/>
      <point x="122" y="1049" type="qcurve" smooth="yes"/>
    </contour>
    <contour>
      <point x="285" y="1043" type="line" smooth="yes"/>
      <point x="285" y="943"/>
      <point x="382" y="829"/>
      <point x="466" y="829" type="qcurve" smooth="yes"/>
      <point x="549" y="829"/>
      <point x="644" y="944"/>
      <point x="644" y="1045" type="qcurve" smooth="yes"/>
      <point x="644" y="1123" type="line" smooth="yes"/>
      <point x="644" y="1222"/>
      <point x="547" y="1336"/>
      <point x="464" y="1336" type="qcurve" smooth="yes"/>
      <point x="383" y="1336"/>
      <point x="287" y="1226"/>
      <point x="285" y="1129" type="qcurve"/>
    </contour>
  </outline>
</glyph>
<glyph name="Oslash" format="2">
  <advance width="1408"/>
  <unicode hex="00D8"/>
  <outline>
    <contour>
      <point x="1289" y="681" type="line" smooth="yes"/>
      <point x="1289" y="467"/>
      <point x="1145" y="148"/>
      <point x="1013.0" y="64.0" type="qcurve" smooth="yes" name="inserted"/>
      <point x="947.0" y="22.0" name="inserted"/>
      <point x="793.0" y="-20.0"/>
      <point x="705" y="-20" type="qcurve" smooth="yes"/>
      <point x="619.5" y="-20.0" name="inserted"/>
      <point x="468.5" y="21.0"/>
      <point x="403" y="62" type="qcurve"/>
      <point x="306" y="-93" type="line"/>
      <point x="164" y="-93" type="line"/>
      <point x="308" y="138" type="line"/>
      <point x="213.0" y="234.0" name="inserted"/>
      <point x="118.0" y="510.0"/>
      <point x="118" y="690" type="qcurve" smooth="yes"/>
      <point x="118" y="773" type="line" smooth="yes"/>
      <point x="118" y="983"/>
      <point x="264" y="1305"/>
      <point x="397.5" y="1390.5" type="qcurve" smooth="yes" name="inserted"/>
      <point x="464.25" y="1433.25" name="inserted"/>
      <point x="617.0" y="1476.0"/>
      <point x="703" y="1476" type="qcurve" smooth="yes"/>
      <point x="810.0" y="1476.0" name="inserted"/>
      <point x="991.0" y="1413.5"/>
      <point x="1065" y="1351" type="qcurve"/>
      <point x="1168" y="1516" type="line"/>
      <point x="1309" y="1516" type="line"/>
      <point x="1150" y="1261" type="line"/>
      <point x="1218.5" y="1167.5" name="inserted"/>
      <point x="1288.0" y="927.0"/>
      <point x="1289" y="780" type="qcurve" smooth="yes"/>
    </contour>
    <contour>
      <point x="309" y="681" type="line" smooth="yes"/>
      <point x="309.0" y="559.0" name="inserted"/>
      <point x="358.0" y="366.5"/>
      <point x="407" y="296" type="qcurve"/>
      <point x="971" y="1200" type="line"/>
      <point x="920.0" y="1255.5" name="inserted"/>
      <point x="786.0" y="1311.0"/>
      <point x="703" y="1311" type="qcurve" smooth="yes"/>
      <point x="521" y="1311"/>
      <point x="312" y="1034"/>
      <point x="309" y="788" type="qcurve"/>
    </contour>
    <contour>
      <point x="1098" y="775" type="line" smooth="yes"/>
      <point x="1098.0" y="866.0" name="inserted"/>
      <point x="1070.0" y="1022.5"/>
      <point x="1042" y="1088" type="qcurve"/>
      <point x="493" y="207" type="line"/>
      <point x="538.5" y="175.0" name="inserted"/>
      <point x="644.5" y="143.0"/>
      <point x="705" y="143" type="qcurve" smooth="yes"/>
      <point x="891" y="143"/>
      <point x="1095" y="414"/>
      <point x="1098" y="667" type="qcurve" smooth="yes"/>
    </contour>
  </outline>
</glyph>
<glyph name="ae" format="2">
  <advance width="1729"/>
  <unicode hex="00E6"/>
  <outline>
    <contour>
      <point x="1262" y="-20" type="qcurve" smooth="yes"/>
      <point x="1131.5" y="-20.0" name="inserted"/>
      <point x="933.0" y="70.0"/>
      <point x="865" y="160" type="qcurve"/>
      <point x="800" y="74"/>
      <point x="574" y="-20"/>
      <point x="433" y="-20" type="qcurve" smooth="yes"/>
      <point x="266" y="-20"/>
      <point x="78" y="153"/>
      <point x="78" y="304" type="qcurve" smooth="yes"/>
      <point x="78" y="461"/>
      <point x="305" y="635"/>
      <point x="526" y="635" type="qcurve" smooth="yes"/>
      <point x="749" y="635" type="line"/>
      <point x="749" y="720" type="line" smooth="yes"/>
      <point x="749" y="827"/>
      <point x="639" y="950"/>
      <point x="535" y="950" type="qcurve" smooth="yes"/>
      <point x="430" y="950"/>
      <point x="290" y="840"/>
      <point x="290" y="759" type="qcurve"/>
      <point x="106" y="778" type="line"/>
      <point x="106" y="921"/>
      <point x="348" y="1102"/>
      <point x="535" y="1102" type="qcurve" smooth="yes"/>
      <point x="650" y="1102"/>
      <point x="826" y="1019"/>
      <point x="876" y="936" type="qcurve"/>
      <point x="939" y="1015"/>
      <point x="1113" y="1102"/>
      <point x="1218" y="1102" type="qcurve" smooth="yes"/>
      <point x="1428" y="1102"/>
      <point x="1660" y="845"/>
      <point x="1660" y="612" type="qcurve" smooth="yes"/>
      <point x="1660" y="497" type="line"/>
      <point x="932" y="497" type="line"/>
      <point x="939" y="321"/>
      <point x="1113" y="130"/>
      <point x="1262" y="130" type="qcurve" smooth="yes"/>
      <point x="1336.0" y="130.0" name="inserted"/>
      <point x="1470.5" y="168.0"/>
      <point x="1531" y="206" type="qcurve" smooth="yes"/>
      <point x="1578" y="237" type="line"/>
      <point x="1642" y="101" type="line"/>
      <point x="1563.0" y="40.5" name="inserted"/>
      <point x="1373.0" y="-20.0"/>
    </contour>
    <contour>
      <point x="469" y="130" type="qcurve" smooth="yes"/>
      <point x="541" y="130"/>
      <point x="699" y="204"/>
      <point x="749" y="258" type="qcurve"/>
      <point x="749" y="495" type="line"/>
      <point x="521" y="495" type="line" smooth="yes"/>
      <point x="404" y="493"/>
      <point x="264" y="383"/>
      <point x="264" y="300" type="qcurve" smooth="yes"/>
      <point x="264" y="223"/>
      <point x="370" y="130"/>
    </contour>
    <contour>
      <point x="1218" y="950" type="qcurve" smooth="yes"/>
      <point x="1103" y="950"/>
      <point x="954" y="779"/>
      <point x="937" y="640" type="qcurve"/>
      <point x="1475" y="640" type="line"/>
      <point x="1475" y="671" type="line" smooth="yes"/>
      <point x="1475" y="803"/>
      <point x="1341" y="950"/>
    </contour>
  </outline>
</glyph>
<glyph name="thorn" format="2">
  <advance width="1180"/>
  <unicode hex="00FE"/>
  <outline>
    <contour>
      <point x="1063" y="529" type="line" smooth="yes"/>
      <point x="1063" y="282"/>
      <point x="837" y="-20"/>
      <point x="644" y="-20" type="qcurve" smooth="yes"/>
      <point x="545.5" y="-20.0" name="inserted"/>
      <point x="390.5" y="42.5"/>
      <point x="334" y="105" type="qcurve"/>
      <point x="334" y="-416" type="line"/>
      <point x="149" y="-416" type="line"/>
      <point x="149" y="1536" type="line"/>
      <point x="334" y="1536" type="line"/>
      <point x="334" y="970" type="line"/>
      <point x="390.5" y="1036.0" name="inserted"/>
      <point x="544.0" y="1102.0"/>
      <point x="641" y="1102" type="qcurve" smooth="yes"/>
      <point x="836" y="1102"/>
      <point x="1063" y="808"/>
      <point x="1063" y="546" type="qcurve" smooth="yes"/>
    </contour>
    <contour>
      <point x="878" y="550" type="qcurve" smooth="yes"/>
      <point x="878" y="733"/>
      <point x="722" y="945"/>
      <point x="586" y="945" type="qcurve" smooth="yes"/>
      <point x="502.0" y="945.0" name="inserted"/>
      <point x="376.0" y="870.5"/>
      <point x="334" y="796" type="qcurve"/>
      <point x="334" y="279" type="line"/>
      <point x="375.5" y="205.0" name="inserted"/>
      <point x="502.5" y="131.0"/>
      <point x="588" y="131" type="qcurve" smooth="yes"/>
      <point x="721" y="131"/>
      <point x="878" y="342"/>
    </contour>
  </outline>
</glyph>
<glyph name="hbar" format="2">
  <advance width="1158"/>
  <unicode hex="0127"/>
  <outline>
    <contour>
      <point x="606" y="1234" type="line"/>
      <point x="355" y="1234" type="line"/>
      <point x="355" y="951" type="line"/>
      <point x="416.5" y="1026.5" name="inserted"/>
      <point x="576.5" y="1102.0"/>
      <point x="675" y="1102" type="qcurve" smooth="yes"/>
      <point x="846.5" y="1102.0" name="inserted"/>
      <point x="1019.5" y="908.5"/>
      <point x="1021" y="715" type="qcurve" smooth="yes"/>
      <point x="1021" y="0" type="line"/>
      <point x="836" y="0" type="line"/>
      <point x="836" y="716" type="line" smooth="yes"/>
      <point x="835" y="833"/>
      <point x="730" y="945"/>
      <point x="619" y="945" type="qcurve" smooth="yes"/>
      <point x="529" y="945"/>
      <point x="393" y="849"/>
      <point x="355" y="771" type="qcurve"/>
      <point x="355" y="0" type="line"/>
      <point x="170" y="0" type="line"/>
      <point x="170" y="1234" type="line"/>
      <point x="-30" y="1234" type="line"/>
      <point x="-30" y="1385" type="line"/>
      <point x="170" y="1385" type="line"/>
      <point x="170" y="1536" type="line"/>
      <point x="355" y="1536" type="line"/>
      <point x="355" y="1385" type="line"/>
      <point x="606" y="1385" type="line"/>
    </contour>
  </outline>
</glyph>
<glyph name="lslash" format="2">
  <advance width="553"/>
  <unicode hex="0142"/>
  <outline>
    <contour>
      <point x="364" y="869" type="line"/>
      <point x="522" y="930" type="line"/>
      <point x="522" y="807" type="line"/>
      <point x="364" y="746" type="line"/>
      <point x="364" y="0" type="line"/>
      <point x="178" y="0" type="line"/>
      <point x="178" y="675" type="line"/>
      <point x="34" y="620" type="line"/>
      <point x="34" y="743" type="line"/>
      <point x="178" y="798" type="line"/>
      <point x="178" y="1536" type="line"/>
      <point x="364" y="1536" type="line"/>
    </contour>
  </outline>
</glyph>
<glyph name="Tbar" format="2">
  <advance width="1222"/>
  <unicode hex="0166"/>
  <outline>
    <contour>
      <point x="938" y="823" type="line"/>
      <point x="707" y="823" type="line"/>
      <point x="707" y="0" type="line"/>
      <point x="516" y="0" type="line"/>
      <point x="516" y="823" type="line"/>
      <point x="302" y="823" type="line"/>
      <point x="302" y="974" type="line"/>
      <point x="516" y="974" type="line"/>
      <point x="516" y="1298" type="line"/>
      <point x="49" y="1298" type="line"/>
      <point x="49" y="1456" type="line"/>
      <point x="1175" y="1456" type="line"/>
      <point x="1175" y="1298" type="line"/>
      <point x="707" y="1298" type="line"/>
      <point x="707" y="974" type="line"/>
      <point x="938" y="974" type="line"/>
    </contour>
  </outline>
</glyph>
<glyph name="tbar" format="2">
  <advance width="669"/>
  <unicode hex="0167"/>
  <outline>
    <contour>
      <point x="391" y="1344" type="line"/>
      <point x="391" y="1082" type="line"/>
      <point x="593" y="1082" type="line"/>
      <point x="593" y="939" type="line"/>
      <point x="391" y="939" type="line"/>
      <point x="391" y="753" type="line"/>
      <point x="624" y="753" type="line"/>
      <point x="624" y="602" type="line"/>
      <point x="391" y="602" type="line"/>
      <point x="391" y="268" type="line" smooth="yes"/>
      <point x="391" y="203"/>
      <point x="445" y="138"/>
      <point x="510" y="138" type="qcurve" smooth="yes"/>
      <point x="526.0" y="138.0" name="inserted"/>
      <point x="570.0" y="144.0"/>
      <point x="598" y="150" type="qcurve"/>
      <point x="598" y="0" type="line"/>
      <point x="561.5" y="-10.0" name="inserted"/>
      <point x="490.5" y="-20.0"/>
      <point x="456" y="-20" type="qcurve" smooth="yes"/>
      <point x="332" y="-20"/>
      <point x="206" y="130"/>
      <point x="206" y="268" type="qcurve" smooth="yes"/>
      <point x="206" y="602" type="line"/>
      <point x="-12" y="602" type="line"/>
      <point x="-12" y="753" type="line"/>
      <point x="206" y="753" type="line"/>
      <point x="206" y="939" type="line"/>
      <point x="9" y="939" type="line"/>
      <point x="9" y="1082" type="line"/>
      <point x="206" y="1082" type="line"/>
      <point x="206" y="1344" type="line"/>
    </contour>
  </outline>
</glyph>
<glyph name="Uogonek" format="2">
  <advance width="1328"/>
  <unicode hex="0172"/>
  <outline>
    <contour>
      <point x="1194" y="1456" type="line"/>
      <point x="1194" y="465" type="line"/>
      <point x="1193" y="317"/>
      <point x="1055" y="91"/>
      <point x="924" y="32" type="qcurve"/>
      <point x="846.5" y="-25.0" name="inserted"/>
      <point x="769.0" y="-130.0"/>
      <point x="769" y="-178" type="qcurve" smooth="yes"/>
      <point x="769.0" y="-214.0" name="inserted"/>
      <point x="808.0" y="-250.0"/>
      <point x="847" y="-250" type="qcurve" smooth="yes"/>
      <point x="871.0" y="-250.0" name="inserted"/>
      <point x="921.0" y="-237.0"/>
      <point x="947" y="-224" type="qcurve"/>
      <point x="960" y="-345" type="line"/>
      <point x="925.0" y="-367.0" name="inserted"/>
      <point x="845.0" y="-389.0"/>
      <point x="800" y="-389" type="qcurve" smooth="yes"/>
      <point x="711" y="-389"/>
      <point x="608" y="-285"/>
      <point x="608" y="-199" type="qcurve" smooth="yes"/>
      <point x="608.0" y="-150.5" name="inserted"/>
      <point x="647.5" y="-60.5"/>
      <point x="687" y="-19" type="qcurve"/>
      <point x="665" y="-20" type="line" smooth="yes"/>
      <point x="426" y="-20"/>
      <point x="142" y="238"/>
      <point x="140" y="464" type="qcurve" smooth="yes"/>
      <point x="140" y="1456" type="line"/>
      <point x="330" y="1456" type="line"/>
      <point x="330" y="470" type="line" smooth="yes"/>
      <point x="330" y="312"/>
      <point x="504" y="137"/>
      <point x="665" y="137" type="qcurve" smooth="yes"/>
      <point x="828" y="137"/>
      <point x="1001" y="311"/>
      <point x="1001" y="469" type="qcurve" smooth="yes"/>
      <point x="1001" y="1456" type="line"/>
    </contour>
  </outline>
</glyph>
<glyph name="longs" format="2">
  <advance width="508"/>
  <unicode hex="017F"/>
  <outline>
    <contour>
      <point x="160" y="0" type="line"/>
      <point x="160" y="1198" type="line" smooth="yes"/>
      <point x="161" y="1367"/>
      <point x="337" y="1557"/>
      <point x="499" y="1557" type="qcurve" smooth="yes"/>
      <point x="528.5" y="1557.0" name="inserted"/>
      <point x="600.0" y="1546.5"/>
      <point x="642" y="1536" type="qcurve"/>
      <point x="619" y="1394" type="line"/>
      <point x="599.0" y="1399.5" name="inserted"/>
      <point x="553.5" y="1405.0"/>
      <point x="528" y="1405" type="qcurve" smooth="yes"/>
      <point x="436.5" y="1405.0" name="inserted"/>
      <point x="345.0" y="1294.5"/>
      <point x="345" y="1184" type="qcurve" smooth="yes"/>
      <point x="345" y="0" type="line"/>
    </contour>
  </outline>
</glyph>
<glyph name="caron" format="2">
  <advance width="909"/>
  <unicode hex="02C7"/>
  <outline>
    <contour>
      <point x="449" y="1365" type="line"/>
      <point x="599" y="1535" type="line"/>
      <point x="759" y="1535" type="line"/>
      <point x="759" y="1525" type="line"/>
      <point x="505" y="1251" type="line"/>
      <point x="392" y="1251" type="line"/>
      <point x="141" y="1525" type="line"/>
      <point x="141" y="1535" type="line"/>
      <point x="298" y="1535" type="line"/>
    </contour>
  </outline>
</glyph>
<glyph name="breve" format="2">
  <advance width="874"/>
  <unicode hex="02D8"/>
  <outline>
    <contour>
      <point x="728" y="1495" type="line"/>
      <point x="728" y="1374"/>
      <point x="563" y="1227"/>
      <point x="429.0" y="1227.0" type="qcurve" smooth="yes" name="inserted"/>
      <point x="295" y="1227"/>
      <point x="129" y="1375"/>
      <point x="129" y="1495" type="qcurve"/>
      <point x="280" y="1495" type="line"/>
      <point x="280" y="1425"/>
      <point x="356" y="1346"/>
      <point x="429" y="1346" type="qcurve" smooth="yes"/>
      <point x="499" y="1346"/>
      <point x="578" y="1424"/>
      <point x="578" y="1495" type="qcurve"/>
    </contour>
  </outline>
</glyph>
<glyph name="uni02F3" format="2">
  <advance width="602"/>
  <unicode hex="02F3"/>
  <outline>
    <contour>
      <point x="126" y="-242" type="qcurve" smooth="yes"/>
      <point x="126" y="-172"/>
      <point x="226" y="-75"/>
      <point x="300" y="-75" type="qcurve" smooth="yes"/>
      <point x="371" y="-75"/>
      <point x="469" y="-171"/>
      <point x="469" y="-242" type="qcurve" smooth="yes"/>
      <point x="469" y="-312"/>
      <point x="373" y="-405"/>
      <point x="300" y="-405" type="qcurve" smooth="yes"/>
      <point x="224" y="-405"/>
      <point x="126" y="-311"/>
    </contour>
    <contour>
      <point x="213" y="-242" type="qcurve" smooth="yes"/>
      <point x="213" y="-277"/>
      <point x="265" y="-325"/>
      <point x="300.0" y="-325.0" type="qcurve" smooth="yes" name="inserted"/>
      <point x="335" y="-325"/>
      <point x="383" y="-277"/>
      <point x="383" y="-242" type="qcurve" smooth="yes"/>
      <point x="383" y="-206"/>
      <point x="335" y="-156"/>
      <point x="300" y="-156" type="qcurve" smooth="yes"/>
      <point x="263" y="-156"/>
      <point x="213" y="-208"/>
    </contour>
  </outline>
</glyph>
<glyph name="gravecomb" format="2">
  <unicode hex="0300"/>
  <outline>
    <contour>
      <point x="-440" y="1242" type="line"/>
      <point x="-599" y="1242" type="line"/>
      <point x="-857" y="1536" type="line"/>
      <point x="-633" y="1536" type="line"/>
    </contour>
  </outline>
</glyph>
<glyph name="Gamma" format="2">
  <advance width="1139"/>
  <unicode hex="0393"/>
  <outline>
    <contour>
      <point x="1072" y="1298" type="line"/>
      <point x="370" y="1298" type="line"/>
      <point x="370" y="0" type="line"/>
      <point x="177" y="0" type="line"/>
      <point x="177" y="1456" type="line"/>
      <point x="1072" y="1456" type="line"/>
    </contour>
  </outline>
</glyph>
<glyph name="Lambda" format="2">
  <advance width="1342"/>
  <unicode hex="039B"/>
  <outline>
    <contour>
      <point x="666" y="1161" type="line"/>
      <point x="256" y="0" type="line"/>
      <point x="50" y="0" type="line"/>
      <point x="580" y="1456" type="line"/>
      <point x="752" y="1456" type="line"/>
      <point x="1283" y="0" type="line"/>
      <point x="1076" y="0" type="line"/>
    </contour>
  </outline>
</glyph>
<glyph name="Phi" format="2">
  <advance width="1467"/>
  <unicode hex="03A6"/>
  <outline>
    <contour>
      <point x="834" y="1271" type="line"/>
      <point x="995" y="1268"/>
      <point x="1252" y="1130"/>
      <point x="1324.0" y="1005.0" type="qcurve" smooth="yes" name="inserted"/>
      <point x="1360.0" y="942.5" name="inserted"/>
      <point x="1396.0" y="802.0"/>
      <point x="1396" y="724" type="qcurve" smooth="yes"/>
      <point x="1396" y="566"/>
      <point x="1253" y="316"/>
      <point x="1125.5" y="247.5" type="qcurve" smooth="yes" name="inserted"/>
      <point x="1061.75" y="213.25" name="inserted"/>
      <point x="916.0" y="177.0"/>
      <point x="834" y="175" type="qcurve"/>
      <point x="834" y="0" type="line"/>
      <point x="640" y="0" type="line"/>
      <point x="640" y="175" type="line"/>
      <point x="389" y="179"/>
      <point x="77" y="482"/>
      <point x="77" y="722" type="qcurve" smooth="yes"/>
      <point x="77" y="870"/>
      <point x="202" y="1108"/>
      <point x="318" y="1181" type="qcurve" smooth="yes"/>
      <point x="387.5" y="1224.5" name="inserted"/>
      <point x="548.5" y="1269.5"/>
      <point x="640" y="1271" type="qcurve"/>
      <point x="640" y="1456" type="line"/>
      <point x="834" y="1456" type="line"/>
    </contour>
    <contour>
      <point x="268" y="722" type="qcurve" smooth="yes"/>
      <point x="268" y="538"/>
      <point x="462" y="338"/>
      <point x="640" y="334" type="qcurve"/>
      <point x="640" y="1111" type="line"/>
      <point x="460" y="1107"/>
      <point x="268" y="905"/>
    </contour>
    <contour>
      <point x="1205" y="724" type="qcurve" smooth="yes"/>
      <point x="1205" y="905"/>
      <point x="1012" y="1107"/>
      <point x="834" y="1111" type="qcurve"/>
      <point x="834" y="334" type="line"/>
      <point x="1014" y="338"/>
      <point x="1205" y="541"/>
    </contour>
  </outline>
</glyph>
<glyph name="Psi" format="2">
  <advance width="1417"/>
  <unicode hex="03A8"/>
  <outline>
    <contour>
      <point x="790" y="523" type="line"/>
      <point x="946" y="546"/>
      <point x="1120" y="761"/>
      <point x="1120" y="931" type="qcurve" smooth="yes"/>
      <point x="1120" y="1456" type="line"/>
      <point x="1313" y="1456" type="line"/>
      <point x="1313" y="928" type="line" smooth="yes"/>
      <point x="1313" y="769"/>
      <point x="1186" y="524"/>
      <point x="1067.5" y="450.5" type="qcurve" smooth="yes" name="inserted"/>
      <point x="1008.25" y="413.75" name="inserted"/>
      <point x="869.5" y="369.5"/>
      <point x="790" y="362" type="qcurve"/>
      <point x="790" y="0" type="line"/>
      <point x="597" y="0" type="line"/>
      <point x="597" y="362" type="line"/>
      <point x="366" y="385"/>
      <point x="93" y="683"/>
      <point x="90" y="920" type="qcurve" smooth="yes"/>
      <point x="90" y="1456" type="line"/>
      <point x="282" y="1456" type="line"/>
      <point x="282" y="927" type="line" smooth="yes"/>
      <point x="283" y="764"/>
      <point x="448" y="549"/>
      <point x="597" y="524" type="qcurve"/>
      <point x="597" y="1456" type="line"/>
      <point x="790" y="1456" type="line"/>
    </contour>
  </outline>
</glyph>
<glyph name="zeta" format="2">
  <advance width="1061"/>
  <unicode hex="03B6"/>
  <outline>
    <contour>
      <point x="963" y="1456" type="line"/>
      <point x="963" y="1336" type="line"/>
      <point x="613" y="909" type="line" smooth="yes"/>
      <point x="475" y="748"/>
      <point x="373" y="519"/>
      <point x="373" y="386" type="qcurve" smooth="yes"/>
      <point x="373" y="296"/>
      <point x="440" y="199"/>
      <point x="522" y="174" type="qcurve" smooth="yes"/>
      <point x="769" y="102" type="line" smooth="yes"/>
      <point x="850" y="78"/>
      <point x="921" y="-10"/>
      <point x="921" y="-88" type="qcurve"/>
      <point x="919" y="-157"/>
      <point x="811" y="-329"/>
      <point x="744" y="-383" type="qcurve"/>
      <point x="646" y="-299" type="line"/>
      <point x="693" y="-246"/>
      <point x="744" y="-161"/>
      <point x="744" y="-116" type="qcurve" smooth="yes"/>
      <point x="744" y="-48"/>
      <point x="436" y="30"/>
      <point x="382" y="54" type="qcurve" smooth="yes"/>
      <point x="279" y="99"/>
      <point x="188" y="252"/>
      <point x="188" y="381" type="qcurve" smooth="yes"/>
      <point x="188" y="511"/>
      <point x="334" y="831"/>
      <point x="461" y="981" type="qcurve" smooth="yes"/>
      <point x="746" y="1304" type="line"/>
      <point x="109" y="1304" type="line"/>
      <point x="109" y="1456" type="line"/>
    </contour>
  </outline>
</glyph>
<glyph name="eta" format="2">
  <advance width="1160"/>
  <unicode hex="03B7"/>
  <outline>
    <contour>
      <point x="312" y="1082" type="line"/>
      <point x="323" y="946" type="line"/>
      <point x="383.0" y="1024.0" name="inserted"/>
      <point x="543.0" y="1102.0"/>
      <point x="643" y="1102" type="qcurve" smooth="yes"/>
      <point x="833" y="1102"/>
      <point x="1007" y="905"/>
      <point x="1008" y="701" type="qcurve" smooth="yes"/>
      <point x="1008" y="-415" type="line"/>
      <point x="823" y="-415" type="line"/>
      <point x="823" y="690" type="line" smooth="yes"/>
      <point x="823" y="826"/>
      <point x="715" y="950"/>
      <point x="587" y="950" type="qcurve" smooth="yes"/>
      <point x="495" y="950"/>
      <point x="365" y="863"/>
      <point x="331" y="785" type="qcurve"/>
      <point x="331" y="0" type="line"/>
      <point x="145" y="0" type="line"/>
      <point x="145" y="1082" type="line"/>
    </contour>
  </outline>
</glyph>
<glyph name="theta" format="2">
  <advance width="1166"/>
  <unicode hex="03B8"/>
  <outline>
    <contour>
      <point x="1042" y="640" type="line" smooth="yes"/>
      <point x="1042" y="319"/>
      <point x="806" y="-20"/>
      <point x="583" y="-20" type="qcurve" smooth="yes"/>
      <point x="364" y="-20"/>
      <point x="126" y="312"/>
      <point x="122" y="620" type="qcurve" smooth="yes"/>
      <point x="122" y="825" type="line" smooth="yes"/>
      <point x="122" y="1142"/>
      <point x="358" y="1476"/>
      <point x="581" y="1476" type="qcurve" smooth="yes"/>
      <point x="803" y="1476"/>
      <point x="1038" y="1152"/>
      <point x="1042" y="845" type="qcurve" smooth="yes"/>
    </contour>
    <contour>
      <point x="307" y="801" type="line"/>
      <point x="856" y="801" type="line"/>
      <point x="856" y="856" type="line" smooth="yes"/>
      <point x="856" y="1083"/>
      <point x="717" y="1324"/>
      <point x="581" y="1324" type="qcurve" smooth="yes"/>
      <point x="447" y="1324"/>
      <point x="307" y="1083"/>
      <point x="307" y="856" type="qcurve" smooth="yes"/>
    </contour>
    <contour>
      <point x="856" y="649" type="line"/>
      <point x="307" y="649" type="line"/>
      <point x="307" y="610" type="line" smooth="yes"/>
      <point x="307" y="381"/>
      <point x="453" y="131"/>
      <point x="583.0" y="131.0" type="qcurve" smooth="yes" name="inserted"/>
      <point x="713" y="131"/>
      <point x="854" y="371"/>
      <point x="856" y="598" type="qcurve" smooth="yes"/>
    </contour>
  </outline>
</glyph>
<glyph name="iota" format="2">
  <advance width="663"/>
  <unicode hex="03B9"/>
  <outline>
    <contour>
      <point x="380" y="1082" type="line"/>
      <point x="380" y="273" type="line" smooth="yes"/>
      <point x="380" y="210"/>
      <point x="435" y="146"/>
      <point x="499" y="146" type="qcurve" smooth="yes"/>
      <point x="523.0" y="146.0" name="inserted"/>
      <point x="566.5" y="152.0"/>
      <point x="586" y="158" type="qcurve"/>
      <point x="587" y="7" type="line"/>
      <point x="552.0" y="-2.5" name="inserted"/>
      <point x="480.5" y="-12.0"/>
      <point x="444" y="-12" type="qcurve" smooth="yes"/>
      <point x="319.5" y="-12.0" name="inserted"/>
      <point x="195.0" y="135.0"/>
      <point x="195" y="282" type="qcurve" smooth="yes"/>
      <point x="195" y="1082" type="line"/>
    </contour>
  </outline>
</glyph>
<glyph name="lambda" format="2">
  <advance width="1134"/>
  <unicode hex="03BB"/>
  <outline>
    <contour>
      <point x="261" y="1518" type="qcurve" smooth="yes"/>
      <point x="359" y="1518"/>
      <point x="479" y="1438"/>
      <point x="512" y="1343" type="qcurve" smooth="yes"/>
      <point x="939" y="234" type="line" smooth="yes"/>
      <point x="959" y="183"/>
      <point x="1004" y="144"/>
      <point x="1039" y="144" type="qcurve"/>
      <point x="1077" y="147" type="line"/>
      <point x="1083" y="-5" type="line"/>
      <point x="1065.0" y="-11.0" name="inserted"/>
      <point x="1026.0" y="-17.0"/>
      <point x="1005" y="-17" type="qcurve" smooth="yes"/>
      <point x="928" y="-17"/>
      <point x="850" y="20"/>
      <point x="819.0" y="63.0" type="qcurve" smooth="yes" name="inserted"/>
      <point x="803.5" y="84.5" name="inserted"/>
      <point x="773.5" y="146.0"/>
      <point x="759" y="186" type="qcurve" smooth="yes"/>
      <point x="529" y="779" type="line"/>
      <point x="243" y="0" type="line"/>
      <point x="37" y="0" type="line"/>
      <point x="431" y="1029" type="line"/>
      <point x="335" y="1264" type="line" smooth="yes"/>
      <point x="312" y="1320"/>
      <point x="259" y="1366"/>
      <point x="214" y="1366" type="qcurve" smooth="yes"/>
      <point x="167" y="1364" type="line"/>
      <point x="166" y="1506" type="line"/>
      <point x="187.0" y="1512.0" name="inserted"/>
      <point x="234.5" y="1518.0"/>
    </contour>
  </outline>
</glyph>
<glyph name="sigma" format="2">
  <advance width="1160"/>
  <unicode hex="03C3"/>
  <outline>
    <contour>
      <point x="1147" y="929" type="line"/>
      <point x="863" y="929" type="line"/>
      <point x="963.0" y="855.0" name="inserted"/>
      <point x="1063.0" y="644.5"/>
      <point x="1063" y="508" type="qcurve" smooth="yes"/>
      <point x="1063" y="491" type="line" smooth="yes"/>
      <point x="1063" y="351"/>
      <point x="941" y="116"/>
      <point x="830.5" y="48.0" type="qcurve" smooth="yes" name="inserted"/>
      <point x="775.25" y="14.0" name="inserted"/>
      <point x="650.0" y="-20.0"/>
      <point x="580" y="-20" type="qcurve" smooth="yes"/>
      <point x="362" y="-20"/>
      <point x="96" y="283"/>
      <point x="96" y="538" type="qcurve" smooth="yes"/>
      <point x="96" y="551" type="line" smooth="yes"/>
      <point x="96" y="703"/>
      <point x="214" y="945"/>
      <point x="322.5" y="1013.0" type="qcurve" smooth="yes" name="inserted"/>
      <point x="376.75" y="1047.0" name="inserted"/>
      <point x="501.0" y="1081.5"/>
      <point x="571" y="1082" type="qcurve" smooth="yes"/>
      <point x="1147" y="1082" type="line"/>
    </contour>
    <contour>
      <point x="282" y="529" type="qcurve" smooth="yes"/>
      <point x="282" y="346"/>
      <point x="442" y="131"/>
      <point x="580" y="131" type="qcurve" smooth="yes"/>
      <point x="719" y="131"/>
      <point x="878" y="348"/>
      <point x="878" y="551" type="qcurve" smooth="yes"/>
      <point x="878" y="723"/>
      <point x="717" y="929"/>
      <point x="578" y="929" type="qcurve" smooth="yes"/>
      <point x="441" y="929"/>
      <point x="282" y="725"/>
    </contour>
  </outline>
</glyph>
<glyph name="chi" format="2">
  <advance width="1015"/>
  <unicode hex="03C7"/>
  <outline>
    <contour>
      <point x="145" y="1097" type="qcurve" smooth="yes"/>
      <point x="232.0" y="1097.0" name="inserted"/>
      <point x="363.0" y="1001.0"/>
      <point x="407" y="905" type="qcurve" smooth="yes"/>
      <point x="556" y="566" type="line"/>
      <point x="811" y="1082" type="line"/>
      <point x="998" y="1082" type="line"/>
      <point x="646" y="361" type="line"/>
      <point x="864" y="-137" type="line" smooth="yes"/>
      <point x="894.5" y="-201.0" name="inserted"/>
      <point x="959.0" y="-266.5"/>
      <point x="993" y="-268" type="qcurve" smooth="yes"/>
      <point x="1019" y="-268" type="line"/>
      <point x="1091" y="-263" type="line"/>
      <point x="1044" y="-421" type="line"/>
      <point x="1032.0" y="-428.5" name="inserted"/>
      <point x="1001.5" y="-436.0"/>
      <point x="983" y="-436" type="qcurve" smooth="yes"/>
      <point x="892" y="-436"/>
      <point x="772" y="-342"/>
      <point x="710" y="-208" type="qcurve" smooth="yes"/>
      <point x="548" y="162" type="line"/>
      <point x="267" y="-415" type="line"/>
      <point x="71" y="-415" type="line"/>
      <point x="458" y="369" type="line"/>
      <point x="290" y="756" type="line" smooth="yes"/>
      <point x="253.5" y="847.5" name="inserted"/>
      <point x="163.5" y="939.0"/>
      <point x="110" y="939" type="qcurve"/>
      <point x="42" y="934" type="line"/>
      <point x="41" y="1082" type="line"/>
      <point x="75.0" y="1089.5" name="inserted"/>
      <point x="127.0" y="1097.0"/>
    </contour>
  </outline>
</glyph>
<glyph name="Upsilon1" format="2">
  <advance width="1090"/>
  <unicode hex="03D2"/>
  <outline>
    <contour>
      <point x="548" y="774" type="line"/>
      <point x="773" y="1281" type="line" smooth="yes"/>
      <point x="816" y="1380"/>
      <point x="923" y="1468"/>
      <point x="1010" y="1468" type="qcurve" smooth="yes"/>
      <point x="1046.0" y="1468.0" name="inserted"/>
      <point x="1108.0" y="1454.5"/>
      <point x="1134" y="1441" type="qcurve"/>
      <point x="1098" y="1290" type="line"/>
      <point x="1091.5" y="1294.0" name="inserted"/>
      <point x="1065.5" y="1298.0"/>
      <point x="1046" y="1298" type="qcurve" smooth="yes"/>
      <point x="1011.0" y="1298.0" name="inserted"/>
      <point x="958.0" y="1258.5"/>
      <point x="940" y="1219" type="qcurve" smooth="yes"/>
      <point x="643" y="570" type="line"/>
      <point x="643" y="0" type="line"/>
      <point x="452" y="0" type="line"/>
      <point x="452" y="572" type="line"/>
      <point x="156" y="1219" type="line" smooth="yes"/>
      <point x="136.5" y="1258.5" name="inserted"/>
      <point x="83.5" y="1298.0"/>
      <point x="50" y="1298" type="qcurve" smooth="yes"/>
      <point x="30.5" y="1298.0" name="inserted"/>
      <point x="4.5" y="1294.0"/>
      <point x="-2" y="1290" type="qcurve"/>
      <point x="-38" y="1440" type="line"/>
      <point x="-12.0" y="1454.0" name="inserted"/>
      <point x="49.5" y="1468.0"/>
      <point x="85" y="1468" type="qcurve" smooth="yes"/>
      <point x="173" y="1468"/>
      <point x="280" y="1384"/>
      <point x="322" y="1291" type="qcurve" smooth="yes"/>
    </contour>
  </outline>
</glyph>
<glyph name="omega1" format="2">
  <advance width="1608"/>
  <unicode hex="03D6"/>
  <outline>
    <contour>
      <point x="1563" y="929" type="line"/>
      <point x="1427" y="929" type="line"/>
      <point x="1459.0" y="843.0" name="inserted"/>
      <point x="1491.0" y="658.5"/>
      <point x="1491" y="560" type="qcurve" smooth="yes"/>
      <point x="1491" y="287"/>
      <point x="1303" y="-20"/>
      <point x="1132" y="-20" type="qcurve" smooth="yes"/>
      <point x="1011.5" y="-20.0" name="inserted"/>
      <point x="849.5" y="99.5"/>
      <point x="808" y="219" type="qcurve"/>
      <point x="766.5" y="99.5" name="inserted"/>
      <point x="605.0" y="-20.0"/>
      <point x="485" y="-20" type="qcurve" smooth="yes"/>
      <point x="315" y="-20"/>
      <point x="126" y="284"/>
      <point x="126" y="560" type="qcurve" smooth="yes"/>
      <point x="126.0" y="655.5" name="inserted"/>
      <point x="158.0" y="840.0"/>
      <point x="190" y="929" type="qcurve"/>
      <point x="74" y="929" type="line"/>
      <point x="74" y="1082" type="line"/>
      <point x="1563" y="1082" type="line"/>
    </contour>
    <contour>
      <point x="1305" y="560" type="qcurve" smooth="yes"/>
      <point x="1303.0" y="645.0" name="inserted"/>
      <point x="1264.0" y="829.5"/>
      <point x="1227" y="929" type="qcurve"/>
      <point x="390" y="929" type="line"/>
      <point x="352.5" y="829.0" name="inserted"/>
      <point x="313.0" y="644.5"/>
      <point x="311" y="560" type="qcurve"/>
      <point x="311" y="357"/>
      <point x="407" y="130"/>
      <point x="495" y="130" type="qcurve" smooth="yes"/>
      <point x="600" y="130"/>
      <point x="713" y="297"/>
      <point x="715" y="459" type="qcurve" smooth="yes"/>
      <point x="715" y="722" type="line"/>
      <point x="902" y="722" type="line"/>
      <point x="902" y="459" type="line" smooth="yes"/>
      <point x="904" y="297"/>
      <point x="1017" y="130"/>
      <point x="1123" y="130" type="qcurve" smooth="yes"/>
      <point x="1209" y="130"/>
      <point x="1305" y="356"/>
    </contour>
  </outline>
</glyph>
<glyph name="uni040F" format="2">
  <advance width="1460"/>
  <unicode hex="040F"/>
  <outline>
    <contour>
      <point x="176" y="1456" type="line"/>
      <point x="369" y="1456" type="line"/>
      <point x="369" y="157" type="line"/>
      <point x="1087" y="157" type="line"/>
      <point x="1087" y="1456" type="line"/>
      <point x="1279" y="1456" type="line"/>
      <point x="1279" y="0" type="line"/>
      <point x="831" y="0" type="line"/>
      <point x="831" y="-359" type="line"/>
      <point x="638" y="-359" type="line"/>
      <point x="638" y="0" type="line"/>
      <point x="176" y="0" type="line"/>
    </contour>
  </outline>
</glyph>
<glyph name="uni0414" format="2">
  <advance width="1540"/>
  <unicode hex="0414"/>
  <outline>
    <contour>
      <point x="1479" y="-357" type="line"/>
      <point x="1288" y="-357" type="line"/>
      <point x="1288" y="0" type="line"/>
      <point x="243" y="0" type="line"/>
      <point x="243" y="-358" type="line"/>
      <point x="51" y="-358" type="line"/>
      <point x="50" y="157" type="line"/>
      <point x="169" y="157" type="line"/>
      <point x="263" y="263"/>
      <point x="374" y="620"/>
      <point x="388" y="833" type="qcurve" smooth="yes"/>
      <point x="420" y="1456" type="line"/>
      <point x="1291" y="1456" type="line"/>
      <point x="1291" y="157" type="line"/>
      <point x="1481" y="157" type="line"/>
    </contour>
    <contour>
      <point x="388" y="157" type="qcurve"/>
      <point x="1098" y="157" type="line"/>
      <point x="1098" y="1298" type="line"/>
      <point x="605" y="1298" type="line"/>
      <point x="584" y="870" type="line" smooth="yes"/>
      <point x="571" y="619"/>
      <point x="464" y="265"/>
    </contour>
  </outline>
</glyph>
<glyph name="uni0416" format="2">
  <advance width="1859"/>
  <unicode hex="0416"/>
  <outline>
    <contour>
      <point x="1192" y="664" type="line"/>
      <point x="1036" y="664" type="line"/>
      <point x="1036" y="0" type="line"/>
      <point x="844" y="0" type="line"/>
      <point x="844" y="664" type="line"/>
      <point x="679" y="664" type="line"/>
      <point x="267" y="0" type="line"/>
      <point x="27" y="0" type="line"/>
      <point x="517" y="768" type="line"/>
      <point x="65" y="1456" type="line"/>
      <point x="292" y="1456" type="line"/>
      <point x="679" y="824" type="line"/>
      <point x="844" y="824" type="line"/>
      <point x="844" y="1456" type="line"/>
      <point x="1036" y="1456" type="line"/>
      <point x="1036" y="824" type="line"/>
      <point x="1194" y="824" type="line"/>
      <point x="1581" y="1456" type="line"/>
      <point x="1807" y="1456" type="line"/>
      <point x="1355" y="769" type="line"/>
      <point x="1845" y="0" type="line"/>
      <point x="1606" y="0" type="line"/>
    </contour>
  </outline>
</glyph>
<glyph name="uni0418" format="2">
  <advance width="1460"/>
  <unicode hex="0418"/>
  <outline>
    <contour>
      <point x="1087" y="1456" type="line"/>
      <point x="1279" y="1456" type="line"/>
      <point x="1279" y="0" type="line"/>
      <point x="1087" y="0" type="line"/>
      <point x="1087" y="1122" type="line"/>
      <point x="370" y="0" type="line"/>
      <point x="177" y="0" type="line"/>
      <point x="177" y="1456" type="line"/>
      <point x="370" y="1456" type="line"/>
      <point x="370" y="334" type="line"/>
    </contour>
  </outline>
</glyph>
<glyph name="uni041B" format="2">
  <advance width="1449"/>
  <unicode hex="041B"/>
  <outline>
    <contour>
      <point x="1270" y="1456" type="line"/>
      <point x="1270" y="0" type="line"/>
      <point x="1078" y="0" type="line"/>
      <point x="1078" y="1298" type="line"/>
      <point x="556" y="1298" type="line"/>
      <point x="530" y="721" type="line" smooth="yes"/>
      <point x="515" y="431"/>
      <point x="426" y="139"/>
      <point x="340.0" y="70.5" type="qcurve" smooth="yes" name="inserted"/>
      <point x="297.0" y="36.25" name="inserted"/>
      <point x="182.0" y="1.0"/>
      <point x="110" y="0" type="qcurve" smooth="yes"/>
      <point x="47" y="0" type="line"/>
      <point x="47" y="157" type="line"/>
      <point x="87" y="159" type="line" smooth="yes"/>
      <point x="180" y="166"/>
      <point x="280" y="273"/>
      <point x="306.0" y="390.0" type="qcurve" smooth="yes" name="inserted"/>
      <point x="319.0" y="448.5" name="inserted"/>
      <point x="337.5" y="628.5"/>
      <point x="343" y="750" type="qcurve" smooth="yes"/>
      <point x="373" y="1456" type="line"/>
    </contour>
  </outline>
</glyph>
<glyph name="uni0423" format="2">
  <advance width="1287"/>
  <unicode hex="0423"/>
  <outline>
    <contour>
      <point x="669" y="611" type="line"/>
      <point x="1004" y="1456" type="line"/>
      <point x="1227" y="1456" type="line"/>
      <point x="712" y="243" type="line" smooth="yes"/>
      <point x="660" y="127"/>
      <point x="570" y="30"/>
      <point x="509.5" y="4.5" type="qcurve" smooth="yes" name="inserted"/>
      <point x="479.25" y="-8.25" name="inserted"/>
      <point x="403.5" y="-21.0"/>
      <point x="358" y="-21" type="qcurve" smooth="yes"/>
      <point x="318.5" y="-21.0" name="inserted"/>
      <point x="268.0" y="-16.5"/>
      <point x="257" y="-12" type="qcurve"/>
      <point x="263" y="140" type="line"/>
      <point x="354" y="136" type="line" smooth="yes"/>
      <point x="406.5" y="136.0" name="inserted"/>
      <point x="484.5" y="186.5"/>
      <point x="510" y="237" type="qcurve" smooth="yes"/>
      <point x="535" y="289" type="line"/>
      <point x="573" y="378" type="line"/>
      <point x="77" y="1456" type="line"/>
      <point x="292" y="1456" type="line"/>
    </contour>
  </outline>
</glyph>
<glyph name="uni0427" format="2">
  <advance width="1402"/>
  <unicode hex="0427"/>
  <outline>
    <contour>
      <point x="1224" y="1456" type="line"/>
      <point x="1224" y="0" type="line"/>
      <point x="1031" y="0" type="line"/>
      <point x="1031" y="603" type="line"/>
      <point x="926" y="573"/>
      <point x="754" y="550"/>
      <point x="644" y="550" type="qcurve" smooth="yes"/>
      <point x="395" y="550"/>
      <point x="153" y="766"/>
      <point x="150" y="989" type="qcurve" smooth="yes"/>
      <point x="150" y="1456" type="line"/>
      <point x="343" y="1456" type="line"/>
      <point x="343" y="994" type="line" smooth="yes"/>
      <point x="344" y="842"/>
      <point x="481" y="708"/>
      <point x="644" y="708" type="qcurve" smooth="yes"/>
      <point x="739.0" y="708.0" name="inserted"/>
      <point x="932.5" y="735.0"/>
      <point x="1031" y="762" type="qcurve"/>
      <point x="1031" y="1456" type="line"/>
    </contour>
  </outline>
</glyph>
<glyph name="uni0429" format="2">
  <advance width="1984"/>
  <unicode hex="0429"/>
  <outline>
    <contour>
      <point x="369" y="1456" type="line"/>
      <point x="369" y="157" type="line"/>
      <point x="870" y="157" type="line"/>
      <point x="870" y="1456" type="line"/>
      <point x="1061" y="1456" type="line"/>
      <point x="1061" y="157" type="line"/>
      <point x="1559" y="157" type="line"/>
      <point x="1559" y="1456" type="line"/>
      <point x="1751" y="1456" type="line"/>
      <point x="1751" y="151" type="line"/>
      <point x="1898" y="151" type="line"/>
      <point x="1880" y="-351" type="line"/>
      <point x="1715" y="-351" type="line"/>
      <point x="1715" y="0" type="line"/>
      <point x="176" y="0" type="line"/>
      <point x="176" y="1456" type="line"/>
    </contour>
  </outline>
</glyph>
<glyph name="uni042D" format="2">
  <advance width="1380"/>
  <unicode hex="042D"/>
  <outline>
    <contour>
      <point x="340" y="462" type="line"/>
      <point x="368" y="282"/>
      <point x="539" y="137"/>
      <point x="699" y="137" type="qcurve" smooth="yes"/>
      <point x="872" y="137"/>
      <point x="1073" y="407"/>
      <point x="1075" y="647" type="qcurve"/>
      <point x="502" y="647" type="line"/>
      <point x="502" y="805" type="line"/>
      <point x="1075" y="805" type="line"/>
      <point x="1075" y="1042"/>
      <point x="868" y="1318"/>
      <point x="682" y="1318" type="qcurve" smooth="yes"/>
      <point x="532" y="1318"/>
      <point x="365" y="1162"/>
      <point x="340" y="988" type="qcurve"/>
      <point x="147" y="988" type="line"/>
      <point x="170" y="1217"/>
      <point x="450" y="1476"/>
      <point x="682" y="1476" type="qcurve" smooth="yes"/>
      <point x="858" y="1476"/>
      <point x="1125" y="1309"/>
      <point x="1196.5" y="1154.5" type="qcurve" smooth="yes" name="inserted"/>
      <point x="1232.25" y="1077.25" name="inserted"/>
      <point x="1268.0" y="899.5"/>
      <point x="1268" y="799" type="qcurve" smooth="yes"/>
      <point x="1268" y="654" type="line" smooth="yes"/>
      <point x="1268" y="453"/>
      <point x="1126" y="145"/>
      <point x="996.5" y="62.5" type="qcurve" smooth="yes" name="inserted"/>
      <point x="931.75" y="21.25" name="inserted"/>
      <point x="783.0" y="-20.0"/>
      <point x="699" y="-20" type="qcurve" smooth="yes"/>
      <point x="461" y="-20"/>
      <point x="174" y="231"/>
      <point x="147" y="462" type="qcurve"/>
    </contour>
  </outline>
</glyph>
<glyph name="uni0432" format="2">
  <advance width="1170"/>
  <unicode hex="0432"/>
  <outline>
    <contour>
      <point x="157" y="0" type="line"/>
      <point x="157" y="1082" type="line"/>
      <point x="579" y="1082" type="line" smooth="yes"/>
      <point x="795" y="1082"/>
      <point x="1026" y="931"/>
      <point x="1026" y="785" type="qcurve" smooth="yes"/>
      <point x="1026" y="710"/>
      <point x="936" y="589"/>
      <point x="848" y="557" type="qcurve"/>
      <point x="946" y="534"/>
      <point x="1065" y="400"/>
      <point x="1065" y="307" type="qcurve" smooth="yes"/>
      <point x="1065" y="158"/>
      <point x="846" y="0"/>
      <point x="646" y="0" type="qcurve" smooth="yes"/>
    </contour>
    <contour>
      <point x="342" y="475" type="line"/>
      <point x="342" y="149" type="line"/>
      <point x="648" y="149" type="line" smooth="yes"/>
      <point x="764" y="149"/>
      <point x="879" y="235"/>
      <point x="879" y="313" type="qcurve" smooth="yes"/>
      <point x="879.0" y="394.0" name="inserted"/>
      <point x="760.0" y="475.0"/>
      <point x="641" y="475" type="qcurve" smooth="yes"/>
    </contour>
    <contour>
      <point x="342" y="623" type="line"/>
      <point x="581" y="623" type="line" smooth="yes"/>
      <point x="841" y="623"/>
      <point x="841" y="927"/>
      <point x="595" y="932" type="qcurve" smooth="yes"/>
      <point x="342" y="932" type="line"/>
    </contour>
  </outline>
</glyph>
<glyph name="uni0436" format="2">
  <advance width="1568"/>
  <unicode hex="0436"/>
  <outline>
    <contour>
      <point x="1003" y="470" type="line"/>
      <point x="873" y="470" type="line"/>
      <point x="873" y="0" type="line"/>
      <point x="688" y="0" type="line"/>
      <point x="688" y="470" type="line"/>
      <point x="558" y="470" type="line"/>
      <point x="255" y="0" type="line"/>
      <point x="21" y="0" type="line"/>
      <point x="408" y="560" type="line"/>
      <point x="58" y="1082" type="line"/>
      <point x="282" y="1082" type="line"/>
      <point x="561" y="634" type="line"/>
      <point x="688" y="634" type="line"/>
      <point x="688" y="1082" type="line"/>
      <point x="873" y="1082" type="line"/>
      <point x="873" y="634" type="line"/>
      <point x="999" y="634" type="line"/>
      <point x="1280" y="1082" type="line"/>
      <point x="1504" y="1082" type="line"/>
      <point x="1153" y="559" type="line"/>
      <point x="1540" y="0" type="line"/>
      <point x="1306" y="0" type="line"/>
    </contour>
  </outline>
</glyph>
<glyph name="uni0437" format="2">
  <advance width="1040"/>
  <unicode hex="0437"/>
  <outline>
    <contour>
      <point x="735" y="786" type="qcurve" smooth="yes"/>
      <point x="735" y="862"/>
      <point x="619" y="951"/>
      <point x="518" y="951" type="qcurve" smooth="yes"/>
      <point x="420" y="951"/>
      <point x="289" y="849"/>
      <point x="289" y="780" type="qcurve"/>
      <point x="105" y="780" type="line"/>
      <point x="105" y="921"/>
      <point x="341" y="1101"/>
      <point x="518" y="1101" type="qcurve" smooth="yes"/>
      <point x="708" y="1101"/>
      <point x="920" y="938"/>
      <point x="920" y="787" type="qcurve" smooth="yes"/>
      <point x="920" y="714"/>
      <point x="832" y="592"/>
      <point x="751" y="556" type="qcurve"/>
      <point x="845.5" y="524.0" name="inserted"/>
      <point x="940.0" y="398.0"/>
      <point x="940" y="304" type="qcurve" smooth="yes"/>
      <point x="940" y="155"/>
      <point x="710" y="-19"/>
      <point x="518" y="-19" type="qcurve" smooth="yes"/>
      <point x="331" y="-19"/>
      <point x="88" y="164"/>
      <point x="88" y="320" type="qcurve"/>
      <point x="272" y="320" type="line"/>
      <point x="272" y="241"/>
      <point x="413" y="128"/>
      <point x="518" y="128" type="qcurve" smooth="yes"/>
      <point x="624" y="128"/>
      <point x="754" y="226"/>
      <point x="754" y="304" type="qcurve" smooth="yes"/>
      <point x="754" y="395"/>
      <point x="645" y="474"/>
      <point x="530" y="474" type="qcurve" smooth="yes"/>
      <point x="345" y="474" type="line"/>
      <point x="345" y="630" type="line"/>
      <point x="546" y="630" type="line" smooth="yes"/>
      <point x="640.5" y="632.5" name="inserted"/>
      <point x="735.0" y="710.5"/>
    </contour>
  </outline>
</glyph>
<glyph name="uni043C" format="2">
  <advance width="1519"/>
  <unicode hex="043C"/>
  <outline>
    <contour>
      <point x="763" y="245" type="line"/>
      <point x="1131" y="1082" type="line"/>
      <point x="1362" y="1082" type="line"/>
      <point x="1362" y="0" type="line"/>
      <point x="1177" y="0" type="line"/>
      <point x="1177" y="787" type="line"/>
      <point x="827" y="0" type="line"/>
      <point x="699" y="0" type="line"/>
      <point x="342" y="804" type="line"/>
      <point x="342" y="0" type="line"/>
      <point x="157" y="0" type="line"/>
      <point x="157" y="1082" type="line"/>
      <point x="397" y="1082" type="line"/>
    </contour>
  </outline>
</glyph>
<glyph name="uni043D" format="2">
  <advance width="1181"/>
  <unicode hex="043D"/>
  <outline>
    <contour>
      <point x="1024" y="0" type="line"/>
      <point x="839" y="0" type="line"/>
      <point x="839" y="462" type="line"/>
      <point x="342" y="462" type="line"/>
      <point x="342" y="0" type="line"/>
      <point x="156" y="0" type="line"/>
      <point x="156" y="1082" type="line"/>
      <point x="342" y="1082" type="line"/>
      <point x="342" y="613" type="line"/>
      <point x="839" y="613" type="line"/>
      <point x="839" y="1082" type="line"/>
      <point x="1024" y="1082" type="line"/>
    </contour>
  </outline>
</glyph>
<glyph name="uni0442" format="2">
  <advance width="984"/>
  <unicode hex="0442"/>
  <outline>
    <contour>
      <point x="944" y="932" type="line"/>
      <point x="581" y="932" type="line"/>
      <point x="581" y="0" type="line"/>
      <point x="396" y="0" type="line"/>
      <point x="396" y="932" type="line"/>
      <point x="40" y="932" type="line"/>
      <point x="40" y="1082" type="line"/>
      <point x="944" y="1082" type="line"/>
    </contour>
  </outline>
</glyph>
<glyph name="uni0448" format="2">
  <advance width="1656"/>
  <unicode hex="0448"/>
  <outline>
    <contour>
      <point x="342" y="1082" type="line"/>
      <point x="342" y="151" type="line"/>
      <point x="738" y="151" type="line"/>
      <point x="738" y="1082" type="line"/>
      <point x="923" y="1082" type="line"/>
      <point x="923" y="151" type="line"/>
      <point x="1318" y="151" type="line"/>
      <point x="1318" y="1082" type="line"/>
      <point x="1504" y="1082" type="line"/>
      <point x="1504" y="0" type="line"/>
      <point x="156" y="0" type="line"/>
      <point x="156" y="1082" type="line"/>
    </contour>
  </outline>
</glyph>
<glyph name="uni044B" format="2">
  <advance width="1590"/>
  <unicode hex="044B"/>
  <outline>
    <contour>
      <point x="342" y="709" type="line"/>
      <point x="623" y="709" type="line" smooth="yes"/>
      <point x="807" y="707"/>
      <point x="1021" y="519"/>
      <point x="1021" y="358" type="qcurve" smooth="yes"/>
      <point x="1021" y="196"/>
      <point x="801" y="0"/>
      <point x="615" y="0" type="qcurve" smooth="yes"/>
      <point x="157" y="0" type="line"/>
      <point x="157" y="1082" type="line"/>
      <point x="342" y="1082" type="line"/>
    </contour>
    <contour>
      <point x="1407" y="0" type="line"/>
      <point x="1221" y="0" type="line"/>
      <point x="1221" y="1082" type="line"/>
      <point x="1407" y="1082" type="line"/>
    </contour>
    <contour>
      <point x="342" y="558" type="line"/>
      <point x="342" y="151" type="line"/>
      <point x="617" y="151" type="line" smooth="yes"/>
      <point x="721" y="151"/>
      <point x="835" y="258"/>
      <point x="835" y="351" type="qcurve" smooth="yes"/>
      <point x="835" y="441"/>
      <point x="724" y="556"/>
      <point x="624" y="558" type="qcurve" smooth="yes"/>
    </contour>
  </outline>
</glyph>
<glyph name="uni0452" format="2">
  <advance width="1128"/>
  <unicode hex="0452"/>
  <outline>
    <contour>
      <point x="611" y="1209" type="line"/>
      <point x="325" y="1209" type="line"/>
      <point x="325" y="951" type="line"/>
      <point x="386.5" y="1026.5" name="inserted"/>
      <point x="546.5" y="1102.0"/>
      <point x="645" y="1102" type="qcurve" smooth="yes"/>
      <point x="816.5" y="1102.0" name="inserted"/>
      <point x="989.5" y="908.5"/>
      <point x="991" y="715" type="qcurve" smooth="yes"/>
      <point x="991" y="-89" type="line" smooth="yes"/>
      <point x="991" y="-259"/>
      <point x="821" y="-437"/>
      <point x="669" y="-437" type="qcurve" smooth="yes"/>
      <point x="638.5" y="-437.0" name="inserted"/>
      <point x="581.0" y="-428.0"/>
      <point x="554" y="-419" type="qcurve"/>
      <point x="569" y="-272" type="line"/>
      <point x="604" y="-285"/>
      <point x="734" y="-285"/>
      <point x="770.0" y="-233.0" type="qcurve" smooth="yes" name="inserted"/>
      <point x="788.0" y="-207.0" name="inserted"/>
      <point x="806.0" y="-135.0"/>
      <point x="806" y="-89" type="qcurve" smooth="yes"/>
      <point x="806" y="711" type="line" smooth="yes"/>
      <point x="806" y="831"/>
      <point x="701" y="945"/>
      <point x="589" y="945" type="qcurve" smooth="yes"/>
      <point x="499" y="945"/>
      <point x="363" y="849"/>
      <point x="325" y="771" type="qcurve"/>
      <point x="325" y="0" type="line"/>
      <point x="140" y="0" type="line"/>
      <point x="140" y="1209" type="line"/>
      <point x="-24" y="1209" type="line"/>
      <point x="-24" y="1361" type="line"/>
      <point x="140" y="1361" type="line"/>
      <point x="140" y="1536" type="line"/>
      <point x="325" y="1536" type="line"/>
      <point x="325" y="1361" type="line"/>
      <point x="611" y="1361" type="line"/>
    </contour>
  </outline>
</glyph>
<glyph name="uni0454" format="2">
  <advance width="1101"/>
  <unicode hex="0454"/>
  <outline>
    <contour>
      <point x="584" y="131" type="qcurve" smooth="yes"/>
      <point x="683" y="131"/>
      <point x="831" y="251"/>
      <point x="839" y="341" type="qcurve"/>
      <point x="1015" y="341" type="line"/>
      <point x="1010" y="247"/>
      <point x="890" y="79"/>
      <point x="792.0" y="29.5" type="qcurve" smooth="yes" name="inserted"/>
      <point x="743.0" y="4.75" name="inserted"/>
      <point x="639.0" y="-20.0"/>
      <point x="584" y="-20" type="qcurve" smooth="yes"/>
      <point x="362" y="-20"/>
      <point x="103" y="276"/>
      <point x="103" y="532" type="qcurve" smooth="yes"/>
      <point x="103" y="562" type="line" smooth="yes"/>
      <point x="103" y="721"/>
      <point x="220" y="968"/>
      <point x="328.0" y="1035.0" type="qcurve" smooth="yes" name="inserted"/>
      <point x="382.0" y="1068.5" name="inserted"/>
      <point x="510.0" y="1102.0"/>
      <point x="584" y="1102" type="qcurve" smooth="yes"/>
      <point x="766" y="1102"/>
      <point x="1007" y="884"/>
      <point x="1015" y="710" type="qcurve"/>
      <point x="839" y="710" type="line"/>
      <point x="831" y="815"/>
      <point x="688" y="950"/>
      <point x="584" y="950" type="qcurve" smooth="yes"/>
      <point x="454" y="950"/>
      <point x="300" y="773"/>
      <point x="290" y="616" type="qcurve"/>
      <point x="694" y="616" type="line"/>
      <point x="694" y="464" type="line"/>
      <point x="290" y="464" type="line"/>
      <point x="300" y="304"/>
      <point x="453" y="131"/>
    </contour>
  </outline>
</glyph>
<glyph name="uni0459" format="2">
  <advance width="1737"/>
  <unicode hex="0459"/>
  <outline>
    <contour>
      <point x="991" y="1082" type="line"/>
      <point x="991" y="670" type="line"/>
      <point x="1277" y="670" type="line" smooth="yes"/>
      <point x="1459" y="667"/>
      <point x="1670" y="486"/>
      <point x="1670" y="338" type="qcurve" smooth="yes"/>
      <point x="1670" y="191"/>
      <point x="1459" y="3"/>
      <point x="1276" y="0" type="qcurve" smooth="yes"/>
      <point x="805" y="0" type="line"/>
      <point x="805" y="929" type="line"/>
      <point x="468" y="929" type="line"/>
      <point x="445" y="507" type="line" smooth="yes"/>
      <point x="425" y="230"/>
      <point x="269" y="2"/>
      <point x="104" y="0" type="qcurve" smooth="yes"/>
      <point x="39" y="0" type="line"/>
      <point x="39" y="163" type="line"/>
      <point x="93" y="167" type="line" smooth="yes"/>
      <point x="178" y="177"/>
      <point x="255" y="344"/>
      <point x="268" y="555" type="qcurve" smooth="yes"/>
      <point x="291" y="1082" type="line"/>
    </contour>
    <contour>
      <point x="991" y="518" type="line"/>
      <point x="991" y="149" type="line"/>
      <point x="1266" y="149" type="line" smooth="yes"/>
      <point x="1367" y="149"/>
      <point x="1484" y="254"/>
      <point x="1484" y="340" type="qcurve" smooth="yes"/>
      <point x="1484" y="421"/>
      <point x="1370" y="517"/>
      <point x="1271" y="518" type="qcurve" smooth="yes"/>
    </contour>
  </outline>
</glyph>
<glyph name="uni0460" format="2">
  <advance width="1800"/>
  <unicode hex="0460"/>
  <outline>
    <contour>
      <point x="1653" y="1456" type="line"/>
      <point x="1653" y="398" type="line" smooth="yes"/>
      <point x="1653" y="200"/>
      <point x="1428" y="-20"/>
      <point x="1233" y="-20" type="qcurve" smooth="yes"/>
      <point x="1124" y="-20"/>
      <point x="953" y="67"/>
      <point x="904" y="156" type="qcurve"/>
      <point x="852" y="67"/>
      <point x="674" y="-20"/>
      <point x="561" y="-20" type="qcurve" smooth="yes"/>
      <point x="372" y="-20"/>
      <point x="157" y="199"/>
      <point x="156" y="394" type="qcurve" smooth="yes"/>
      <point x="156" y="1456" type="line"/>
      <point x="349" y="1456" type="line"/>
      <point x="349" y="397" type="line" smooth="yes"/>
      <point x="349" y="274"/>
      <point x="463" y="136"/>
      <point x="561" y="136" type="qcurve" smooth="yes"/>
      <point x="675" y="136"/>
      <point x="805" y="273"/>
      <point x="805" y="397" type="qcurve" smooth="yes"/>
      <point x="805" y="1456" type="line"/>
      <point x="1004" y="1456" type="line"/>
      <point x="1004" y="397" type="line" smooth="yes"/>
      <point x="1004" y="272"/>
      <point x="1128" y="136"/>
      <point x="1233" y="136" type="qcurve" smooth="yes"/>
      <point x="1339" y="136"/>
      <point x="1461" y="273"/>
      <point x="1461" y="398" type="qcurve" smooth="yes"/>
      <point x="1461" y="1456" type="line"/>
    </contour>
  </outline>
</glyph>
<glyph name="uni0462" format="2">
  <advance width="1285"/>
  <unicode hex="0462"/>
  <outline>
    <contour>
      <point x="592" y="1104" type="line"/>
      <point x="355" y="1104" type="line"/>
      <point x="355" y="862" type="line"/>
      <point x="717" y="862" type="line" smooth="yes"/>
      <point x="945" y="859"/>
      <point x="1201" y="631"/>
      <point x="1201" y="435" type="qcurve" smooth="yes"/>
      <point x="1201" y="238"/>
      <point x="943" y="4"/>
      <point x="720" y="0" type="qcurve" smooth="yes"/>
      <point x="163" y="0" type="line"/>
      <point x="163" y="1104" type="line"/>
      <point x="-44" y="1104" type="line"/>
      <point x="-44" y="1255" type="line"/>
      <point x="163" y="1255" type="line"/>
      <point x="163" y="1456" type="line"/>
      <point x="355" y="1456" type="line"/>
      <point x="355" y="1255" type="line"/>
      <point x="592" y="1255" type="line"/>
    </contour>
    <contour>
      <point x="355" y="704" type="line"/>
      <point x="355" y="157" type="line"/>
      <point x="706" y="157" type="line" smooth="yes"/>
      <point x="849" y="157"/>
      <point x="1008" y="309"/>
      <point x="1008" y="437" type="qcurve" smooth="yes"/>
      <point x="1008" y="560"/>
      <point x="855" y="702"/>
      <point x="714" y="704" type="qcurve" smooth="yes"/>
    </contour>
  </outline>
</glyph>
<glyph name="uni0463" format="2">
  <advance width="1110"/>
  <unicode hex="0463"/>
  <outline>
    <contour>
      <point x="662" y="1082" type="line"/>
      <point x="341" y="1082" type="line"/>
      <point x="341" y="746" type="line"/>
      <point x="621" y="746" type="line" smooth="yes"/>
      <point x="808" y="744"/>
      <point x="1020" y="542"/>
      <point x="1020.0" y="377.0" type="qcurve" smooth="yes" name="inserted"/>
      <point x="1020" y="212"/>
      <point x="808" y="3"/>
      <point x="625" y="0" type="qcurve" smooth="yes"/>
      <point x="155" y="0" type="line"/>
      <point x="155" y="1082" type="line"/>
      <point x="-36" y="1082" type="line"/>
      <point x="-36" y="1233" type="line"/>
      <point x="155" y="1233" type="line"/>
      <point x="155" y="1558" type="line"/>
      <point x="341" y="1558" type="line"/>
      <point x="341" y="1233" type="line"/>
      <point x="662" y="1233" type="line"/>
    </contour>
    <contour>
      <point x="341" y="594" type="line"/>
      <point x="341" y="151" type="line"/>
      <point x="615" y="151" type="line" smooth="yes"/>
      <point x="720" y="151"/>
      <point x="833" y="270"/>
      <point x="833" y="370" type="qcurve" smooth="yes"/>
      <point x="833" y="467"/>
      <point x="722" y="592"/>
      <point x="622" y="594" type="qcurve" smooth="yes"/>
    </contour>
  </outline>
</glyph>
<glyph name="uni0464" format="2">
  <advance width="1835"/>
  <unicode hex="0464"/>
  <outline>
    <contour>
      <point x="376" y="832" type="line"/>
      <point x="575" y="832" type="line"/>
      <point x="580" y="1025"/>
      <point x="727" y="1319"/>
      <point x="858.0" y="1398.0" type="qcurve" smooth="yes" name="inserted"/>
      <point x="923.5" y="1437.5" name="inserted"/>
      <point x="1075.0" y="1477.0"/>
      <point x="1161" y="1477" type="qcurve" smooth="yes"/>
      <point x="1391" y="1477"/>
      <point x="1672" y="1221"/>
      <point x="1696" y="989" type="qcurve"/>
      <point x="1504" y="989" type="line"/>
      <point x="1479" y="1161"/>
      <point x="1312" y="1319"/>
      <point x="1161" y="1319" type="qcurve" smooth="yes"/>
      <point x="981" y="1319"/>
      <point x="774" y="1058"/>
      <point x="768" y="832" type="qcurve"/>
      <point x="1310" y="832" type="line"/>
      <point x="1310" y="681" type="line"/>
      <point x="768" y="681" type="line"/>
      <point x="768" y="655" type="line" smooth="yes"/>
      <point x="768" y="418"/>
      <point x="966" y="138"/>
      <point x="1144" y="138" type="qcurve" smooth="yes"/>
      <point x="1307" y="138"/>
      <point x="1476" y="285"/>
      <point x="1504" y="463" type="qcurve"/>
      <point x="1696" y="463" type="line"/>
      <point x="1669" y="232"/>
      <point x="1382" y="-19"/>
      <point x="1144" y="-19" type="qcurve" smooth="yes"/>
      <point x="886" y="-19"/>
      <point x="575" y="351"/>
      <point x="575" y="661" type="qcurve" smooth="yes"/>
      <point x="575" y="681" type="line"/>
      <point x="376" y="681" type="line"/>
      <point x="376" y="0" type="line"/>
      <point x="183" y="0" type="line"/>
      <point x="183" y="1456" type="line"/>
      <point x="376" y="1456" type="line"/>
    </contour>
  </outline>
</glyph>
<glyph name="uni0465" format="2">
  <advance width="1528"/>
  <unicode hex="0465"/>
  <outline>
    <contour>
      <point x="339" y="615" type="line"/>
      <point x="530" y="615" type="line"/>
      <point x="546" y="838"/>
      <point x="801" y="1102"/>
      <point x="1010" y="1102" type="qcurve" smooth="yes"/>
      <point x="1192" y="1102"/>
      <point x="1433" y="884"/>
      <point x="1441" y="710" type="qcurve"/>
      <point x="1265" y="710" type="line"/>
      <point x="1257" y="815"/>
      <point x="1114" y="950"/>
      <point x="1010" y="950" type="qcurve" smooth="yes"/>
      <point x="878" y="950"/>
      <point x="726" y="773"/>
      <point x="716" y="615" type="qcurve"/>
      <point x="1153" y="615" type="line"/>
      <point x="1153" y="464" type="line"/>
      <point x="716" y="464" type="line"/>
      <point x="726" y="304"/>
      <point x="879" y="131"/>
      <point x="1010" y="131" type="qcurve" smooth="yes"/>
      <point x="1109" y="131"/>
      <point x="1257" y="251"/>
      <point x="1265" y="341" type="qcurve"/>
      <point x="1441" y="341" type="line"/>
      <point x="1436" y="247"/>
      <point x="1316" y="79"/>
      <point x="1218.0" y="29.5" type="qcurve" smooth="yes" name="inserted"/>
      <point x="1169.0" y="4.75" name="inserted"/>
      <point x="1065.0" y="-20.0"/>
      <point x="1010" y="-20" type="qcurve" smooth="yes"/>
      <point x="801" y="-20"/>
      <point x="547" y="242"/>
      <point x="531" y="464" type="qcurve"/>
      <point x="339" y="464" type="line"/>
      <point x="339" y="0" type="line"/>
      <point x="153" y="0" type="line"/>
      <point x="153" y="1082" type="line"/>
      <point x="339" y="1082" type="line"/>
    </contour>
  </outline>
</glyph>
<glyph name="uni046B" format="2">
  <advance width="1505"/>
  <unicode hex="046B"/>
  <outline>
    <contour>
      <point x="150" y="0" type="line"/>
      <point x="150" y="182" type="line" smooth="yes"/>
      <point x="154" y="387"/>
      <point x="356" y="597"/>
      <point x="566" y="603" type="qcurve"/>
      <point x="279" y="1082" type="line"/>
      <point x="1238" y="1082" type="line"/>
      <point x="950" y="603" type="line"/>
      <point x="1156" y="592"/>
      <point x="1353" y="381"/>
      <point x="1355" y="173" type="qcurve" smooth="yes"/>
      <point x="1355" y="0" type="line"/>
      <point x="1169" y="0" type="line"/>
      <point x="1169" y="177" type="line" smooth="yes"/>
      <point x="1167" y="323"/>
      <point x="1052" y="452"/>
      <point x="912" y="452" type="qcurve" smooth="yes"/>
      <point x="859" y="452" type="line"/>
      <point x="848" y="433" type="line"/>
      <point x="848" y="0" type="line"/>
      <point x="663" y="0" type="line"/>
      <point x="663" y="443" type="line"/>
      <point x="657" y="452" type="line"/>
      <point x="595" y="452" type="line" smooth="yes"/>
      <point x="455" y="452"/>
      <point x="338" y="326"/>
      <point x="336" y="177" type="qcurve"/>
      <point x="336" y="0" type="line"/>
    </contour>
    <contour>
      <point x="754" y="604" type="line"/>
      <point x="762" y="604" type="line"/>
      <point x="945" y="930" type="line"/>
      <point x="572" y="930" type="line"/>
    </contour>
  </outline>
</glyph>
<glyph name="uni046C" format="2">
  <advance width="2308"/>
  <unicode hex="046C"/>
  <outline>
    <contour>
      <point x="709" y="0" type="line"/>
      <point x="709" y="376" type="line" smooth="yes"/>
      <point x="709.5" y="465.5" name="inserted"/>
      <point x="749.5" y="607.5"/>
      <point x="789" y="660" type="qcurve"/>
      <point x="375" y="660" type="line"/>
      <point x="375" y="0" type="line"/>
      <point x="182" y="0" type="line"/>
      <point x="182" y="1456" type="line"/>
      <point x="375" y="1456" type="line"/>
      <point x="375" y="812" type="line"/>
      <point x="1232" y="812" type="line"/>
      <point x="841" y="1456" type="line"/>
      <point x="2044" y="1456" type="line"/>
      <point x="1652" y="810" type="line"/>
      <point x="1679" y="810" type="line" smooth="yes"/>
      <point x="1923" y="810"/>
      <point x="2159" y="598"/>
      <point x="2162" y="382" type="qcurve" smooth="yes"/>
      <point x="2162" y="0" type="line"/>
      <point x="1969" y="0" type="line"/>
      <point x="1969" y="376" type="line" smooth="yes"/>
      <point x="1968" y="520"/>
      <point x="1844" y="650"/>
      <point x="1690" y="652" type="qcurve" smooth="yes"/>
      <point x="1557" y="652" type="line"/>
      <point x="1535" y="615" type="line"/>
      <point x="1535" y="0" type="line"/>
      <point x="1343" y="0" type="line"/>
      <point x="1343" y="629" type="line"/>
      <point x="1329" y="652" type="line"/>
      <point x="1194" y="652" type="line" smooth="yes"/>
      <point x="1036" y="652"/>
      <point x="906" y="529"/>
      <point x="902" y="388" type="qcurve"/>
      <point x="902" y="0" type="line"/>
    </contour>
    <contour>
      <point x="1435" y="810" type="line"/>
      <point x="1451" y="810" type="line"/>
      <point x="1733" y="1298" type="line"/>
      <point x="1152" y="1298" type="line"/>
    </contour>
  </outline>
</glyph>
<glyph name="uni046E" format="2">
  <advance width="1059"/>
  <unicode hex="046E"/>
  <outline>
    <contour>
      <point x="730" y="1066" type="qcurve" smooth="yes"/>
      <point x="730" y="1176"/>
      <point x="573" y="1304"/>
      <point x="438" y="1304" type="qcurve" smooth="yes"/>
      <point x="132" y="1304" type="line"/>
      <point x="132" y="1456" type="line"/>
      <point x="431" y="1456" type="line" smooth="yes"/>
      <point x="653" y="1456"/>
      <point x="915" y="1240"/>
      <point x="915" y="1062" type="qcurve" smooth="yes"/>
      <point x="915" y="959"/>
      <point x="786" y="795"/>
      <point x="671" y="750" type="qcurve"/>
      <point x="801" y="709"/>
      <point x="938" y="536"/>
      <point x="938" y="406" type="qcurve" smooth="yes"/>
      <point x="938" y="210"/>
      <point x="673" y="-19"/>
      <point x="449" y="-19" type="qcurve" smooth="yes"/>
      <point x="397" y="-19" type="line" smooth="yes"/>
      <point x="326.5" y="-20.5" name="inserted"/>
      <point x="256.0" y="-76.5"/>
      <point x="256" y="-131" type="qcurve" smooth="yes"/>
      <point x="256.0" y="-183.5" name="inserted"/>
      <point x="321.0" y="-269.0"/>
      <point x="386" y="-302" type="qcurve" smooth="yes"/>
      <point x="417" y="-317" type="line"/>
      <point x="343" y="-442" type="line"/>
      <point x="221" y="-389"/>
      <point x="80" y="-221"/>
      <point x="80" y="-122" type="qcurve" smooth="yes"/>
      <point x="80" y="0"/>
      <point x="245" y="131"/>
      <point x="407" y="132" type="qcurve" smooth="yes"/>
      <point x="459" y="132" type="line" smooth="yes"/>
      <point x="593" y="133"/>
      <point x="752" y="281"/>
      <point x="752" y="402" type="qcurve" smooth="yes"/>
      <point x="752.0" y="534.0" name="inserted"/>
      <point x="591.0" y="668.5"/>
      <point x="430" y="671" type="qcurve" smooth="yes"/>
      <point x="277" y="671" type="line"/>
      <point x="277" y="823" type="line"/>
      <point x="411" y="823" type="line" smooth="yes"/>
      <point x="570.5" y="823.0" name="inserted"/>
      <point x="730.0" y="944.5"/>
    </contour>
    <contour>
      <point x="543" y="1756" type="line"/>
      <point x="694" y="1926" type="line"/>
      <point x="854" y="1926" type="line"/>
      <point x="854" y="1916" type="line"/>
      <point x="600" y="1642" type="line"/>
      <point x="486" y="1642" type="line"/>
      <point x="236" y="1916" type="line"/>
      <point x="236" y="1926" type="line"/>
      <point x="393" y="1926" type="line"/>
    </contour>
  </outline>
</glyph>
<glyph name="uni0474" format="2">
  <advance width="1290"/>
  <unicode hex="0474"/>
  <outline>
    <contour>
      <point x="579" y="374" type="line"/>
      <point x="612" y="244" type="line"/>
      <point x="647" y="373" type="line"/>
      <point x="911" y="1204" type="line" smooth="yes"/>
      <point x="962" y="1355"/>
      <point x="1096" y="1475"/>
      <point x="1199" y="1475" type="qcurve" smooth="yes"/>
      <point x="1245" y="1474" type="line"/>
      <point x="1244" y="1303" type="line"/>
      <point x="1180" y="1303"/>
      <point x="1116" y="1243"/>
      <point x="1085" y="1159" type="qcurve" smooth="yes"/>
      <point x="697" y="0" type="line"/>
      <point x="527" y="0" type="line"/>
      <point x="22" y="1456" type="line"/>
      <point x="230" y="1456" type="line"/>
    </contour>
  </outline>
</glyph>
<glyph name="uni047A" format="2">
  <advance width="1393"/>
  <unicode hex="047A"/>
  <outline>
    <contour>
      <point x="1274" y="681" type="line" smooth="yes"/>
      <point x="1274" y="390"/>
      <point x="1016" y="23"/>
      <point x="789" y="-12" type="qcurve"/>
      <point x="789" y="-141" type="line"/>
      <point x="604" y="-141" type="line"/>
      <point x="604" y="-14" type="line"/>
      <point x="375" y="17"/>
      <point x="104" y="386"/>
      <point x="103" y="677" type="qcurve" smooth="yes"/>
      <point x="103" y="773" type="line" smooth="yes"/>
      <point x="103" y="1065"/>
      <point x="373" y="1439"/>
      <point x="604" y="1470" type="qcurve"/>
      <point x="604" y="1588" type="line"/>
      <point x="789" y="1588" type="line"/>
      <point x="789" y="1468" type="line"/>
      <point x="1015" y="1431"/>
      <point x="1274" y="1063"/>
      <point x="1274" y="768" type="qcurve" smooth="yes"/>
    </contour>
    <contour>
      <point x="1083" y="775" type="line" smooth="yes"/>
      <point x="1083" y="999"/>
      <point x="930" y="1264"/>
      <point x="789" y="1299" type="qcurve"/>
      <point x="789" y="1202" type="line"/>
      <point x="604" y="1202" type="line"/>
      <point x="604" y="1302" type="line"/>
      <point x="457" y="1271"/>
      <point x="294" y="997"/>
      <point x="294" y="774" type="qcurve" smooth="yes"/>
      <point x="294" y="681" type="line" smooth="yes"/>
      <point x="294" y="459"/>
      <point x="458" y="183"/>
      <point x="604" y="152" type="qcurve"/>
      <point x="604" y="254" type="line"/>
      <point x="789" y="254" type="line"/>
      <point x="789" y="154" type="line"/>
      <point x="932" y="188"/>
      <point x="1083" y="455"/>
      <point x="1083" y="681" type="qcurve" smooth="yes"/>
    </contour>
  </outline>
</glyph>
<glyph name="uni047C" format="2">
  <advance width="1793"/>
  <unicode hex="047C"/>
  <outline>
    <contour>
      <point x="1243" y="1455" type="line"/>
      <point x="1430" y="1455"/>
      <point x="1647" y="1215"/>
      <point x="1647" y="1001" type="qcurve" smooth="yes"/>
      <point x="1647" y="431" type="line" smooth="yes"/>
      <point x="1647" y="219"/>
      <point x="1430" y="-21"/>
      <point x="1243" y="-21" type="qcurve" smooth="yes"/>
      <point x="1131" y="-21"/>
      <point x="953" y="64"/>
      <point x="901" y="152" type="qcurve"/>
      <point x="849" y="64"/>
      <point x="673" y="-21"/>
      <point x="561" y="-21" type="qcurve" smooth="yes"/>
      <point x="376" y="-21"/>
      <point x="160" y="211"/>
      <point x="156" y="416" type="qcurve" smooth="yes"/>
      <point x="156" y="1002" type="line" smooth="yes"/>
      <point x="156" y="1214"/>
      <point x="372" y="1455"/>
      <point x="561" y="1455" type="qcurve"/>
      <point x="561" y="1297" type="line"/>
      <point x="462" y="1297"/>
      <point x="349" y="1140"/>
      <point x="349" y="1003" type="qcurve" smooth="yes"/>
      <point x="349" y="431" type="line" smooth="yes"/>
      <point x="349" y="291"/>
      <point x="463" y="136"/>
      <point x="561" y="136" type="qcurve" smooth="yes"/>
      <point x="675" y="136"/>
      <point x="805" y="273"/>
      <point x="805" y="397" type="qcurve" smooth="yes"/>
      <point x="805" y="825" type="line"/>
      <point x="998" y="825" type="line"/>
      <point x="998" y="397" type="line" smooth="yes"/>
      <point x="998" y="275"/>
      <point x="1128" y="136"/>
      <point x="1243" y="136" type="qcurve" smooth="yes"/>
      <point x="1342" y="136"/>
      <point x="1454" y="292"/>
      <point x="1454" y="432" type="qcurve" smooth="yes"/>
      <point x="1454" y="1002" type="line" smooth="yes"/>
      <point x="1454" y="1138"/>
      <point x="1343" y="1297"/>
      <point x="1243" y="1297" type="qcurve"/>
    </contour>
    <contour>
      <point x="1347" y="1747" type="qcurve"/>
      <point x="1347" y="1620" type="line"/>
      <point x="1304" y="1620" type="line" smooth="yes"/>
      <point x="1224" y="1620"/>
      <point x="1094" y="1654"/>
      <point x="1002.0" y="1694.0" type="qcurve" smooth="yes" name="inserted"/>
      <point x="910" y="1734"/>
      <point x="858" y="1746"/>
      <point x="834" y="1746" type="qcurve" smooth="yes"/>
      <point x="777.5" y="1746.0" name="inserted"/>
      <point x="721.0" y="1690.0"/>
      <point x="721" y="1634" type="qcurve" smooth="yes"/>
      <point x="721" y="1619" type="line"/>
      <point x="593" y="1619" type="line"/>
      <point x="593" y="1655" type="line" smooth="yes"/>
      <point x="593" y="1765"/>
      <point x="720" y="1873"/>
      <point x="830" y="1873" type="qcurve" smooth="yes"/>
      <point x="870" y="1873"/>
      <point x="942" y="1856"/>
      <point x="1037.5" y="1815.0" type="qcurve" smooth="yes" name="inserted"/>
      <point x="1133" y="1774"/>
      <point x="1239" y="1747"/>
    </contour>
    <contour>
      <point x="791" y="1379" type="line"/>
      <point x="824.0" y="1419.0" name="inserted"/>
      <point x="858.5" y="1489.0"/>
      <point x="860" y="1519" type="qcurve" smooth="yes"/>
      <point x="860" y="1624" type="line"/>
      <point x="1017" y="1624" type="line"/>
      <point x="1017" y="1522" type="line" smooth="yes"/>
      <point x="1017" y="1472"/>
      <point x="926" y="1355"/>
      <point x="867" y="1323" type="qcurve"/>
    </contour>
  </outline>
</glyph>
<glyph name="uni047D" format="2">
  <advance width="1572"/>
  <unicode hex="047D"/>
  <outline>
    <contour>
      <point x="1090" y="1092" type="line"/>
      <point x="1258" y="1092"/>
      <point x="1450" y="873"/>
      <point x="1450" y="679" type="qcurve" smooth="yes"/>
      <point x="1450" y="390" type="line" smooth="yes"/>
      <point x="1450" y="197"/>
      <point x="1258" y="-21"/>
      <point x="1090" y="-21" type="qcurve" smooth="yes"/>
      <point x="986.0" y="-21.0" name="inserted"/>
      <point x="834.5" y="53.5"/>
      <point x="787" y="128" type="qcurve"/>
      <point x="740" y="53"/>
      <point x="584" y="-21"/>
      <point x="486" y="-21" type="qcurve" smooth="yes"/>
      <point x="323" y="-21"/>
      <point x="130" y="187"/>
      <point x="126" y="374" type="qcurve" smooth="yes"/>
      <point x="126" y="680" type="line" smooth="yes"/>
      <point x="126" y="873"/>
      <point x="318" y="1092"/>
      <point x="486" y="1092" type="qcurve"/>
      <point x="486" y="940" type="line"/>
      <point x="404" y="940"/>
      <point x="311" y="804"/>
      <point x="311" y="680" type="qcurve" smooth="yes"/>
      <point x="311" y="390" type="line" smooth="yes"/>
      <point x="311" y="267"/>
      <point x="403" y="130"/>
      <point x="486" y="130" type="qcurve" smooth="yes"/>
      <point x="584" y="130"/>
      <point x="695" y="250"/>
      <point x="695" y="353" type="qcurve" smooth="yes"/>
      <point x="695" y="588" type="line"/>
      <point x="880" y="588" type="line"/>
      <point x="880" y="350" type="line" smooth="yes"/>
      <point x="881" y="247"/>
      <point x="993" y="130"/>
      <point x="1090" y="130" type="qcurve" smooth="yes"/>
      <point x="1171" y="130"/>
      <point x="1264" y="266"/>
      <point x="1264" y="391" type="qcurve" smooth="yes"/>
      <point x="1264" y="680" type="line" smooth="yes"/>
      <point x="1264" y="804"/>
      <point x="1171" y="940"/>
      <point x="1090" y="940" type="qcurve"/>
    </contour>
    <contour>
      <point x="1260" y="1395" type="qcurve"/>
      <point x="1260" y="1268" type="line"/>
      <point x="1216" y="1268" type="line" smooth="yes"/>
      <point x="1137" y="1268"/>
      <point x="1011" y="1300"/>
      <point x="915.0" y="1341.0" type="qcurve" smooth="yes" name="inserted"/>
      <point x="819" y="1382"/>
      <point x="771" y="1393"/>
      <point x="747" y="1393" type="qcurve" smooth="yes"/>
      <point x="690.0" y="1393.0" name="inserted"/>
      <point x="633.0" y="1337.5"/>
      <point x="633" y="1282" type="qcurve" smooth="yes"/>
      <point x="633" y="1267" type="line"/>
      <point x="505" y="1267" type="line"/>
      <point x="505" y="1303" type="line" smooth="yes"/>
      <point x="505" y="1413"/>
      <point x="632" y="1521"/>
      <point x="743" y="1521" type="qcurve" smooth="yes"/>
      <point x="784" y="1521"/>
      <point x="858" y="1503"/>
      <point x="949.5" y="1463.0" type="qcurve" smooth="yes" name="inserted"/>
      <point x="1041" y="1423"/>
      <point x="1150" y="1395"/>
    </contour>
    <contour>
      <point x="703" y="1017" type="line"/>
      <point x="735.5" y="1056.0" name="inserted"/>
      <point x="769.5" y="1126.5"/>
      <point x="771" y="1158" type="qcurve" smooth="yes"/>
      <point x="771" y="1262" type="line"/>
      <point x="929" y="1262" type="line"/>
      <point x="929" y="1160" type="line" smooth="yes"/>
      <point x="929" y="1110"/>
      <point x="838" y="993"/>
      <point x="779" y="961" type="qcurve"/>
    </contour>
  </outline>
</glyph>
<glyph name="uni0480" format="2">
  <advance width="1330"/>
  <unicode hex="0480"/>
  <outline>
    <contour>
      <point x="788" y="-380" type="line"/>
      <point x="597" y="-380" type="line"/>
      <point x="597" y="-16" type="line"/>
      <point x="381" y="12"/>
      <point x="117" y="354"/>
      <point x="117" y="609" type="qcurve" smooth="yes"/>
      <point x="117" y="853" type="line" smooth="yes"/>
      <point x="117" y="1030"/>
      <point x="259" y="1318"/>
      <point x="387.0" y="1397.5" type="qcurve" smooth="yes" name="inserted"/>
      <point x="451.0" y="1437.25" name="inserted"/>
      <point x="595.0" y="1477.0"/>
      <point x="675" y="1477" type="qcurve" smooth="yes"/>
      <point x="922" y="1477"/>
      <point x="1210" y="1213"/>
      <point x="1212" y="989" type="qcurve"/>
      <point x="1019" y="989" type="line"/>
      <point x="1017" y="1147"/>
      <point x="836" y="1319"/>
      <point x="675" y="1319" type="qcurve" smooth="yes"/>
      <point x="515" y="1319"/>
      <point x="310" y="1059"/>
      <point x="310" y="847" type="qcurve" smooth="yes"/>
      <point x="310" y="603" type="line" smooth="yes"/>
      <point x="310" y="401"/>
      <point x="507" y="140"/>
      <point x="664" y="136" type="qcurve" smooth="yes"/>
      <point x="788" y="136" type="line"/>
    </contour>
  </outline>
</glyph>
<glyph name="uni0481" format="2">
  <advance width="1095"/>
  <unicode hex="0481"/>
  <outline>
    <contour>
      <point x="674" y="-382" type="line"/>
      <point x="489" y="-382" type="line"/>
      <point x="489" y="-14" type="line"/>
      <point x="312" y="16"/>
      <point x="100" y="310"/>
      <point x="100" y="527" type="qcurve" smooth="yes"/>
      <point x="100" y="562" type="line" smooth="yes"/>
      <point x="100" y="715"/>
      <point x="219" y="964"/>
      <point x="326.5" y="1033.0" type="qcurve" smooth="yes" name="inserted"/>
      <point x="380.25" y="1067.5" name="inserted"/>
      <point x="503.5" y="1102.0"/>
      <point x="573" y="1102" type="qcurve" smooth="yes"/>
      <point x="752" y="1102"/>
      <point x="992" y="877"/>
      <point x="992" y="709" type="qcurve"/>
      <point x="817" y="709" type="line"/>
      <point x="817" y="810"/>
      <point x="674" y="950"/>
      <point x="573" y="950" type="qcurve" smooth="yes"/>
      <point x="441" y="950"/>
      <point x="285" y="732"/>
      <point x="285" y="551" type="qcurve" smooth="yes"/>
      <point x="285" y="520" type="line" smooth="yes"/>
      <point x="285" y="352"/>
      <point x="435" y="133"/>
      <point x="565" y="130" type="qcurve" smooth="yes"/>
      <point x="674" y="130" type="line"/>
    </contour>
  </outline>
</glyph>
<glyph name="uni0484" format="2">
  <unicode hex="0484"/>
  <outline>
    <contour>
      <point x="-394" y="1557" type="qcurve" smooth="yes"/>
      <point x="-283" y="1557"/>
      <point x="-156" y="1449"/>
      <point x="-156" y="1339" type="qcurve" smooth="yes"/>
      <point x="-156" y="1303" type="line"/>
      <point x="-284" y="1303" type="line"/>
      <point x="-284" y="1317" type="line" smooth="yes"/>
      <point x="-284.0" y="1373.0" name="inserted"/>
      <point x="-341.0" y="1429.0"/>
      <point x="-398" y="1429" type="qcurve" smooth="yes"/>
      <point x="-419.0" y="1429.0" name="inserted"/>
      <point x="-462.5" y="1420.0"/>
      <point x="-485" y="1411" type="qcurve" smooth="yes"/>
      <point x="-596" y="1364" type="line" smooth="yes"/>
      <point x="-664.5" y="1335.0" name="inserted"/>
      <point x="-792.0" y="1305.0"/>
      <point x="-851" y="1304" type="qcurve" smooth="yes"/>
      <point x="-911" y="1304" type="line"/>
      <point x="-911" y="1430" type="line"/>
      <point x="-803" y="1430"/>
      <point x="-697" y="1457"/>
      <point x="-600.5" y="1498.5" type="qcurve" smooth="yes" name="inserted"/>
      <point x="-504" y="1540"/>
      <point x="-433" y="1557"/>
    </contour>
  </outline>
</glyph>
<glyph name="uni0485" format="2">
  <unicode hex="0485"/>
  <outline>
    <contour>
      <point x="-666" y="1500" type="line"/>
      <point x="-666" y="1623" type="line"/>
      <point x="-487" y="1623" type="line"/>
      <point x="-487" y="1483" type="line"/>
      <point x="-428" y="1367" type="line"/>
      <point x="-505" y="1302" type="line"/>
    </contour>
  </outline>
</glyph>
<glyph name="uni0488" format="2">
  <unicode hex="0488"/>
  <outline>
    <contour>
      <point x="-760" y="1267" type="line"/>
      <point x="-760" y="1351"/>
      <point x="-645" y="1455"/>
      <point x="-550.0" y="1455.0" type="qcurve" smooth="yes" name="inserted"/>
      <point x="-455" y="1455"/>
      <point x="-339" y="1351"/>
      <point x="-339" y="1267" type="qcurve"/>
      <point x="-451" y="1267" type="line"/>
      <point x="-451" y="1313"/>
      <point x="-502" y="1368"/>
      <point x="-550" y="1368" type="qcurve" smooth="yes"/>
      <point x="-596" y="1368"/>
      <point x="-647" y="1315"/>
      <point x="-647" y="1267" type="qcurve"/>
    </contour>
    <contour>
      <point x="-169" y="990" type="line"/>
      <point x="-169" y="1074"/>
      <point x="-53" y="1178"/>
      <point x="40" y="1178" type="qcurve" smooth="yes"/>
      <point x="135" y="1178"/>
      <point x="252" y="1075"/>
      <point x="252" y="990" type="qcurve"/>
      <point x="139" y="990" type="line"/>
      <point x="139" y="1039"/>
      <point x="86" y="1091"/>
      <point x="40" y="1091" type="qcurve" smooth="yes"/>
      <point x="-4" y="1091"/>
      <point x="-55" y="1038"/>
      <point x="-55" y="990" type="qcurve"/>
    </contour>
    <contour>
      <point x="17" y="487" type="line"/>
      <point x="17" y="572"/>
      <point x="134" y="675"/>
      <point x="227" y="675" type="qcurve" smooth="yes"/>
      <point x="322" y="675"/>
      <point x="438" y="571"/>
      <point x="438" y="487" type="qcurve"/>
      <point x="326" y="487" type="line"/>
      <point x="326" y="536"/>
      <point x="273" y="588"/>
      <point x="227.0" y="588.0" type="qcurve" smooth="yes" name="inserted"/>
      <point x="181" y="588"/>
      <point x="130" y="533"/>
      <point x="130" y="487" type="qcurve"/>
    </contour>
    <contour>
      <point x="-179" y="-32" type="line"/>
      <point x="-179" y="52"/>
      <point x="-63" y="156"/>
      <point x="30" y="156" type="qcurve" smooth="yes"/>
      <point x="125" y="156"/>
      <point x="241" y="52"/>
      <point x="241" y="-32" type="qcurve"/>
      <point x="129" y="-32" type="line"/>
      <point x="129" y="17"/>
      <point x="76" y="69"/>
      <point x="30" y="69" type="qcurve" smooth="yes"/>
      <point x="-15" y="69"/>
      <point x="-66" y="14"/>
      <point x="-66" y="-32" type="qcurve"/>
    </contour>
    <contour>
      <point x="-755" y="-316" type="line"/>
      <point x="-755" y="-232"/>
      <point x="-640" y="-128"/>
      <point x="-545.0" y="-128.0" type="qcurve" smooth="yes" name="inserted"/>
      <point x="-450" y="-128"/>
      <point x="-334" y="-232"/>
      <point x="-334" y="-316" type="qcurve"/>
      <point x="-446" y="-316" type="line"/>
      <point x="-446" y="-270"/>
      <point x="-497" y="-215"/>
      <point x="-545" y="-215" type="qcurve" smooth="yes"/>
      <point x="-591" y="-215"/>
      <point x="-642" y="-270"/>
      <point x="-642" y="-316" type="qcurve"/>
    </contour>
    <contour>
      <point x="-1333" y="990" type="line"/>
      <point x="-1333" y="1074"/>
      <point x="-1217" y="1178"/>
      <point x="-1122.0" y="1178.0" type="qcurve" smooth="yes" name="inserted"/>
      <point x="-1027" y="1178"/>
      <point x="-911" y="1074"/>
      <point x="-911" y="990" type="qcurve"/>
      <point x="-1023" y="990" type="line"/>
      <point x="-1023" y="1036"/>
      <point x="-1074" y="1091"/>
      <point x="-1122" y="1091" type="qcurve" smooth="yes"/>
      <point x="-1168" y="1091"/>
      <point x="-1219" y="1038"/>
      <point x="-1219" y="990" type="qcurve"/>
    </contour>
    <contour>
      <point x="-1509" y="487" type="line"/>
      <point x="-1509" y="572"/>
      <point x="-1392" y="675"/>
      <point x="-1299" y="675" type="qcurve" smooth="yes"/>
      <point x="-1204" y="675"/>
      <point x="-1088" y="571"/>
      <point x="-1088" y="487" type="qcurve"/>
      <point x="-1200" y="487" type="line"/>
      <point x="-1200" y="536"/>
      <point x="-1253" y="588"/>
      <point x="-1299.0" y="588.0" type="qcurve" smooth="yes" name="inserted"/>
      <point x="-1345" y="588"/>
      <point x="-1396" y="533"/>
      <point x="-1396" y="487" type="qcurve"/>
    </contour>
    <contour>
      <point x="-1343" y="-32" type="line"/>
      <point x="-1343" y="53"/>
      <point x="-1226" y="156"/>
      <point x="-1133" y="156" type="qcurve" smooth="yes"/>
      <point x="-1038" y="156"/>
      <point x="-921" y="53"/>
      <point x="-921" y="-32" type="qcurve"/>
      <point x="-1034" y="-32" type="line"/>
      <point x="-1034" y="17"/>
      <point x="-1087" y="69"/>
      <point x="-1133" y="69" type="qcurve" smooth="yes"/>
      <point x="-1178" y="69"/>
      <point x="-1229" y="16"/>
      <point x="-1229" y="-32" type="qcurve"/>
    </contour>
  </outline>
</glyph>
<glyph name="uni0489" format="2">
  <unicode hex="0489"/>
  <outline>
    <contour>
      <point x="-465" y="-60" type="line"/>
      <point x="-454" y="-74" type="line"/>
      <point x="-576" y="-413" type="line"/>
      <point x="-672" y="-413" type="line"/>
      <point x="-602" y="-60" type="line"/>
    </contour>
    <contour>
      <point x="-660" y="1126" type="line"/>
      <point x="-672" y="1140" type="line"/>
      <point x="-550" y="1478" type="line"/>
      <point x="-454" y="1478" type="line"/>
      <point x="-524" y="1126" type="line"/>
    </contour>
    <contour>
      <point x="17" y="631" type="line"/>
      <point x="30" y="643" type="line"/>
      <point x="363" y="519" type="line"/>
      <point x="363" y="421" type="line"/>
      <point x="17" y="492" type="line"/>
    </contour>
    <contour>
      <point x="-1146" y="433" type="line"/>
      <point x="-1159" y="421" type="line"/>
      <point x="-1492" y="545" type="line"/>
      <point x="-1492" y="643" type="line"/>
      <point x="-1146" y="572" type="line"/>
    </contour>
    <contour>
      <point x="-222" y="1002" type="line"/>
      <point x="-220" y="1018" type="line"/>
      <point x="100" y="1171" type="line"/>
      <point x="168" y="1103" type="line"/>
      <point x="-125" y="903" type="line"/>
    </contour>
    <contour>
      <point x="-906" y="21" type="line"/>
      <point x="-908" y="4" type="line"/>
      <point x="-1228" y="-149" type="line"/>
      <point x="-1297" y="-80" type="line"/>
      <point x="-1003" y="120" type="line"/>
    </contour>
    <contour>
      <point x="-1046" y="860" type="line"/>
      <point x="-1063" y="862" type="line"/>
      <point x="-1211" y="1188" type="line"/>
      <point x="-1146" y="1257" type="line"/>
      <point x="-948" y="958" type="line"/>
    </contour>
    <contour>
      <point x="-84" y="161" type="line"/>
      <point x="-67" y="159" type="line"/>
      <point x="81" y="-166" type="line"/>
      <point x="15" y="-237" type="line"/>
      <point x="-181" y="62" type="line"/>
    </contour>
  </outline>
</glyph>
<glyph name="uni048F" format="2">
  <advance width="1161"/>
  <unicode hex="048F"/>
  <outline>
    <contour>
      <point x="1054" y="529" type="line" smooth="yes"/>
      <point x="1054.0" y="410.0" name="inserted"/>
      <point x="1001.0" y="215.5"/>
      <point x="948" y="140" type="qcurve"/>
      <point x="1059" y="15" type="line"/>
      <point x="949" y="-87" type="line"/>
      <point x="839" y="36" type="line"/>
      <point x="794.5" y="8.0" name="inserted"/>
      <point x="692.5" y="-20.0"/>
      <point x="635" y="-20" type="qcurve" smooth="yes"/>
      <point x="536.5" y="-20.0" name="inserted"/>
      <point x="381.5" y="42.5"/>
      <point x="325" y="105" type="qcurve"/>
      <point x="325" y="-416" type="line"/>
      <point x="140" y="-416" type="line"/>
      <point x="140" y="1082" type="line"/>
      <point x="309" y="1082" type="line"/>
      <point x="318" y="962" type="line"/>
      <point x="374.5" y="1032.0" name="inserted"/>
      <point x="531.5" y="1102.0"/>
      <point x="632" y="1102" type="qcurve" smooth="yes"/>
      <point x="827" y="1102"/>
      <point x="1054" y="808"/>
      <point x="1054" y="546" type="qcurve" smooth="yes"/>
    </contour>
    <contour>
      <point x="869" y="550" type="qcurve" smooth="yes"/>
      <point x="869" y="733"/>
      <point x="713" y="945"/>
      <point x="577" y="945" type="qcurve" smooth="yes"/>
      <point x="493.0" y="945.0" name="inserted"/>
      <point x="367.0" y="870.5"/>
      <point x="325" y="796" type="qcurve"/>
      <point x="325" y="279" type="line"/>
      <point x="366.5" y="205.0" name="inserted"/>
      <point x="493.5" y="131.0"/>
      <point x="579" y="131" type="qcurve" smooth="yes"/>
      <point x="620.0" y="131.0" name="inserted"/>
      <point x="691.0" y="150.5"/>
      <point x="721" y="170" type="qcurve"/>
      <point x="619" y="285" type="line"/>
      <point x="729" y="388" type="line"/>
      <point x="819" y="285" type="line"/>
      <point x="844.0" y="334.0" name="inserted"/>
      <point x="869.0" y="466.5"/>
    </contour>
  </outline>
</glyph>
<glyph name="uni0490" format="2">
  <advance width="1123"/>
  <unicode hex="0490"/>
  <outline>
    <contour>
      <point x="1059" y="1304" type="line"/>
      <point x="1056" y="1304" type="line"/>
      <point x="1056" y="1298" type="line"/>
      <point x="354" y="1298" type="line"/>
      <point x="354" y="0" type="line"/>
      <point x="162" y="0" type="line"/>
      <point x="162" y="1456" type="line"/>
      <point x="874" y="1456" type="line"/>
      <point x="874" y="1792" type="line"/>
      <point x="1059" y="1792" type="line"/>
    </contour>
  </outline>
</glyph>
<glyph name="uni0491" format="2">
  <advance width="912"/>
  <unicode hex="0491"/>
  <outline>
    <contour>
      <point x="834" y="929" type="line"/>
      <point x="331" y="929" type="line"/>
      <point x="331" y="0" type="line"/>
      <point x="145" y="0" type="line"/>
      <point x="145" y="1082" type="line"/>
      <point x="649" y="1082" type="line"/>
      <point x="649" y="1398" type="line"/>
      <point x="834" y="1398" type="line"/>
    </contour>
  </outline>
</glyph>
<glyph name="uni0492" format="2">
  <advance width="1139"/>
  <unicode hex="0492"/>
  <outline>
    <contour>
      <point x="639" y="684" type="line"/>
      <point x="370" y="684" type="line"/>
      <point x="370" y="0" type="line"/>
      <point x="177" y="0" type="line"/>
      <point x="177" y="684" type="line"/>
      <point x="3" y="684" type="line"/>
      <point x="3" y="835" type="line"/>
      <point x="177" y="835" type="line"/>
      <point x="177" y="1456" type="line"/>
      <point x="1072" y="1456" type="line"/>
      <point x="1072" y="1298" type="line"/>
      <point x="370" y="1298" type="line"/>
      <point x="370" y="835" type="line"/>
      <point x="639" y="835" type="line"/>
    </contour>
  </outline>
</glyph>
<glyph name="uni0493" format="2">
  <advance width="859"/>
  <unicode hex="0493"/>
  <outline>
    <contour>
      <point x="632" y="479" type="line"/>
      <point x="340" y="479" type="line"/>
      <point x="340" y="0" type="line"/>
      <point x="154" y="0" type="line"/>
      <point x="154" y="479" type="line"/>
      <point x="-4" y="479" type="line"/>
      <point x="-4" y="630" type="line"/>
      <point x="154" y="630" type="line"/>
      <point x="154" y="1082" type="line"/>
      <point x="839" y="1082" type="line"/>
      <point x="839" y="929" type="line"/>
      <point x="340" y="929" type="line"/>
      <point x="340" y="630" type="line"/>
      <point x="632" y="630" type="line"/>
    </contour>
  </outline>
</glyph>
<glyph name="uni0494" format="2">
  <advance width="1243"/>
  <unicode hex="0494"/>
  <outline>
    <contour>
      <point x="1072" y="1298" type="line"/>
      <point x="370" y="1298" type="line"/>
      <point x="370" y="833" type="line"/>
      <point x="548" y="833" type="line" smooth="yes"/>
      <point x="832" y="833"/>
      <point x="1148" y="528"/>
      <point x="1148" y="256" type="qcurve" smooth="yes"/>
      <point x="1148" y="-8"/>
      <point x="903" y="-289"/>
      <point x="675" y="-289" type="qcurve"/>
      <point x="673" y="-142" type="line"/>
      <point x="818" y="-142"/>
      <point x="962" y="53"/>
      <point x="962" y="256" type="qcurve" smooth="yes"/>
      <point x="961" y="459"/>
      <point x="757" y="671"/>
      <point x="551" y="671" type="qcurve" smooth="yes"/>
      <point x="370" y="671" type="line"/>
      <point x="370" y="0" type="line"/>
      <point x="177" y="0" type="line"/>
      <point x="177" y="1456" type="line"/>
      <point x="1072" y="1456" type="line"/>
    </contour>
  </outline>
</glyph>
<glyph name="uni049E" format="2">
  <advance width="1336"/>
  <unicode hex="049E"/>
  <outline>
    <contour>
      <point x="567" y="654" type="line"/>
      <point x="390" y="654" type="line"/>
      <point x="390" y="0" type="line"/>
      <point x="198" y="0" type="line"/>
      <point x="198" y="1079" type="line"/>
      <point x="-9" y="1079" type="line"/>
      <point x="-9" y="1230" type="line"/>
      <point x="198" y="1230" type="line"/>
      <point x="198" y="1456" type="line"/>
      <point x="390" y="1456" type="line"/>
      <point x="390" y="1230" type="line"/>
      <point x="627" y="1230" type="line"/>
      <point x="627" y="1079" type="line"/>
      <point x="390" y="1079" type="line"/>
      <point x="390" y="814" type="line"/>
      <point x="540" y="814" type="line"/>
      <point x="1049" y="1456" type="line"/>
      <point x="1288" y="1456" type="line"/>
      <point x="732" y="750" type="line"/>
      <point x="1329" y="0" type="line"/>
      <point x="1094" y="0" type="line"/>
    </contour>
  </outline>
</glyph>
<glyph name="uni04A1" format="2">
  <advance width="1411"/>
  <unicode hex="04A1"/>
  <outline>
    <contour>
      <point x="795" y="461" type="line"/>
      <point x="659" y="461" type="line"/>
      <point x="659" y="0" type="line"/>
      <point x="473" y="0" type="line"/>
      <point x="473" y="929" type="line"/>
      <point x="62" y="929" type="line"/>
      <point x="62" y="1082" type="line"/>
      <point x="659" y="1082" type="line"/>
      <point x="659" y="624" type="line"/>
      <point x="781" y="624" type="line"/>
      <point x="1144" y="1082" type="line"/>
      <point x="1369" y="1082" type="line"/>
      <point x="940" y="562" type="line"/>
      <point x="1405" y="0" type="line"/>
      <point x="1170" y="0" type="line"/>
    </contour>
  </outline>
</glyph>
<glyph name="uni04A5" format="2">
  <advance width="1460"/>
  <unicode hex="04A5"/>
  <outline>
    <contour>
      <point x="331" y="613" type="line"/>
      <point x="828" y="613" type="line"/>
      <point x="828" y="1082" type="line"/>
      <point x="1385" y="1082" type="line"/>
      <point x="1385" y="929" type="line"/>
      <point x="1013" y="929" type="line"/>
      <point x="1013" y="0" type="line"/>
      <point x="828" y="0" type="line"/>
      <point x="828" y="462" type="line"/>
      <point x="331" y="462" type="line"/>
      <point x="331" y="0" type="line"/>
      <point x="145" y="0" type="line"/>
      <point x="145" y="1082" type="line"/>
      <point x="331" y="1082" type="line"/>
    </contour>
  </outline>
</glyph>
<glyph name="uni04A6" format="2">
  <advance width="2097"/>
  <unicode hex="04A6"/>
  <outline>
    <contour>
      <point x="1279" y="833" type="line"/>
      <point x="1397" y="833" type="line" smooth="yes"/>
      <point x="1681" y="833"/>
      <point x="1997" y="528"/>
      <point x="1997" y="256" type="qcurve" smooth="yes"/>
      <point x="1997" y="-8"/>
      <point x="1752" y="-289"/>
      <point x="1524" y="-289" type="qcurve"/>
      <point x="1522" y="-142" type="line"/>
      <point x="1667" y="-142"/>
      <point x="1811" y="53"/>
      <point x="1811" y="256" type="qcurve" smooth="yes"/>
      <point x="1810" y="459"/>
      <point x="1606" y="671"/>
      <point x="1400" y="671" type="qcurve" smooth="yes"/>
      <point x="1279" y="671" type="line"/>
      <point x="1279" y="0" type="line"/>
      <point x="1086" y="0" type="line"/>
      <point x="1086" y="1298" type="line"/>
      <point x="368" y="1298" type="line"/>
      <point x="368" y="0" type="line"/>
      <point x="176" y="0" type="line"/>
      <point x="176" y="1456" type="line"/>
      <point x="1279" y="1456" type="line"/>
    </contour>
  </outline>
</glyph>
<glyph name="uni04A7" format="2">
  <advance width="1780"/>
  <unicode hex="04A7"/>
  <outline>
    <contour>
      <point x="1014" y="645" type="line"/>
      <point x="1174" y="645" type="line" smooth="yes"/>
      <point x="1422" y="645"/>
      <point x="1712" y="385"/>
      <point x="1712" y="170" type="qcurve"/>
      <point x="1709" y="132" type="line" smooth="yes"/>
      <point x="1689" y="-31"/>
      <point x="1480" y="-256"/>
      <point x="1327" y="-283" type="qcurve"/>
      <point x="1279" y="-137" type="line"/>
      <point x="1403" y="-105"/>
      <point x="1526" y="45"/>
      <point x="1526" y="170" type="qcurve" smooth="yes"/>
      <point x="1526" y="316"/>
      <point x="1338" y="483"/>
      <point x="1178" y="483" type="qcurve" smooth="yes"/>
      <point x="1014" y="483" type="line"/>
      <point x="1014" y="0" type="line"/>
      <point x="829" y="0" type="line"/>
      <point x="829" y="929" type="line"/>
      <point x="331" y="929" type="line"/>
      <point x="331" y="0" type="line"/>
      <point x="145" y="0" type="line"/>
      <point x="145" y="1082" type="line"/>
      <point x="1014" y="1082" type="line"/>
    </contour>
  </outline>
</glyph>
<glyph name="uni04A8" format="2">
  <advance width="1518"/>
  <unicode hex="04A8"/>
  <outline>
    <contour>
      <point x="1442" y="-28" type="line"/>
      <point x="1334.5" y="-28.0" name="inserted"/>
      <point x="1137.5" y="8.5"/>
      <point x="1048" y="45" type="qcurve"/>
      <point x="977.0" y="12.0" name="inserted"/>
      <point x="820.0" y="-21.0"/>
      <point x="734" y="-21" type="qcurve" smooth="yes"/>
      <point x="556" y="-21"/>
      <point x="272" y="157"/>
      <point x="192.5" y="318.0" type="qcurve" smooth="yes" name="inserted"/>
      <point x="152.75" y="398.5" name="inserted"/>
      <point x="113.0" y="577.0"/>
      <point x="113" y="675" type="qcurve" smooth="yes"/>
      <point x="113" y="847" type="line" smooth="yes"/>
      <point x="113" y="1024"/>
      <point x="230" y="1314"/>
      <point x="335.0" y="1395.5" type="qcurve" smooth="yes" name="inserted"/>
      <point x="387.5" y="1436.25" name="inserted"/>
      <point x="506.0" y="1477.0"/>
      <point x="572" y="1477" type="qcurve"/>
      <point x="573" y="1312" type="line"/>
      <point x="455" y="1312"/>
      <point x="307" y="1058"/>
      <point x="307" y="841" type="qcurve" smooth="yes"/>
      <point x="307" y="675" type="line" smooth="yes"/>
      <point x="307" y="439"/>
      <point x="543" y="142"/>
      <point x="734" y="142" type="qcurve" smooth="yes"/>
      <point x="769.0" y="142.0" name="inserted"/>
      <point x="832.0" y="148.5"/>
      <point x="860" y="155" type="qcurve"/>
      <point x="739" y="252"/>
      <point x="607" y="529"/>
      <point x="607" y="699" type="qcurve" smooth="yes"/>
      <point x="607" y="926" type="line" smooth="yes"/>
      <point x="607" y="1080"/>
      <point x="711" y="1333"/>
      <point x="805.5" y="1403.5" type="qcurve" smooth="yes" name="inserted"/>
      <point x="852.75" y="1438.75" name="inserted"/>
      <point x="959.0" y="1474.0"/>
      <point x="1018" y="1474" type="qcurve" smooth="yes"/>
      <point x="1200" y="1474"/>
      <point x="1430" y="1166"/>
      <point x="1430" y="913" type="qcurve" smooth="yes"/>
      <point x="1430" y="678" type="line" smooth="yes"/>
      <point x="1430" y="520"/>
      <point x="1319" y="254"/>
      <point x="1217" y="159" type="qcurve"/>
      <point x="1269.0" y="146.0" name="inserted"/>
      <point x="1381.5" y="133.0"/>
      <point x="1442" y="133" type="qcurve"/>
    </contour>
    <contour>
      <point x="799" y="697" type="line" smooth="yes"/>
      <point x="799" y="545"/>
      <point x="919" y="308"/>
      <point x="1036" y="234" type="qcurve"/>
      <point x="1134" y="306"/>
      <point x="1238" y="537"/>
      <point x="1238" y="678" type="qcurve" smooth="yes"/>
      <point x="1238" y="927" type="line" smooth="yes"/>
      <point x="1238" y="1104"/>
      <point x="1117" y="1310"/>
      <point x="1018" y="1310" type="qcurve" smooth="yes"/>
      <point x="921" y="1310"/>
      <point x="799" y="1100"/>
      <point x="799" y="922" type="qcurve" smooth="yes"/>
    </contour>
  </outline>
</glyph>
<glyph name="uni04B0" format="2">
  <advance width="1230"/>
  <unicode hex="04B0"/>
  <outline>
    <contour>
      <point x="934" y="521" type="line"/>
      <point x="709" y="521" type="line"/>
      <point x="709" y="0" type="line"/>
      <point x="517" y="0" type="line"/>
      <point x="517" y="521" type="line"/>
      <point x="298" y="521" type="line"/>
      <point x="298" y="672" type="line"/>
      <point x="446" y="672" type="line"/>
      <point x="15" y="1456" type="line"/>
      <point x="235" y="1456" type="line"/>
      <point x="613" y="725" type="line"/>
      <point x="993" y="1456" type="line"/>
      <point x="1211" y="1456" type="line"/>
      <point x="780" y="672" type="line"/>
      <point x="934" y="672" type="line"/>
    </contour>
  </outline>
</glyph>
<glyph name="uni04B4" format="2">
  <advance width="1836"/>
  <unicode hex="04B4"/>
  <outline>
    <contour>
      <point x="427" y="1304" type="line"/>
      <point x="52" y="1304" type="line"/>
      <point x="52" y="1455" type="line"/>
      <point x="427" y="1455" type="line"/>
      <point x="427" y="1456" type="line"/>
      <point x="620" y="1456" type="line"/>
      <point x="620" y="1455" type="line"/>
      <point x="1005" y="1455" type="line"/>
      <point x="1005" y="1304" type="line"/>
      <point x="620" y="1304" type="line"/>
      <point x="620" y="157" type="line"/>
      <point x="1338" y="157" type="line"/>
      <point x="1338" y="1456" type="line"/>
      <point x="1531" y="1456" type="line"/>
      <point x="1531" y="161" type="line"/>
      <point x="1683" y="161" type="line"/>
      <point x="1665" y="-351" type="line"/>
      <point x="1493" y="-351" type="line"/>
      <point x="1493" y="0" type="line"/>
      <point x="427" y="0" type="line"/>
    </contour>
  </outline>
</glyph>
<glyph name="uni04E0" format="2">
  <advance width="1192"/>
  <unicode hex="04E0"/>
  <outline>
    <contour>
      <point x="797" y="1298" type="line"/>
      <point x="147" y="1298" type="line"/>
      <point x="147" y="1456" type="line"/>
      <point x="1022" y="1456" type="line"/>
      <point x="1023" y="1331" type="line"/>
      <point x="618" y="849" type="line"/>
      <point x="835" y="835"/>
      <point x="1068" y="604"/>
      <point x="1068" y="406" type="qcurve" smooth="yes"/>
      <point x="1068" y="211"/>
      <point x="799" y="-21"/>
      <point x="575" y="-21" type="qcurve" smooth="yes"/>
      <point x="441" y="-21"/>
      <point x="222" y="84"/>
      <point x="163.0" y="179.0" type="qcurve" smooth="yes" name="inserted"/>
      <point x="133.5" y="226.5" name="inserted"/>
      <point x="104.0" y="339.0"/>
      <point x="104" y="404" type="qcurve"/>
      <point x="296" y="404" type="line"/>
      <point x="296" y="290"/>
      <point x="452" y="136"/>
      <point x="575" y="136" type="qcurve" smooth="yes"/>
      <point x="712" y="136"/>
      <point x="875" y="282"/>
      <point x="875" y="402" type="qcurve" smooth="yes"/>
      <point x="875" y="559"/>
      <point x="709" y="701"/>
      <point x="551" y="701" type="qcurve" smooth="yes"/>
      <point x="410" y="701" type="line"/>
      <point x="410" y="852" type="line"/>
    </contour>
  </outline>
</glyph>
<glyph name="uni0500" format="2">
  <advance width="1270"/>
  <unicode hex="0500"/>
  <outline>
    <contour>
      <point x="931" y="883" type="line"/>
      <point x="931" y="1456" type="line"/>
      <point x="1125" y="1456" type="line"/>
      <point x="1125" y="0" type="line"/>
      <point x="580" y="0" type="line" smooth="yes"/>
      <point x="352" y="0"/>
      <point x="87" y="242"/>
      <point x="87" y="445" type="qcurve" smooth="yes"/>
      <point x="87" y="644"/>
      <point x="342" y="879"/>
      <point x="566" y="883" type="qcurve" smooth="yes"/>
    </contour>
    <contour>
      <point x="931" y="157" type="line"/>
      <point x="931" y="725" type="line"/>
      <point x="580" y="725" type="line" smooth="yes"/>
      <point x="440" y="725"/>
      <point x="279" y="575"/>
      <point x="279" y="447" type="qcurve" smooth="yes"/>
      <point x="279" y="317"/>
      <point x="438" y="158"/>
      <point x="576" y="157" type="qcurve" smooth="yes"/>
    </contour>
  </outline>
</glyph>
<glyph name="uni0504" format="2">
  <advance width="1622"/>
  <unicode hex="0504"/>
  <outline>
    <contour>
      <point x="254" y="633" type="line"/>
      <point x="254" y="791" type="line"/>
      <point x="409" y="791" type="line" smooth="yes"/>
      <point x="568" y="793"/>
      <point x="715" y="916"/>
      <point x="715" y="1047" type="qcurve" smooth="yes"/>
      <point x="715.0" y="1172.5" name="inserted"/>
      <point x="560.5" y="1298.0"/>
      <point x="406" y="1298" type="qcurve" smooth="yes"/>
      <point x="54" y="1298" type="line"/>
      <point x="54" y="1456" type="line"/>
      <point x="417" y="1456" type="line" smooth="yes"/>
      <point x="656" y="1455"/>
      <point x="908" y="1246"/>
      <point x="908" y="1045" type="qcurve" smooth="yes"/>
      <point x="908.0" y="929.0" name="inserted"/>
      <point x="789.5" y="764.0"/>
      <point x="671" y="715" type="qcurve"/>
      <point x="780.5" y="680.5" name="inserted"/>
      <point x="892.5" y="516.0"/>
      <point x="895" y="386" type="qcurve" smooth="yes"/>
      <point x="895" y="306" type="line" smooth="yes"/>
      <point x="895" y="227"/>
      <point x="978" y="136"/>
      <point x="1043" y="136" type="qcurve" smooth="yes"/>
      <point x="1159" y="138"/>
      <point x="1293" y="344"/>
      <point x="1297" y="529" type="qcurve" smooth="yes"/>
      <point x="1299.0" y="622.5" name="inserted"/>
      <point x="1268.5" y="824.0"/>
      <point x="1236" y="932" type="qcurve"/>
      <point x="1422" y="932" type="line"/>
      <point x="1445" y="844" type="line" smooth="yes"/>
      <point x="1469.0" y="750.5" name="inserted"/>
      <point x="1491.5" y="593.0"/>
      <point x="1490" y="529" type="qcurve" smooth="yes"/>
      <point x="1486" y="276"/>
      <point x="1240" y="-21"/>
      <point x="1041" y="-21" type="qcurve" smooth="yes"/>
      <point x="879.5" y="-25.0" name="inserted"/>
      <point x="710.5" y="137.5"/>
      <point x="703" y="304" type="qcurve" smooth="yes"/>
      <point x="703" y="368" type="line" smooth="yes"/>
      <point x="703" y="488"/>
      <point x="568" y="632"/>
      <point x="451" y="633" type="qcurve" smooth="yes"/>
    </contour>
  </outline>
</glyph>
<glyph name="uni0509" format="2">
  <advance width="1653"/>
  <unicode hex="0509"/>
  <outline>
    <contour>
      <point x="817" y="929" type="line"/>
      <point x="492" y="929" type="line"/>
      <point x="469" y="507" type="line" smooth="yes"/>
      <point x="449" y="230"/>
      <point x="293" y="2"/>
      <point x="128" y="0" type="qcurve" smooth="yes"/>
      <point x="63" y="0" type="line"/>
      <point x="63" y="163" type="line"/>
      <point x="117" y="167" type="line" smooth="yes"/>
      <point x="202" y="177"/>
      <point x="279" y="344"/>
      <point x="292" y="555" type="qcurve" smooth="yes"/>
      <point x="315" y="1082" type="line"/>
      <point x="1002" y="1082" type="line"/>
      <point x="1002" y="347" type="line" smooth="yes"/>
      <point x="1002" y="251"/>
      <point x="1092" y="130"/>
      <point x="1171" y="130" type="qcurve" smooth="yes"/>
      <point x="1279" y="130"/>
      <point x="1402" y="313"/>
      <point x="1406" y="484" type="qcurve" smooth="yes"/>
      <point x="1408.0" y="573.0" name="inserted"/>
      <point x="1377.5" y="763.5"/>
      <point x="1345" y="865" type="qcurve"/>
      <point x="1524" y="865" type="line"/>
      <point x="1546" y="785" type="line" smooth="yes"/>
      <point x="1570.0" y="696.5" name="inserted"/>
      <point x="1592.5" y="546.0"/>
      <point x="1591" y="484" type="qcurve" smooth="yes"/>
      <point x="1589" y="330"/>
      <point x="1481" y="100"/>
      <point x="1386.0" y="39.5" type="qcurve" smooth="yes" name="inserted"/>
      <point x="1338.5" y="9.25" name="inserted"/>
      <point x="1231.0" y="-21.0"/>
      <point x="1171" y="-21" type="qcurve" smooth="yes"/>
      <point x="997" y="-21"/>
      <point x="818" y="163"/>
      <point x="817" y="340" type="qcurve" smooth="yes"/>
    </contour>
  </outline>
</glyph>
<glyph name="uni050F" format="2">
  <advance width="1312"/>
  <unicode hex="050F"/>
  <outline>
    <contour>
      <point x="428" y="932" type="line"/>
      <point x="70" y="932" type="line"/>
      <point x="70" y="1082" type="line"/>
      <point x="977" y="1082" type="line"/>
      <point x="977" y="932" type="line"/>
      <point x="614" y="932" type="line"/>
      <point x="614" y="345" type="line" smooth="yes"/>
      <point x="614" y="246"/>
      <point x="708" y="130"/>
      <point x="785" y="130" type="qcurve" smooth="yes"/>
      <point x="898" y="132"/>
      <point x="1017" y="289"/>
      <point x="1020" y="426" type="qcurve" smooth="yes"/>
      <point x="1022.0" y="501.5" name="inserted"/>
      <point x="992.0" y="664.0"/>
      <point x="960" y="751" type="qcurve"/>
      <point x="1138" y="751" type="line"/>
      <point x="1180" y="626"/>
      <point x="1207" y="486"/>
      <point x="1206" y="426" type="qcurve" smooth="yes"/>
      <point x="1202" y="218"/>
      <point x="970" y="-21"/>
      <point x="785" y="-21" type="qcurve" smooth="yes"/>
      <point x="615" y="-25"/>
      <point x="436" y="160"/>
      <point x="428" y="345" type="qcurve" smooth="yes"/>
    </contour>
  </outline>
</glyph>
<glyph name="quotereversed" format="2">
  <advance width="409"/>
  <unicode hex="201B"/>
  <outline>
    <contour>
      <point x="262" y="1536" type="line"/>
      <point x="262" y="1389" type="line" smooth="yes"/>
      <point x="264.0" y="1317.0" name="inserted"/>
      <point x="312.5" y="1181.5"/>
      <point x="359" y="1118" type="qcurve"/>
      <point x="253" y="1046" type="line"/>
      <point x="176" y="1110"/>
      <point x="81" y="1304"/>
      <point x="79" y="1401" type="qcurve" smooth="yes"/>
      <point x="79" y="1536" type="line"/>
    </contour>
  </outline>
</glyph>
<glyph name="bullet" format="2">
  <advance width="690"/>
  <unicode hex="2022"/>
  <outline>
    <contour>
      <point x="138" y="772" type="line" smooth="yes"/>
      <point x="138" y="859"/>
      <point x="249" y="971"/>
      <point x="341" y="971" type="qcurve" smooth="yes"/>
      <point x="432" y="971"/>
      <point x="546" y="862"/>
      <point x="546" y="769" type="qcurve" smooth="yes"/>
      <point x="546" y="732" type="line" smooth="yes"/>
      <point x="546" y="645"/>
      <point x="436" y="535"/>
      <point x="342" y="535" type="qcurve" smooth="yes"/>
      <point x="249" y="535"/>
      <point x="138" y="646"/>
      <point x="138" y="734" type="qcurve" smooth="yes"/>
    </contour>
  </outline>
</glyph>
<glyph name="uni2027" format="2">
  <advance width="382"/>
  <unicode hex="2027"/>
  <outline>
    <contour>
      <point x="82" y="619" type="qcurve" smooth="yes"/>
      <point x="82" y="664"/>
      <point x="136" y="725"/>
      <point x="190" y="725" type="qcurve" smooth="yes"/>
      <point x="244" y="725"/>
      <point x="300" y="664"/>
      <point x="300" y="619" type="qcurve" smooth="yes"/>
      <point x="300" y="574"/>
      <point x="244" y="514"/>
      <point x="190" y="514" type="qcurve" smooth="yes"/>
      <point x="136" y="514"/>
      <point x="82" y="574"/>
    </contour>
  </outline>
</glyph>
<glyph name="perthousand" format="2">
  <advance width="1962"/>
  <unicode hex="2030"/>
  <outline>
    <contour>
      <point x="823" y="357" type="line" smooth="yes"/>
      <point x="823" y="488"/>
      <point x="990" y="657"/>
      <point x="1121" y="657" type="qcurve" smooth="yes"/>
      <point x="1197.0" y="657.0" name="inserted"/>
      <point x="1311.5" y="596.5"/>
      <point x="1350" y="536" type="qcurve"/>
      <point x="1389.5" y="596.5" name="inserted"/>
      <point x="1504.5" y="657.0"/>
      <point x="1580" y="657" type="qcurve" smooth="yes"/>
      <point x="1711" y="657"/>
      <point x="1879" y="489"/>
      <point x="1879" y="350" type="qcurve" smooth="yes"/>
      <point x="1879" y="279" type="line" smooth="yes"/>
      <point x="1879" y="148"/>
      <point x="1712" y="-21"/>
      <point x="1582" y="-21" type="qcurve" smooth="yes"/>
      <point x="1505.5" y="-21.0" name="inserted"/>
      <point x="1389.5" y="39.0"/>
      <point x="1350" y="99" type="qcurve"/>
      <point x="1312.0" y="39.0" name="inserted"/>
      <point x="1198.5" y="-21.0"/>
      <point x="1123" y="-21" type="qcurve" smooth="yes"/>
      <point x="993" y="-21"/>
      <point x="823" y="146"/>
      <point x="823" y="285" type="qcurve" smooth="yes"/>
    </contour>
    <contour>
      <point x="68" y="1176" type="line" smooth="yes"/>
      <point x="68" y="1307"/>
      <point x="235" y="1477"/>
      <point x="366" y="1477" type="qcurve" smooth="yes"/>
      <point x="498" y="1477"/>
      <point x="665" y="1307"/>
      <point x="665" y="1171" type="qcurve" smooth="yes"/>
      <point x="665" y="1099" type="line" smooth="yes"/>
      <point x="665" y="970"/>
      <point x="500" y="800"/>
      <point x="368" y="800" type="qcurve" smooth="yes"/>
      <point x="238" y="800"/>
      <point x="68" y="967"/>
      <point x="68" y="1106" type="qcurve" smooth="yes"/>
    </contour>
    <contour>
      <point x="429" y="110" type="line"/>
      <point x="325" y="176" type="line"/>
      <point x="1036" y="1314" type="line"/>
      <point x="1140" y="1248" type="line"/>
    </contour>
    <contour>
      <point x="961" y="279" type="line" smooth="yes"/>
      <point x="961" y="200"/>
      <point x="1049" y="99"/>
      <point x="1123" y="99" type="qcurve" smooth="yes"/>
      <point x="1195" y="99"/>
      <point x="1281" y="198"/>
      <point x="1281" y="283" type="qcurve" smooth="yes"/>
      <point x="1281" y="357" type="line" smooth="yes"/>
      <point x="1281" y="436"/>
      <point x="1194" y="536"/>
      <point x="1121" y="536" type="qcurve" smooth="yes"/>
      <point x="1050" y="536"/>
      <point x="961" y="437"/>
      <point x="961" y="353" type="qcurve" smooth="yes"/>
    </contour>
    <contour>
      <point x="1420" y="279" type="line" smooth="yes"/>
      <point x="1420" y="200"/>
      <point x="1508" y="99"/>
      <point x="1581" y="99" type="qcurve" smooth="yes"/>
      <point x="1653" y="99"/>
      <point x="1739" y="201"/>
      <point x="1739" y="283" type="qcurve" smooth="yes"/>
      <point x="1739" y="357" type="line" smooth="yes"/>
      <point x="1739" y="436"/>
      <point x="1652" y="536"/>
      <point x="1579" y="536" type="qcurve" smooth="yes"/>
      <point x="1507" y="536"/>
      <point x="1420" y="436"/>
      <point x="1420" y="353" type="qcurve" smooth="yes"/>
    </contour>
    <contour>
      <point x="206" y="1099" type="line" smooth="yes"/>
      <point x="206" y="1021"/>
      <point x="294" y="920"/>
      <point x="368" y="920" type="qcurve" smooth="yes"/>
      <point x="439" y="920"/>
      <point x="526" y="1018"/>
      <point x="526" y="1103" type="qcurve" smooth="yes"/>
      <point x="526" y="1176" type="line" smooth="yes"/>
      <point x="526" y="1254"/>
      <point x="440" y="1356"/>
      <point x="366" y="1356" type="qcurve" smooth="yes"/>
      <point x="294" y="1356"/>
      <point x="206" y="1255"/>
      <point x="206" y="1172" type="qcurve" smooth="yes"/>
    </contour>
  </outline>
</glyph>
<glyph name="lira" format="2">
  <advance width="1190"/>
  <unicode hex="20A4"/>
  <outline>
    <contour>
      <point x="789" y="470" type="line"/>
      <point x="454" y="470" type="line"/>
      <point x="457" y="402" type="line" smooth="yes"/>
      <point x="457.0" y="325.0" name="inserted"/>
      <point x="426.0" y="202.5"/>
      <point x="395" y="157" type="qcurve"/>
      <point x="1128" y="157" type="line"/>
      <point x="1127" y="0" type="line"/>
      <point x="95" y="0" type="line"/>
      <point x="95" y="157" type="line"/>
      <point x="172" y="157" type="line"/>
      <point x="212" y="166"/>
      <point x="262" y="297"/>
      <point x="264" y="393" type="qcurve" smooth="yes"/>
      <point x="264" y="401" type="line"/>
      <point x="261" y="470" type="line"/>
      <point x="91" y="470" type="line"/>
      <point x="91" y="595" type="line"/>
      <point x="257" y="595" type="line"/>
      <point x="253" y="731" type="line"/>
      <point x="91" y="731" type="line"/>
      <point x="91" y="856" type="line"/>
      <point x="248" y="856" type="line"/>
      <point x="242" y="1039" type="line" smooth="yes"/>
      <point x="242" y="1238"/>
      <point x="487" y="1476"/>
      <point x="687" y="1476" type="qcurve" smooth="yes"/>
      <point x="877" y="1476"/>
      <point x="1099" y="1264"/>
      <point x="1099" y="1087" type="qcurve"/>
      <point x="908" y="1087" type="line"/>
      <point x="908" y="1194"/>
      <point x="781" y="1318"/>
      <point x="670" y="1318" type="qcurve" smooth="yes"/>
      <point x="565" y="1318"/>
      <point x="435" y="1164"/>
      <point x="435" y="1039" type="qcurve" smooth="yes"/>
      <point x="441" y="856" type="line"/>
      <point x="789" y="856" type="line"/>
      <point x="789" y="731" type="line"/>
      <point x="446" y="731" type="line"/>
      <point x="450" y="595" type="line"/>
      <point x="789" y="595" type="line"/>
    </contour>
  </outline>
</glyph>
<glyph name="Euro" format="2">
  <advance width="1150"/>
  <unicode hex="20AC"/>
  <outline>
    <contour>
      <point x="849" y="541" type="line"/>
      <point x="465" y="541" type="line"/>
      <point x="469" y="346"/>
      <point x="649" y="136"/>
      <point x="814" y="136" type="qcurve" smooth="yes"/>
      <point x="872.0" y="136.0" name="inserted"/>
      <point x="981.0" y="153.0"/>
      <point x="1032" y="170" type="qcurve"/>
      <point x="1052" y="10" type="line"/>
      <point x="992.0" y="-5.0" name="inserted"/>
      <point x="872.0" y="-20.0"/>
      <point x="812" y="-20" type="qcurve" smooth="yes"/>
      <point x="564" y="-20"/>
      <point x="279" y="273"/>
      <point x="273" y="541" type="qcurve"/>
      <point x="95" y="541" type="line"/>
      <point x="95" y="665" type="line"/>
      <point x="273" y="665" type="line"/>
      <point x="273" y="802" type="line"/>
      <point x="95" y="802" type="line"/>
      <point x="95" y="927" type="line"/>
      <point x="273" y="927" type="line"/>
      <point x="283" y="1189"/>
      <point x="568" y="1476"/>
      <point x="811" y="1476" type="qcurve" smooth="yes"/>
      <point x="864.0" y="1476.0" name="inserted"/>
      <point x="984.5" y="1460.5"/>
      <point x="1052" y="1445" type="qcurve"/>
      <point x="1032" y="1283" type="line"/>
      <point x="977.5" y="1300.5" name="inserted"/>
      <point x="868.0" y="1318.0"/>
      <point x="813" y="1318" type="qcurve" smooth="yes"/>
      <point x="649" y="1318"/>
      <point x="472" y="1115"/>
      <point x="466" y="927" type="qcurve"/>
      <point x="849" y="927" type="line"/>
      <point x="849" y="802" type="line"/>
      <point x="465" y="802" type="line"/>
      <point x="465" y="665" type="line"/>
      <point x="849" y="665" type="line"/>
    </contour>
  </outline>
</glyph>
<glyph name="uni03A9" format="2">
  <advance width="1362"/>
  <unicode hex="2126"/>
  <unicode hex="03A9"/>
  <outline>
    <contour>
      <point x="737" y="162" type="line"/>
      <point x="875" y="189"/>
      <point x="1029" y="473"/>
      <point x="1032" y="707" type="qcurve" smooth="yes"/>
      <point x="1032" y="841" type="line" smooth="yes"/>
      <point x="1032" y="1072"/>
      <point x="838" y="1318"/>
      <point x="669.0" y="1318.0" type="qcurve" smooth="yes" name="inserted"/>
      <point x="500" y="1318"/>
      <point x="308" y="1068"/>
      <point x="308" y="839" type="qcurve" smooth="yes"/>
      <point x="308" y="726" type="line" smooth="yes"/>
      <point x="308" y="486"/>
      <point x="465" y="190"/>
      <point x="610" y="162" type="qcurve"/>
      <point x="610" y="0" type="line"/>
      <point x="118" y="0" type="line"/>
      <point x="118" y="157" type="line"/>
      <point x="339" y="157" type="line"/>
      <point x="233" y="259"/>
      <point x="113" y="566"/>
      <point x="113" y="728" type="qcurve" smooth="yes"/>
      <point x="113" y="839" type="line" smooth="yes"/>
      <point x="113" y="1025"/>
      <point x="254" y="1317"/>
      <point x="381.0" y="1396.5" type="qcurve" smooth="yes" name="inserted"/>
      <point x="444.5" y="1436.25" name="inserted"/>
      <point x="588.5" y="1476.0"/>
      <point x="669" y="1476" type="qcurve" smooth="yes"/>
      <point x="829" y="1476"/>
      <point x="1082" y="1320"/>
      <point x="1153.0" y="1178.0" type="qcurve" smooth="yes" name="inserted"/>
      <point x="1188.5" y="1107.0" name="inserted"/>
      <point x="1225.5" y="946.0"/>
      <point x="1227" y="856" type="qcurve" smooth="yes"/>
      <point x="1227" y="726" type="line" smooth="yes"/>
      <point x="1227" y="566"/>
      <point x="1107" y="259"/>
      <point x="1001" y="157" type="qcurve"/>
      <point x="1221" y="157" type="line"/>
      <point x="1221" y="0" type="line"/>
      <point x="737" y="0" type="line"/>
    </contour>
  </outline>
</glyph>
<glyph name="summation" format="2">
  <advance width="1199"/>
  <unicode hex="2211"/>
  <outline>
    <contour>
      <point x="875" y="577" type="line"/>
      <point x="294" y="-117" type="line"/>
      <point x="1195" y="-117" type="line"/>
      <point x="1195" y="-269" type="line"/>
      <point x="69" y="-269" type="line"/>
      <point x="69" y="-126" type="line"/>
      <point x="678" y="590" type="line"/>
      <point x="69" y="1312" type="line"/>
      <point x="69" y="1456" type="line"/>
      <point x="1118" y="1456" type="line"/>
      <point x="1118" y="1304" type="line"/>
      <point x="293" y="1304" type="line"/>
      <point x="875" y="602" type="line"/>
    </contour>
  </outline>
</glyph>
<glyph name="infinity" format="2">
  <advance width="2106"/>
  <unicode hex="221E"/>
  <outline>
    <contour>
      <point x="1995" y="527" type="line" smooth="yes"/>
      <point x="1995" y="380"/>
      <point x="1869" y="124"/>
      <point x="1757.5" y="51.5" type="qcurve" smooth="yes" name="inserted"/>
      <point x="1701.75" y="15.25" name="inserted"/>
      <point x="1577.5" y="-21.0"/>
      <point x="1509" y="-21" type="qcurve" smooth="yes"/>
      <point x="1364" y="-21"/>
      <point x="1126" y="163"/>
      <point x="1046" y="340" type="qcurve"/>
      <point x="965" y="161"/>
      <point x="729" y="-21"/>
      <point x="585" y="-21" type="qcurve" smooth="yes"/>
      <point x="448" y="-21"/>
      <point x="226" y="122"/>
      <point x="162.0" y="250.0" type="qcurve" smooth="yes" name="inserted"/>
      <point x="130.0" y="314.0" name="inserted"/>
      <point x="98.0" y="453.5"/>
      <point x="98" y="529" type="qcurve" smooth="yes"/>
      <point x="98" y="553" type="line" smooth="yes"/>
      <point x="98" y="700"/>
      <point x="224" y="956"/>
      <point x="335.5" y="1029.0" type="qcurve" smooth="yes" name="inserted"/>
      <point x="391.25" y="1065.5" name="inserted"/>
      <point x="515.0" y="1102.0"/>
      <point x="583" y="1102" type="qcurve" smooth="yes"/>
      <point x="728" y="1102"/>
      <point x="965" y="919"/>
      <point x="1046" y="740" type="qcurve"/>
      <point x="1126" y="917"/>
      <point x="1365" y="1102"/>
      <point x="1511" y="1102" type="qcurve" smooth="yes"/>
      <point x="1717" y="1102"/>
      <point x="1995" y="783"/>
      <point x="1995" y="540" type="qcurve" smooth="yes"/>
    </contour>
    <contour>
      <point x="283" y="527" type="line" smooth="yes"/>
      <point x="283" y="350"/>
      <point x="449" y="130"/>
      <point x="585" y="130" type="qcurve" smooth="yes"/>
      <point x="699" y="130"/>
      <point x="884" y="318"/>
      <point x="936" y="481" type="qcurve" smooth="yes"/>
      <point x="947" y="520" type="line"/>
      <point x="947" y="562" type="line"/>
      <point x="923" y="661"/>
      <point x="809" y="853"/>
      <point x="736.0" y="901.5" type="qcurve" smooth="yes" name="inserted"/>
      <point x="699.5" y="925.75" name="inserted"/>
      <point x="623.0" y="950.0"/>
      <point x="583" y="950" type="qcurve" smooth="yes"/>
      <point x="449" y="950"/>
      <point x="283" y="730"/>
      <point x="283" y="545" type="qcurve" smooth="yes"/>
    </contour>
    <contour>
      <point x="1810" y="553" type="line" smooth="yes"/>
      <point x="1810" y="727"/>
      <point x="1644" y="950"/>
      <point x="1511" y="950" type="qcurve" smooth="yes"/>
      <point x="1396" y="950"/>
      <point x="1208" y="761"/>
      <point x="1155" y="593" type="qcurve" smooth="yes"/>
      <point x="1146" y="562" type="line"/>
      <point x="1146" y="520" type="line"/>
      <point x="1168" y="423"/>
      <point x="1285" y="226"/>
      <point x="1357.0" y="178.0" type="qcurve" smooth="yes" name="inserted"/>
      <point x="1393.0" y="154.0" name="inserted"/>
      <point x="1469.0" y="130.0"/>
      <point x="1509" y="130" type="qcurve" smooth="yes"/>
      <point x="1645" y="130"/>
      <point x="1810" y="352"/>
      <point x="1810" y="536" type="qcurve" smooth="yes"/>
    </contour>
  </outline>
</glyph>
<glyph name="uniF6C3" format="2">
  <advance width="515"/>
  <unicode hex="F6C3"/>
  <outline>
    <contour>
      <point x="197" y="-161" type="qcurve"/>
      <point x="92" y="-89" type="line"/>
      <point x="128.0" y="-34.5" name="inserted"/>
      <point x="165.0" y="83.5"/>
      <point x="166" y="147" type="qcurve" smooth="yes"/>
      <point x="166" y="239" type="line"/>
      <point x="343" y="239" type="line"/>
      <point x="343" y="163" type="line" smooth="yes"/>
      <point x="343" y="72"/>
      <point x="264" y="-107"/>
    </contour>
  </outline>
</glyph>
<glyph name="uniFB01" format="2">
  <advance width="1134"/>
  <unicode hex="FB01"/>
  <outline>
    <contour>
      <point x="202" y="0" type="line"/>
      <point x="202" y="939" type="line"/>
      <point x="31" y="939" type="line"/>
      <point x="31" y="1082" type="line"/>
      <point x="202" y="1082" type="line"/>
      <point x="202" y="1174" type="line" smooth="yes"/>
      <point x="202" y="1355"/>
      <point x="409" y="1557"/>
      <point x="598" y="1557" type="qcurve" smooth="yes"/>
      <point x="654.0" y="1557.0" name="inserted"/>
      <point x="795.5" y="1526.5"/>
      <point x="881" y="1496" type="qcurve"/>
      <point x="850" y="1340" type="line"/>
      <point x="787.5" y="1365.0" name="inserted"/>
      <point x="668.5" y="1390.0"/>
      <point x="612" y="1390" type="qcurve" smooth="yes"/>
      <point x="493" y="1390"/>
      <point x="388" y="1283"/>
      <point x="388" y="1176" type="qcurve" smooth="yes"/>
      <point x="388" y="1082" type="line"/>
      <point x="609" y="1082" type="line"/>
      <point x="609" y="939" type="line"/>
      <point x="388" y="939" type="line"/>
      <point x="388" y="0" type="line"/>
    </contour>
    <contour>
      <point x="973" y="0" type="line"/>
      <point x="787" y="0" type="line"/>
      <point x="787" y="1082" type="line"/>
      <point x="973" y="1082" type="line"/>
    </contour>
  </outline>
</glyph>
<glyph name="uniFB02" format="2">
  <advance width="1163"/>
  <unicode hex="FB02"/>
  <outline>
    <contour>
      <point x="816" y="1379" type="line"/>
      <point x="754.0" y="1389.0" name="inserted"/>
      <point x="654.0" y="1399.0"/>
      <point x="616" y="1399" type="qcurve" smooth="yes"/>
      <point x="516.0" y="1399.0" name="inserted"/>
      <point x="416.0" y="1294.0"/>
      <point x="416" y="1189" type="qcurve" smooth="yes"/>
      <point x="416" y="1082" type="line"/>
      <point x="647" y="1082" type="line"/>
      <point x="647" y="939" type="line"/>
      <point x="416" y="939" type="line"/>
      <point x="416" y="0" type="line"/>
      <point x="231" y="0" type="line"/>
      <point x="231" y="939" type="line"/>
      <point x="60" y="939" type="line"/>
      <point x="60" y="1082" type="line"/>
      <point x="231" y="1082" type="line"/>
      <point x="231" y="1200" type="line" smooth="yes"/>
      <point x="232" y="1373"/>
      <point x="424" y="1557"/>
      <point x="601" y="1557" type="qcurve" smooth="yes"/>
      <point x="651.5" y="1557.0" name="inserted"/>
      <point x="851.5" y="1526.5"/>
      <point x="1001" y="1496" type="qcurve"/>
      <point x="1001" y="0" type="line"/>
      <point x="816" y="0" type="line"/>
    </contour>
  </outline>
</glyph>
<glyph name="uniFB04" format="2">
  <advance width="1748"/>
  <unicode hex="FB04"/>
  <outline>
    <contour>
      <point x="231" y="0" type="line"/>
      <point x="231" y="939" type="line"/>
      <point x="60" y="939" type="line"/>
      <point x="60" y="1082" type="line"/>
      <point x="231" y="1082" type="line"/>
      <point x="231" y="1193" type="line" smooth="yes"/>
      <point x="231" y="1367"/>
      <point x="417" y="1557"/>
      <point x="587" y="1557" type="qcurve" smooth="yes"/>
      <point x="619.0" y="1557.0" name="inserted"/>
      <point x="682.5" y="1548.5"/>
      <point x="714" y="1540" type="qcurve"/>
      <point x="704" y="1390" type="line"/>
      <point x="680.5" y="1394.5" name="inserted"/>
      <point x="630.5" y="1399.0"/>
      <point x="604" y="1399" type="qcurve" smooth="yes"/>
      <point x="514" y="1399"/>
      <point x="416" y="1294"/>
      <point x="416" y="1196" type="qcurve" smooth="yes"/>
      <point x="416" y="1082" type="line"/>
      <point x="816" y="1082" type="line"/>
      <point x="816" y="1200" type="line" smooth="yes"/>
      <point x="817" y="1373"/>
      <point x="1009" y="1557"/>
      <point x="1186" y="1557" type="qcurve" smooth="yes"/>
      <point x="1236.5" y="1557.0" name="inserted"/>
      <point x="1436.5" y="1526.5"/>
      <point x="1586" y="1496" type="qcurve"/>
      <point x="1586" y="0" type="line"/>
      <point x="1401" y="0" type="line"/>
      <point x="1401" y="1379" type="line"/>
      <point x="1339.0" y="1389.0" name="inserted"/>
      <point x="1239.0" y="1399.0"/>
      <point x="1201" y="1399" type="qcurve" smooth="yes"/>
      <point x="1101.0" y="1399.0" name="inserted"/>
      <point x="1001.0" y="1294.0"/>
      <point x="1001" y="1189" type="qcurve" smooth="yes"/>
      <point x="1001" y="1082" type="line"/>
      <point x="1232" y="1082" type="line"/>
      <point x="1232" y="939" type="line"/>
      <point x="1001" y="939" type="line"/>
      <point x="1001" y="0" type="line"/>
      <point x="816" y="0" type="line"/>
      <point x="816" y="939" type="line"/>
      <point x="416" y="939" type="line"/>
      <point x="416" y="0" type="line"/>
    </contour>
  </outline>
</glyph>
<glyph name=".notdef" format="2">
  <advance width="908"/>
  <outline>
    <contour>
      <point x="808" y="0" type="line"/>
      <point x="100" y="0" type="line"/>
      <point x="100" y="1456" type="line"/>
      <point x="808" y="1456" type="line"/>
    </contour>
    <contour>
      <point x="754" y="84" type="line"/>
      <point x="754" y="1371" type="line"/>
      <point x="480" y="728" type="line"/>
    </contour>
    <contour>
      <point x="154" y="1359" type="line"/>
      <point x="154" y="96" type="line"/>
      <point x="422" y="728" type="line"/>
    </contour>
    <contour>
      <point x="194" y="54" type="line"/>
      <point x="709" y="54" type="line"/>
      <point x="451" y="660" type="line"/>
    </contour>
    <contour>
      <point x="451" y="796" type="line"/>
      <point x="709" y="1402" type="line"/>
      <point x="194" y="1402" type="line"/>
    </contour>
  </outline>
</glyph>
<glyph name="glyph00369" format="2">
  <advance width="800"/>
  <outline>
    <contour>
      <point x="401" y="1172" type="line"/>
      <point x="517" y="1494" type="line"/>
      <point x="713" y="1494" type="line"/>
      <point x="713" y="1473" type="line"/>
      <point x="490" y="1156" type="line"/>
      <point x="401" y="1156" type="line"/>
    </contour>
    <contour>
      <point x="111" y="1494" type="line"/>
      <point x="279" y="1494" type="line"/>
      <point x="279" y="1403" type="line" smooth="yes"/>
      <point x="280.5" y="1341.5" name="inserted"/>
      <point x="322.0" y="1237.5"/>
      <point x="362" y="1195" type="qcurve"/>
      <point x="289" y="1136" type="line"/>
      <point x="200.0" y="1183.5" name="inserted"/>
      <point x="111.0" y="1324.5"/>
      <point x="111" y="1418" type="qcurve" smooth="yes"/>
    </contour>
  </outline>
</glyph>
<glyph name="glyph00454" format="2">
  <advance width="751"/>
  <outline>
    <contour>
      <point x="495" y="0" type="line"/>
      <point x="338" y="0" type="line"/>
      <point x="338" y="601" type="line"/>
      <point x="122" y="544" type="line"/>
      <point x="122" y="672" type="line"/>
      <point x="477" y="789" type="line"/>
      <point x="495" y="789" type="line"/>
    </contour>
  </outline>
</glyph>
<glyph name="glyph00458" format="2">
  <advance width="1039"/>
  <outline>
    <contour>
      <point x="960" y="1060" type="line"/>
      <point x="424" y="0" type="line"/>
      <point x="229" y="0" type="line"/>
      <point x="764" y="1012" type="line"/>
      <point x="66" y="1012" type="line"/>
      <point x="66" y="1165" type="line"/>
      <point x="960" y="1165" type="line"/>
    </contour>
  </outline>
</glyph>
<glyph name="glyph00459" format="2">
  <advance width="1038"/>
  <outline>
    <contour>
      <point x="768" y="1171" type="line"/>
      <point x="768" y="1015" type="line"/>
      <point x="738" y="1015" type="line" smooth="yes"/>
      <point x="538" y="1012"/>
      <point x="314" y="828"/>
      <point x="300" y="651" type="qcurve"/>
      <point x="352" y="708"/>
      <point x="502" y="771"/>
      <point x="580" y="771" type="qcurve" smooth="yes"/>
      <point x="754" y="771"/>
      <point x="955" y="556"/>
      <point x="955" y="382" type="qcurve" smooth="yes"/>
      <point x="955" y="206"/>
      <point x="732" y="-16"/>
      <point x="542" y="-16" type="qcurve" smooth="yes"/>
      <point x="348" y="-16"/>
      <point x="114" y="235"/>
      <point x="114" y="447" type="qcurve" smooth="yes"/>
      <point x="114" y="522" type="line" smooth="yes"/>
      <point x="114" y="841"/>
      <point x="434" y="1171"/>
      <point x="750" y="1171" type="qcurve" smooth="yes"/>
    </contour>
    <contour>
      <point x="542" y="619" type="qcurve" smooth="yes"/>
      <point x="462" y="619"/>
      <point x="331" y="542"/>
      <point x="299" y="478" type="qcurve"/>
      <point x="299" y="438" type="line" smooth="yes"/>
      <point x="299" y="300"/>
      <point x="436" y="136"/>
      <point x="541.0" y="136.0" type="qcurve" smooth="yes" name="inserted"/>
      <point x="646" y="136"/>
      <point x="772" y="269"/>
      <point x="772.0" y="377.0" type="qcurve" smooth="yes" name="inserted"/>
      <point x="772" y="485"/>
      <point x="649" y="619"/>
    </contour>
  </outline>
</glyph>
<glyph name="glyph00461" format="2">
  <advance width="1039"/>
  <outline>
    <contour>
      <point x="821" y="413" type="line"/>
      <point x="996" y="413" type="line"/>
      <point x="996" y="262" type="line"/>
      <point x="821" y="262" type="line"/>
      <point x="821" y="0" type="line"/>
      <point x="635" y="0" type="line"/>
      <point x="635" y="262" type="line"/>
      <point x="51" y="262" type="line"/>
      <point x="48" y="377" type="line"/>
      <point x="626" y="1165" type="line"/>
      <point x="821" y="1165" type="line"/>
    </contour>
    <contour>
      <point x="246" y="413" type="line"/>
      <point x="635" y="413" type="line"/>
      <point x="635" y="921" type="line"/>
      <point x="609" y="874" type="line"/>
    </contour>
  </outline>
</glyph>
<glyph name="glyph00464" format="2">
  <advance width="1039"/>
  <outline>
    <contour>
      <point x="669" y="0" type="line"/>
      <point x="483" y="0" type="line"/>
      <point x="483" y="943" type="line"/>
      <point x="152" y="844" type="line"/>
      <point x="152" y="1003" type="line"/>
      <point x="643" y="1168" type="line"/>
      <point x="669" y="1168" type="line"/>
    </contour>
  </outline>
</glyph>
<glyph name="glyph00467" format="2">
  <advance width="1067"/>
  <outline>
    <contour>
      <point x="532" y="586" type="line"/>
      <point x="844" y="1165" type="line"/>
      <point x="1052" y="1165" type="line"/>
      <point x="622" y="407" type="line"/>
      <point x="622" y="0" type="line"/>
      <point x="437" y="0" type="line"/>
      <point x="437" y="418" type="line"/>
      <point x="13" y="1165" type="line"/>
      <point x="221" y="1165" type="line"/>
    </contour>
  </outline>
</glyph>
<glyph name="glyph00469" format="2">
  <advance width="1557"/>
  <outline>
    <contour>
      <point x="431" y="294" type="line"/>
      <point x="442" y="214" type="line"/>
      <point x="457" y="278" type="line"/>
      <point x="705" y="1165" type="line"/>
      <point x="870" y="1165" type="line"/>
      <point x="1114" y="275" type="line"/>
      <point x="1127" y="216" type="line"/>
      <point x="1139" y="296" type="line"/>
      <point x="1337" y="1165" type="line"/>
      <point x="1521" y="1165" type="line"/>
      <point x="1223" y="0" type="line"/>
      <point x="1049" y="0" type="line"/>
      <point x="789" y="917" type="line"/>
      <point x="788" y="922" type="line"/>
      <point x="787" y="917" type="line"/>
      <point x="519" y="0" type="line"/>
      <point x="346" y="0" type="line"/>
      <point x="49" y="1165" type="line"/>
      <point x="232" y="1165" type="line"/>
    </contour>
  </outline>
</glyph>
<glyph name="glyph00475" format="2">
  <advance width="1211"/>
  <outline>
    <contour>
      <point x="1109" y="548" type="line" smooth="yes"/>
      <point x="1109" y="382"/>
      <point x="997" y="139"/>
      <point x="895" y="69" type="qcurve"/>
      <point x="1111" y="-91" type="line"/>
      <point x="987" y="-202" type="line"/>
      <point x="724" y="-3" type="line"/>
      <point x="697.0" y="-9.5" name="inserted"/>
      <point x="635.0" y="-16.0"/>
      <point x="600" y="-16" type="qcurve" smooth="yes"/>
      <point x="372" y="-16"/>
      <point x="89" y="289"/>
      <point x="89" y="553" type="qcurve" smooth="yes"/>
      <point x="89" y="615" type="line" smooth="yes"/>
      <point x="89" y="784"/>
      <point x="216" y="1043"/>
      <point x="332.0" y="1112.0" type="qcurve" smooth="yes" name="inserted"/>
      <point x="390.0" y="1146.5" name="inserted"/>
      <point x="523.0" y="1181.0"/>
      <point x="598" y="1181" type="qcurve" smooth="yes"/>
      <point x="832" y="1181"/>
      <point x="1109" y="874"/>
      <point x="1109" y="611" type="qcurve" smooth="yes"/>
    </contour>
    <contour>
      <point x="926" y="617" type="line" smooth="yes"/>
      <point x="926" y="815"/>
      <point x="754" y="1025"/>
      <point x="598" y="1025" type="qcurve" smooth="yes"/>
      <point x="450" y="1025"/>
      <point x="278" y="818"/>
      <point x="274" y="633" type="qcurve"/>
      <point x="274" y="548" type="line" smooth="yes"/>
      <point x="274" y="354"/>
      <point x="448" y="138"/>
      <point x="600" y="138" type="qcurve" smooth="yes"/>
      <point x="756" y="138"/>
      <point x="926" y="349"/>
      <point x="926" y="548" type="qcurve" smooth="yes"/>
    </contour>
  </outline>
</glyph>
